<ttFont>
          <CharString index="0">
            620 rmoveto
            -473 303 -167 274 369 229 200 450 -1 vhcurveto
            -1 651 -69 callsubr
            -508 -83 callsubr
            -662 vlineto
            -312 -121 -181 -276 -195 -187 126 347 vhcurveto
            682 vlineto
            80 41 29 138 -47 callgsubr
            141 17 -29 -80 hvcurveto
            return
          </CharString>
          <CharString index="1">
            29 23 8 33 45 hvcurveto
            200 149 rlineto
            47 35 11 38 36 vvcurveto
            51 -32 46 -60 -91 -28 -54 -75 -54 vhcurveto
            -123 -169 rlineto
            -9 -12 -9 -22 -12 vvcurveto
            -29 20 -23 31 vhcurveto
            return
          </CharString>
          <CharString index="2">
            488 rmoveto
            -371 260 -137 238 234 140 123 132 30 vhcurveto
            -149 -1 rlineto
            -84 -44 -70 -49 -117 hhcurveto
            -151 -132 119 241 hvcurveto
            694 hlineto
            1 26 1 42 26 vvcurveto
            230 -90 249 -352 -331 -162 -241 -305 vhcurveto
            240 86 rmoveto
            208 8 86 135 160 hhcurveto
            174 41 -166 -177 -8 hvcurveto
            return
          </CharString>
          <CharString index="3">
            -16 callgsubr
            hintmask 01110101
            170 351 rmoveto
            -247 118 -124 201 137 115 63 121 82 vhcurveto
            -153 30 94 -31 86 hhcurveto
            41 58 12 24 32 hvcurveto
            hintmask 10110101
            97 vlineto
            -7 -15 -24 -4 -19 hhcurveto
            -95 6 60 104 hvcurveto
            640 22 callsubr
            -39 -66 callgsubr
            57 -19 callsubr
            2 hvcurveto
            -459 vlineto
            hintmask 01110101
            -99 -38 -105 -91 -98 hhcurveto
            -158 -16 107 120 hvcurveto
            558 vlineto
            82 -11 50 -76 vhcurveto
            -64 -15 -42 -156 -51 callsubr
            26 -19 callsubr
            1 hvcurveto
            hintmask 00001010
            return
          </CharString>
          <CharString index="4">
            739 rmoveto
            -479 300 -280 407 407 300 270 489 547 -335 234 -372 -372 -335 -244 -537 vhcurveto
            710 -629 rmoveto
            -192 -258 129 521 444 206 186 238 238 212 -186 -444 -521 -252 -129 -192 hvcurveto
            return
          </CharString>
          <CharString index="5">
            rmoveto
            85 68 64 85 85 -68 67 -85 -85 -68 -67 -85 -85 68 -64 85 hvcurveto
            -480 hmoveto
            85 68 64 85 85 -68 67 -85 -85 -68 -67 -85 -85 68 -64 85 hvcurveto
            endchar
          </CharString>
          <CharString index="6">
            rmoveto
            29 29 13 48 29 hvcurveto
            130 216 rlineto
            28 47 13 41 34 vvcurveto
            61 -42 36 -73 -91 -25 -64 -125 -27 vhcurveto
            -50 -236 rlineto
            -45 -10 26 -26 34 hhcurveto
            endchar
          </CharString>
          <CharString index="7">
            rmoveto
            -49 32 -48 45 -20 vhcurveto
            37 -16 -16 -74 -99 -32 38 -60 rcurveline
            133 15 90 127 120 vvcurveto
            95 -55 60 -85 -63 -57 -45 -73 vhcurveto
            endchar
          </CharString>
          <CharString index="8">
            rmoveto
            227 175 227 -175 73 -67 60 46 -31 50 rlinecurve
            -273 371 rlineto
            -112 hlineto
            -273 -371 -31 -50 60 -46 73 67 rlinecurve
            endchar
          </CharString>
          <CharString index="9">
            -2 callsubr
            1062 rlineto
            -87 callsubr
            1 -1062 rlineto
            -80 -39 -29 -130 vhcurveto
            return
          </CharString>
          <CharString index="10">
            -134 -15 26 79 hvcurveto
            691 vlineto
            34 callgsubr
            -45 -87 callgsubr
            return
          </CharString>
          <CharString index="11">
            hmoveto
            508 -70 callgsubr
            -135 -17 26 79 hvcurveto
            567 vlineto
            65 63 108 37 73 hhcurveto
            188 16 -144 -149 hvcurveto
            -374 vlineto
            -79 -6 -28 -128 vhcurveto
            -110 473 -26 callsubr
            -121 -2 28 79 hvcurveto
            387 vlineto
            307 -126 return
          </CharString>
          <CharString index="12">
            90 500 rmoveto
            -381 251 -139 228 251 149 158 156 vhcurveto
            -137 hlineto
            -123 -31 -84 -70 -114 hhcurveto
            -145 -128 124 283 295 117 116 157 73 57 -32 -38 32 hvcurveto
            -36 -24 -23 -40 -44 vvcurveto
            -76 57 -58 73 82 58 63 81 169 -166 114 -215 -349 -157 -266 -268 vhcurveto
            return
          </CharString>
          <CharString index="13">
            442 hmoveto
            169 hlineto
            232 685 249 -685 rlineto
            169 hlineto
            277 797 rlineto
            74 26 40 33 88 hhcurveto
            110 -456 -72 callsubr
            153 34 -31 -76 -26 hvcurveto
            -190 -566 -252 783 rlineto
            -145 hlineto
            -258 -761 -194 544 rlineto
            79 -29 21 28 144 hhcurveto
            110 -505 -72 callsubr
            98 19 -37 -70 26 hvcurveto
            return
          </CharString>
          <CharString index="14">
            hmoveto
            507 112 hlineto
            -154 -20 30 81 hvcurveto
            928 vlineto
            907 -1151 rlineto
            123 1277 hlineto
            81 40 30 133 vhcurveto
            112 -504 -112 vlineto
            153 18 -30 -81 hvcurveto
            -866 vlineto
            -858 1089 rlineto
            -345 -112 hlineto
            153 20 -30 -81 hvcurveto
            -1054 vlineto
            -81 -40 -30 -133 vhcurveto
            return
          </CharString>
          <CharString index="15">
            300 -208 207 -39 callsubr
            hintmask 1011010010000000
            132 -13 callgsubr
            359 -213 351 213 142 81 59 57 vhcurveto
            hintmask 0111010010000000
            37 -120 rlineto
            134 655 -458 -133 hlineto
            205 46 -12 -142 hvcurveto
            hintmask 1011010010000000
            -106 -102 -152 -240 -243 -237 199 449 445 215 192 266 vhcurveto
            hintmask 1011010100000000
            129 149 -64 -117 56 hvcurveto
            -51 -24 -34 -53 -61 vvcurveto
            -81 59 -60 85 88 68 70 102 231 -242 182 -318 vhcurveto
            hintmask 1011010010000000
            -520 -214 -392 -378 hvcurveto
            hintmask 0000101000000000
            return
          </CharString>
          <CharString index="16">
            466 hintmask 00000000
            hintmask 11001010
            195 -174 rmoveto
            -82 -58 -64 -80 -109 86 -83 130 270 83 274 318 138 hvcurveto
            268 715 rlineto
            72 28 38 35 88 hhcurveto
            110 -466 42 callgsubr
            38 -32 -75 -29 hvcurveto
            -253 -680 -249 680 rlineto
            hintmask 11010010
            79 -27 27 28 155 hhcurveto
            110 -538 -72 callsubr
            112 8 -35 -72 25 hvcurveto
            290 -710 rlineto
            28 -72 63 2 -106 vvcurveto
            hintmask 11001010
            -85 -111 -216 -94 vhcurveto
            -12 -1 -13 2 -13 3 rrcurveto
            23 23 14 30 34 vvcurveto
            70 -56 55 -73 vhcurveto
            hintmask 00100100
            return
          </CharString>
          <CharString index="17">
            rmoveto
            293 281 40 43 -44 52 -88 -46 rlinecurve
            -257 -131 -257 131 -88 46 -44 -52 40 -43 rlinecurve
            293 -281 rlineto
            endchar
          </CharString>
          <CharString index="18">
            rmoveto
            -308 178 -190 257 133 117 51 127 85 vhcurveto
            -142 33 88 -36 83 hhcurveto
            40 58 12 24 32 hvcurveto
            97 vlineto
            -7 -14 -25 -4 -18 hhcurveto
            -96 6 60 104 hvcurveto
            1165 -14 callsubr
            -49 45 callgsubr
            -110 71 vlineto
            80 5 -29 -87 hvcurveto
            -369 vlineto
            71 -74 -100 41 -105 hhcurveto
            -273 -189 -167 -389 hvcurveto
            485 -378 rmoveto
            -187 -65 193 223 239 94 159 158 158 103 -139 -259 -253 -84 -163 -177 hvcurveto
            return
          </CharString>
          <CharString index="19">
            196 132 143 216 8 hvcurveto
            -114 hlineto
            -103 -33 -70 -67 -119 hhcurveto
            -119 -70 67 103 -33 hvcurveto
            -114 hlineto
            -216 8 132 -143 196 hhcurveto
            endchar
          </CharString>
          <CharString index="20">
            -89 callgsubr
            -562 -83 callsubr
            return
          </CharString>
          <CharString index="21">
            154 124 123 154 154 -124 124 -154 -154 -123 -124 -154 -154 123 -123 154 hvcurveto
            119 vmoveto
            -67 -56 59 99 99 56 58 67 67 56 -58 -99 -99 -56 -59 -67 hvcurveto
            endchar
          </CharString>
          <CharString index="22">
            150 18 -29 -80 hvcurveto
            return
          </CharString>
          <CharString index="23">
            hmoveto
            643 -70 callgsubr
            -177 -32 29 80 hvcurveto
            1165 205 vlineto
            126 49 -77 -98 14 hvcurveto
            29 -203 145 1 -44 493 rlineto
            -1273 hlineto
            -44 -493 145 -1 29 203 rlineto
            98 14 49 77 126 hhcurveto
            205 -1165 hlineto
            -80 -55 -29 -154 vhcurveto
            return
          </CharString>
          <CharString index="24">
            -72 callsubr
            -85 callsubr
            return
          </CharString>
          <CharString index="25">
            -88 51 57 -54 154 hhcurveto
            217 33 213 111 -34 hvcurveto
            -96 hlineto
            -76 -1 -10 -104 -67 hhcurveto
            -167 71 476 87 -285 hvcurveto
            196 57 141 127 225 vvcurveto
            202 -92 202 -464 vhcurveto
            -614 -110 hlineto
            -85 callsubr
            -1062 vlineto
            return
          </CharString>
          <CharString index="26">
            rmoveto
            273 371 31 50 -60 46 -73 -67 rlinecurve
            -227 -176 -227 176 -73 67 -60 -46 31 -50 rlinecurve
            273 -371 rlineto
            endchar
          </CharString>
          <CharString index="27">
            rmoveto
            -106 callsubr
            -404 hmoveto
            -107 callgsubr
          </CharString>
          <CharString index="28">
            106 -90 callgsubr
            return
          </CharString>
          <CharString index="29">
            hmoveto
            1095 hlineto
            50 444 rlineto
            -153 hlineto
            -242 -91 -80 -136 vhcurveto
            -501 hlineto
            849 1258 rlineto
            120 -1064 vlineto
            -20 -410 150 -1 rlineto
            210 57 79 140 vhcurveto
            473 hlineto
            -849 -1258 rlineto
            return
          </CharString>
          <CharString index="30">
            211 109 159 361 hvcurveto
            -1 895 rlineto
            34 callgsubr
            -65 -42 -169 -51 callsubr
            92 -19 callsubr
            1 hvcurveto
            -599 vlineto
            -164 37 -65 -136 vvcurveto
            -116 -35 -74 -92 -6 vhcurveto
            return
          </CharString>
          <CharString index="31">
            451 0 162 1255 108 hstem
            152 248 928 248 vstem
            181 hmoveto
            628 2 rlineto
            140 vlineto
            -273 259 -136 183 284 vvcurveto
            291 175 258 289 289 175 -258 -291 -284 -136 -183 -273 -259 vhcurveto
            -140 vlineto
            628 -2 49 373 -85 1 -27 -73 rlineto
            -93 -34 -6 -46 -126 hhcurveto
            -213 hlineto
            212 139 259 263 322 vvcurveto
            345 -249 294 -463 -463 -249 -294 -345 -322 259 -263 212 -139 vhcurveto
            -213 hlineto
            -126 -6 46 93 -34 hvcurveto
            -27 73 -85 -1 rlineto
            endchar
          </CharString>
          <CharString index="32">
            rmoveto
            -205 190 -162 268 310 173 182 352 vhcurveto
            -1 767 -69 callsubr
            -600 -72 callsubr
            186 21 -29 -80 hvcurveto
            -766 vlineto
            -249 -82 -159 -195 -91 -95 41 84 -35 vhcurveto
            58 24 42 58 65 vvcurveto
            88 -65 68 -85 -96 -72 -76 -112 vhcurveto
            return
          </CharString>
          <CharString index="33">
            hmoveto
            507 -70 callgsubr
            -135 -16 26 79 hvcurveto
            563 vlineto
            68 62 109 38 74 -23 callsubr
            62 -5 55 -9 47 vhcurveto
            74 61 114 42 78 -23 callsubr
            307 -114 122 -180 -145 -157 -87 -73 -78 vhcurveto
            111 -49 -87 49 -113 hhcurveto
            -121 -141 -66 -69 -79 hvcurveto
            2 vlineto
            return
          </CharString>
          <CharString index="34">
            518 -70 callgsubr
            -134 -16 28 79 hvcurveto
            1223 vlineto
            -18 callsubr
            1 -29 -87 hvcurveto
            -1083 vlineto
            -79 -36 -28 -116 vhcurveto
            return
          </CharString>
          <CharString index="35">
            -110 vlineto
            return
          </CharString>
          <CharString index="36">
            -80 -39 -29 -130 vhcurveto
            return
          </CharString>
          <CharString index="37">
            -2 callsubr
            485 rlineto
            745 hlineto
            1 -485 rlineto
            -71 callsubr
            -110 562 -26 callsubr
            -66 callsubr
            1062 rlineto
            -87 callsubr
            -447 -745 447 vlineto
            -87 callsubr
            1 -1062 rlineto
            -80 -39 -29 -130 vhcurveto
            return
          </CharString>
          <CharString index="38">
            rlineto
            -89 callgsubr
            return
          </CharString>
          <CharString index="39">
            vvcurveto
            -135 97 -78 132 143 112 92 199 -5 vhcurveto
            -7 callsubr
            return
          </CharString>
          <CharString index="40">
            0 -63 callgsubr
            return
          </CharString>
          <CharString index="41">
            -150 -18 29 80 hvcurveto
            -1 return
          </CharString>
          <CharString index="42">
            13 callsubr
            642 rmoveto
            638 162 vlineto
            298 76 -138 -161 -227 -81 -112 -232 hvcurveto
            return
          </CharString>
          <CharString index="43">
            -86 75 109 -51 117 hhcurveto
            293 172 216 349 317 -171 172 -267 -135 -101 -51 -88 -67 hvcurveto
            536 -14 callsubr
            -45 45 callgsubr
            -14 callgsubr
            -793 rmoveto
            233 91 182 167 187 68 -192 -223 -238 -97 -160 -158 -158 -100 150 248 vhcurveto
            return
          </CharString>
          <CharString index="44">
            -31 callgsubr
            hintmask 10100000
            560 hmoveto
            -58 callsubr
          </CharString>
          <CharString index="45">
            rmoveto
            -77 callgsubr
            -85 71 -65 85 hvcurveto
            -255 -1219 rmoveto
            515 -70 callgsubr
            return
          </CharString>
          <CharString index="46">
            rmoveto
            -85 71 -65 85 -77 callgsubr
            vhcurveto
            return
          </CharString>
          <CharString index="47">
            hmoveto
            619 -70 callgsubr
            -216 -11 24 135 hvcurveto
            383 220 vlineto
            198 -16 -332 -198 115 hvcurveto
            return
          </CharString>
          <CharString index="48">
            -97 callsubr
            endchar
          </CharString>
          <CharString index="49">
            -80 callgsubr
            endchar
          </CharString>
          <CharString index="50">
            -56 callsubr
            -70 -46 -42 -174 hhcurveto
            return
          </CharString>
          <CharString index="51">
            82 -12 46 -76 vhcurveto
            return
          </CharString>
          <CharString index="52">
            0 -56 callgsubr
            return
          </CharString>
          <CharString index="53">
            35 callgsubr
            559 -26 callsubr
            -181 -22 12 103 hvcurveto
            357 vlineto
            -71 74 101 -41 105 hhcurveto
            283 178 206 359 308 -177 181 -257 -136 -100 -52 -80 -67 hvcurveto
            3 -14 callsubr
            -49 45 callgsubr
            return
          </CharString>
          <CharString index="54">
            300 -20 130 1280 130 return
          </CharString>
          <CharString index="55">
            -107 -510 120 682 115 417 237 -137 110 return
          </CharString>
          <CharString index="56">
            hhcurveto
            -110 return
          </CharString>
          <CharString index="57">
            72 71 47 22 85 4 rrcurveto
            110 -535 -72 callsubr
            117 82 -36 -75 -77 hvcurveto
            -595 -596 rlineto
            598 vlineto
            80 37 29 130 vhcurveto
            110 -560 -110 vlineto
            -36 callsubr
            return
          </CharString>
          <CharString index="58">
            338 -41 callgsubr
            return
          </CharString>
          <CharString index="59">
            hmoveto
            560 -70 callgsubr
            -150 -16 29 80 hvcurveto
            -1 294 246 239 307 -491 74 -115 -78 -34 -118 -2 rlinecurve
            -110 627 -26 callsubr
            -111 -4 -73 46 -67 107 -414 635 rcurveline
            411 399 rlineto
            return
          </CharString>
          <CharString index="60">
            219 105 179 265 23 hvcurveto
            -106 hlineto
            -15 -91 rlineto
            -69 -15 -48 -76 -102 -183 -112 238 -269 hhcurveto
            return
          </CharString>
          <CharString index="61">
            hstemhm
            250 225 return
          </CharString>
          <CharString index="62">
            0 110 return
          </CharString>
          <CharString index="63">
            0 37 callsubr
            return
          </CharString>
          <CharString index="64">
            -13 -1 -14 4 -14 5 rrcurveto
            22 21 14 30 32 vvcurveto
            67 -54 53 -70 vhcurveto
            return
          </CharString>
          <CharString index="65">
            -518 -67 callsubr
            return
          </CharString>
          <CharString index="66">
            -106 -20 139 801 114 return
          </CharString>
          <CharString index="67">
            306 174 306 return
          </CharString>
          <CharString index="68">
            hintmask 0000000000000000
            return
          </CharString>
          <CharString index="69">
            146 1264 110 return
          </CharString>
          <CharString index="70">
            hmoveto
            569 -70 callgsubr
            -189 -22 12 102 hvcurveto
            670 302 120 -302 114 vlineto
            362 107 22 81 33 43 -23 -46 20 vhcurveto
            -43 -14 -31 -39 -51 vvcurveto
            -67 64 -54 65 vhcurveto
            return
          </CharString>
          <CharString index="71">
            -85 callsubr
            1 -1062 rlineto
            -71 callsubr
            return
          </CharString>
          <CharString index="72">
            130 -89 -21 522 133 740 125 return
          </CharString>
          <CharString index="73">
            180 -170 -21 181 180 hstemhm
            return
          </CharString>
          <CharString index="74">
            rmoveto
            -75 43 -24 59 -42 vhcurveto
            104 -73 -79 -184 -231 -78 48 -69 rcurveline
            241 39 166 231 237 vvcurveto
            123 -73 83 -108 -80 -90 -62 -106 vhcurveto
            endchar
          </CharString>
          <CharString index="75">
            rmoveto
            -561 481 rlineto
            -124 vlineto
            292 -390 -292 -389 rlineto
            -124 vlineto
            return
          </CharString>
          <CharString index="76">
            475 780 rmoveto
            -4 callgsubr
            -221 160 -147 195 hvcurveto
            return
          </CharString>
          <CharString index="77">
            -126 -510 120 1294 110 return
          </CharString>
          <CharString index="78">
            rmoveto
            170 -720 -170 vlineto
            endchar
          </CharString>
          <CharString index="79">
            vlineto
            -45 callgsubr
            return
          </CharString>
          <CharString index="80">
            58 -47 -74 39 -99 hhcurveto
            -245 -164 -193 -313 hvcurveto
            -100 -163 -120 113 vlineto
            41 9 -12 -52 hvcurveto
            -615 34 callsubr
            -122 vhcurveto
            return
          </CharString>
          <CharString index="81">
            110 vlineto
            return
          </CharString>
          <CharString index="82">
            105 hlineto
            13 91 rlineto
            70 14 52 75 102 208 112 -238 243 hhcurveto
            return
          </CharString>
          <CharString index="83">
            251 rmoveto
            -183 return
          </CharString>
          <CharString index="84">
            hhcurveto
            161 13 -144 -149 hvcurveto
            -374 vlineto
            -79 -6 -28 -128 vhcurveto
            -110 473 -26 callsubr
            -121 -2 28 79 hvcurveto
            387 vlineto
            return
          </CharString>
          <CharString index="85">
            96 -24 callsubr
            return
          </CharString>
          <CharString index="86">
            -176 -54 -171 -98 -176 vvcurveto
            880 323 rmoveto
            208 8 87 135 160 hhcurveto
            174 41 -166 -177 -8 hvcurveto
            return
          </CharString>
          <CharString index="87">
            -20 -10 callgsubr
            return
          </CharString>
          <CharString index="88">
            vlineto
            79 0 -29 -87 return
          </CharString>
          <CharString index="89">
            -57 callsubr
            -110 81 vlineto
            80 return
          </CharString>
          <CharString index="90">
            -90 hlineto
            -86 -45 -51 -70 return
          </CharString>
          <CharString index="91">
            1281 rlineto
            return
          </CharString>
          <CharString index="92">
            108 hstemhm
            -6 callgsubr
            return
          </CharString>
          <CharString index="93">
            -28 callsubr
            -67 return
          </CharString>
          <CharString index="94">
            180 496 hstemhm
            return
          </CharString>
          <CharString index="95">
            rmoveto
            1111 -581 rlineto
            174 vlineto
            -808 429 808 430 rlineto
            174 vlineto
            -1111 -581 rlineto
            endchar
          </CharString>
          <CharString index="96">
            1101 163 -1101 hlineto
            return
          </CharString>
          <CharString index="97">
            112 1276 112 return
          </CharString>
          <CharString index="98">
            -159 hlineto
            -33 -17 4 51 hvcurveto
            543 -158 vlineto
            -380 -604 rmoveto
            336 388 rlineto
            -409 vlineto
            return
          </CharString>
          <CharString index="99">
            -20 -2 callgsubr
            return
          </CharString>
          <CharString index="100">
            -17 callsubr
            -65 -29 45 46 return
          </CharString>
          <CharString index="101">
            -192 -163 -131 -241 return
          </CharString>
          <CharString index="102">
            39 -18 36 -29 23 vhcurveto
            33 46 67 34 103 hhcurveto
            111 75 -58 -75 -112 -53 -17 -262 -83 hvcurveto
            return
          </CharString>
          <CharString index="103" raw="1">
            05827f82 757f1a6e 9f74aa1e 0e
          </CharString>
          <CharString index="104">
            rmoveto
            -85 69 -69 85 85 69 69 85 85 -69 69 -85 return
          </CharString>
          <CharString index="105">
            hmoveto
            562 -7 callgsubr
            return
          </CharString>
          <CharString index="106">
            -11 callgsubr
            130 110 return
          </CharString>
          <CharString index="107">
            vlineto
            4 callgsubr
            return
          </CharString>
          <CharString index="108">
            rmoveto
            -1111 581 rlineto
            -174 vlineto
            808 -430 -808 -429 rlineto
            -174 vlineto
            return
          </CharString>
          <CharString index="109">
            -250 -132 -172 -139 -81 57 -62 78 76 58 58 76 50 -26 43 -40 23 return
          </CharString>
          <CharString index="110">
            -234 -220 -113 -172 10 hvcurveto
            -67 4 50 -52 70 hhcurveto
            74 59 56 73 hvcurveto
            return
          </CharString>
          <CharString index="111">
            -215 -142 -133 -113 -73 50 -56 71 68 53 53 68 34 -15 32 -23 22 return
          </CharString>
          <CharString index="112">
            -226 -45 callsubr
            795 109 return
          </CharString>
          <CharString index="113">
            528 106 hstemhm
            120 206 298 206 190 206 298 206 return
          </CharString>
          <CharString index="114">
            -20 121 -121 139 342 113 343 117 -110 110 return
          </CharString>
          <CharString index="115">
            -85 71 -65 85 -77 callgsubr
            vhcurveto
            endchar
          </CharString>
          <CharString index="116">
            -510 115 1276 110 42 -20 return
          </CharString>
          <CharString index="117">
            -45 callsubr
            784 120 return
          </CharString>
          <CharString index="118">
            469 163 -469 469 -163 -469 -469 -163 469 return
          </CharString>
          <CharString index="119">
            -36 callsubr
            endchar
          </CharString>
          <CharString index="120">
            -80 -17 -18 callgsubr
            392 return
          </CharString>
          <CharString index="121">
            154 246 155 return
          </CharString>
          <CharString index="122">
            105 27 callgsubr
            -36 579 return
          </CharString>
          <CharString index="123">
            vvcurveto
            76 -58 60 -78 -84 -60 -71 -92 vhcurveto
            return
          </CharString>
          <CharString index="124">
            hstemhm
            221 223 return
          </CharString>
          <CharString index="125">
            685 hstemhm
            358 196 364 196 hintmask 11000000
            206 return
          </CharString>
          <CharString index="126">
            -490 110 360 120 781 110 -77 120 return
          </CharString>
          <CharString index="127">
            -597 -148 1801 hstem
            256 163 vstem
            256 return
          </CharString>
          <CharString index="128">
            rmoveto
            215 185 118 183 102 -67 77 -103 56 hvcurveto
            return
          </CharString>
          <CharString index="129">
            -33 callgsubr
            -65 return
          </CharString>
          <CharString index="130">
            78 -13 callgsubr
            return
          </CharString>
          <CharString index="131">
            hstemhm
            220 216 return
          </CharString>
          <CharString index="132">
            -134 -20 23 71 hvcurveto
            64 vlineto
            48 8 1 36 vhcurveto
            return
          </CharString>
          <CharString index="133">
            -351 -430 102 949 112 954 101 hstemhm
            return
          </CharString>
          <CharString index="134">
            216 508 233 hintmask 00000000
            return
          </CharString>
          <CharString index="135">
            160 496 hstemhm
            return
          </CharString>
          <CharString index="136">
            hlineto
            -43 -370 rlineto
            145 hlineto
            43 370 rlineto
            return
          </CharString>
          <CharString index="137">
            -65 -29 45 46 134 140 131 126 return
          </CharString>
          <CharString index="138">
            -464 -400 110 1940 110 hstem
            return
          </CharString>
          <CharString index="139">
            95 78 78 95 95 -78 78 -95 -95 -78 -78 -95 return
          </CharString>
          <CharString index="140">
            180 -10 180 hstemhm
            return
          </CharString>
          <CharString index="141">
            vlineto
            -79 -18 -26 return
          </CharString>
          <CharString index="142">
            10 callsubr
            498 108 return
          </CharString>
          <CharString index="143">
            -189 -380 97 207 103 723 93 return
          </CharString>
          <CharString index="144">
            110 766 110 -102 149 -5 -20 return
          </CharString>
          <CharString index="145">
            -286 -487 -135 -209 vvcurveto
            endchar
          </CharString>
          <CharString index="146">
            110 hstemhm
            271 216 return
          </CharString>
          <CharString index="147">
            448 163 hstem
            120 return
          </CharString>
          <CharString index="148">
            -20 397 116 return
          </CharString>
          <CharString index="149">
            -510 154 return
          </CharString>
          <CharString index="150">
            240 -190 257 355 218 return
          </CharString>
          <CharString index="151">
            117 357 105 349 117 hstemhm
            return
          </CharString>
        <CharString name=".notdef">
          759 -95 87 326 108 607 98 339 87 hstemhm
          140 197 205 388 -388 467 100 371 218 197 -39 callsubr
          hintmask 1111110110000000
          1400 -8 rmoveto
          -87 495 1652 -495 -87 298 -1478 vlineto
          -1558 -87 rmoveto
          495 87 -298 1478 298 87 -495 hlineto
          402 -1239 rmoveto
          388 108 hlineto
          -91 7 55 52 44 hvcurveto
          87 102 93 -102 rlineto
          -45 41 38 -62 -125 hhcurveto
          -108 456 108 vlineto
          -64 -59 54 53 -45 hvcurveto
          -192 222 165 171 rlineto
          51 49 72 56 74 hhcurveto
          98 -367 -98 vlineto
          91 -27 -55 -52 -44 hvcurveto
          hintmask 1111101110000000
          -79 -93 -80 93 rlineto
          42 -36 -41 65 112 hhcurveto
          98 -467 -98 vlineto
          61 62 -56 -51 46 hvcurveto
          194 -213 -167 -180 rlineto
          hintmask 1111110110000000
          -52 -48 -73 -55 -75 hhcurveto
          endchar
        </CharString>
        <CharString name=".null">
          endchar
        </CharString>
        <CharString name="A">
          303 -37 callgsubr
          hstem
          -11 350 797 438 vstem
          -11 -101 callgsubr
          endchar
        </CharString>
        <CharString name="AE">
          878 -37 callgsubr
          116 110 582 112 hstem
          -22 537 583 226 346 150 vstem
          -22 -74 callgsubr
          endchar
        </CharString>
        <CharString name="AEacute">
          941 -37 callgsubr
          116 110 582 112 -32 callgsubr
          41 537 583 226 -127 406 67 150 hintmask 1111011010000000
          41 -74 callgsubr
          hintmask 0000100100000000
          150 1034 rmoveto
          -107 callgsubr
        </CharString>
        <CharString name="Aacute">
          323 -37 callgsubr
          1034 396 hstemhm
          -1 350 360 406 31 438 hintmask 11010100
          -1 -101 callgsubr
          hintmask 00101000
          -244 1034 rmoveto
          -107 callgsubr
        </CharString>
        <CharString name="Abreve">
          323 -37 callgsubr
          1072 189 hstemhm
          -1 350 128 672 -3 438 hintmask 11010100
          -1 -101 callgsubr
          hintmask 00101000
          -191 1072 rmoveto
          -88 callgsubr
        </CharString>
        <CharString name="Acircumflex">
          323 -37 callgsubr
          1072 348 hstemhm
          -1 350 100 728 -31 438 hintmask 11010100
          -1 -101 callgsubr
          hintmask 00101000
          -448 1090 -99 callgsubr
        </CharString>
        <CharString name="Adieresis">
          323 -37 callgsubr
          1076 301 hstemhm
          -1 350 71 -40 callsubr
          -60 438 hintmask 11010010
          -1 -101 callgsubr
          hintmask 00101100
          49 1076 -102 callsubr
        </CharString>
        <CharString name="Agrave">
          323 -37 callgsubr
          1034 396 hstemhm
          -1 350 211 406 180 438 hintmask 11010100
          -1 -101 callgsubr
          hintmask 00101000
          -89 1034 -93 callgsubr
        </CharString>
        <CharString name="Amacron">
          323 -37 callgsubr
          1114 170 hstemhm
          -1 350 104 720 -27 438 hintmask 11010100
          -1 -101 callgsubr
          hintmask 00101000
          169 1114 -29 callsubr
        </CharString>
        <CharString name="Aogonek">
          323 42 callsubr
          356 110 360 110 hstemhm
          -1 350 381 540 -142 456 -105 90 hintmask 00000000
          hintmask 01111010
          -1 hmoveto
          547 -70 callgsubr
          -185 -32 32 77 30 hvcurveto
          101 251 rlineto
          565 hlineto
          90 -251 rlineto
          hintmask 01110100
          -82 31 -12 -27 -185 -51 callsubr
          349 vlineto
          hintmask 11111010
          -102 -73 -106 -106 -118 -68 callsubr
          134 140 131 126 vhcurveto
          hintmask 01110100
          48 -70 callgsubr
          -137 -21 34 75 -31 hvcurveto
          -494 -16 callsubr
          hintmask 01111010
          -171 hlineto
          -540 -1281 rlineto
          -77 -31 -49 -32 -111 hhcurveto
          506 470 rmoveto
          258 637 -1 -9 224 -628 rlineto
          endchar
        </CharString>
        <CharString name="Aring">
          303 -37 callgsubr
          841 -20 428 121 hstem
          -11 350 187 14 callsubr
          55 438 vstem
          -11 hmoveto
          547 -70 callgsubr
          -185 -32 32 77 30 hvcurveto
          103 251 rlineto
          581 hlineto
          90 -251 rlineto
          -82 31 -12 -27 -185 -51 callsubr
          617 -26 callsubr
          -137 -21 34 75 -31 hvcurveto
          -464 1202 rlineto
          95 44 65 95 112 vvcurveto
          154 -124 124 -154 -154 -123 -124 -154 -112 65 -96 95 -44 vhcurveto
          -506 -1201 rlineto
          -77 -31 -49 -32 -111 hhcurveto
          814 1404 rmoveto
          -67 -56 59 99 99 56 58 67 67 56 -58 -99 -99 -56 -59 -67 hvcurveto
          -306 -934 rmoveto
          265 648 232 -648 rlineto
          endchar
        </CharString>
        <CharString name="Atilde">
          323 -37 callgsubr
          1061 -34 callsubr
          -1 350 59 810 -72 438 hintmask 11000101
          -1 -101 callgsubr
          hintmask 00000000
          -60 1061 -85 callgsubr
          hhcurveto
          hintmask 00100010
          -81 -65 170 -179 hhcurveto
          -83 callgsubr
          hintmask 00011010
          -54 callgsubr
        </CharString>
        <CharString name="B">
          85 -45 callsubr
          622 90 568 110 hstemhm
          240 225 497 248 -168 249 hintmask 00000000
          hintmask 11110100
          73 2 callgsubr
          hintmask 11111000
          -59 callgsubr
          hintmask 11110100
          12 callgsubr
          endchar
        </CharString>
        <CharString name="C">
          -22 callgsubr
          hstem
          78 266 681 313 vstem
          -96 callgsubr
          endchar
        </CharString>
        <CharString name="CR">
          endchar
        </CharString>
        <CharString name="Cacute">
          -22 callgsubr
          94 396 hstemhm
          78 266 322 406 -47 313 hintmask 11010100
          -96 callgsubr
          hintmask 00101000
          639 864 rmoveto
          -107 callgsubr
        </CharString>
        <CharString name="Ccaron">
          -22 callgsubr
          125 -21 hstemhm
          78 266 62 728 -109 313 hintmask 11010100
          -96 callgsubr
          hintmask 00101000
          748 874 -90 callsubr
        </CharString>
        <CharString name="Ccedilla">
          213 -419 131 268 130 -102 -21 1408 125 hstemhm
          78 266 410 126 145 313 hintmask 00000000
          hintmask 11011100
          463 -3 callgsubr
          285 36 189 189 188 vvcurveto
          -144 hlineto
          hintmask 11011110
          -200 -57 -145 -90 -196 hhcurveto
          -228 -226 199 449 445 209 192 260 114 120 -44 -111 58 hvcurveto
          -48 -27 -32 -53 -60 vvcurveto
          -86 62 -63 90 92 69 74 107 224 -234 164 -312 -506 -208 -392 -378 -552 344 -214 332 -4 vhcurveto
          hintmask 11011100
          -6 -248 -134 -51 -151 46 rrcurveto
          endchar
        </CharString>
        <CharString name="Ccircumflex">
          -22 callgsubr
          132 348 hstemhm
          78 266 62 728 -109 313 hintmask 11010100
          -96 callgsubr
          hintmask 00101000
          435 920 -99 callgsubr
        </CharString>
        <CharString name="Cdotaccent">
          -22 callgsubr
          154 311 hstemhm
          78 266 262 328 91 313 hintmask 11010100
          -96 callgsubr
          hintmask 00101000
          692 924 rmoveto
          -97 callgsubr
        </CharString>
        <CharString name="D">
          226 39 callgsubr
          hstem
          240 225 700 261 vstem
          72 -73 callgsubr
          endchar
        </CharString>
        <CharString name="DC1">
          endchar
        </CharString>
        <CharString name="DC2">
          endchar
        </CharString>
        <CharString name="DC3">
          endchar
        </CharString>
        <CharString name="DC4">
          endchar
        </CharString>
        <CharString name="DEL">
          endchar
        </CharString>
        <CharString name="DLE">
          endchar
        </CharString>
        <CharString name="Dcaron">
          239 39 callgsubr
          145 -21 -46 callsubr
          -114 728 86 261 hintmask 11010100
          82 -73 callgsubr
          hintmask 00101000
          120 1513 -90 callsubr
        </CharString>
        <CharString name="Dcroat">
          -72 callgsubr
        </CharString>
        <CharString name="Delta">
          -39 callgsubr
        </CharString>
        <CharString name="E">
          59 0 -67 callgsubr
          hstem
          240 225 377 130 vstem
          71 -106 callgsubr
          endchar
        </CharString>
        <CharString name="Eacute">
          49 0 -67 callgsubr
          114 396 -46 callsubr
          70 406 -99 130 hintmask 11101010
          81 -106 callgsubr
          hintmask 00010100
          515 1504 rmoveto
          -107 callgsubr
        </CharString>
        <CharString name="Ebreve">
          49 0 -67 callgsubr
          152 189 -46 callsubr
          -162 672 -133 130 hintmask 11101010
          81 -106 callgsubr
          hintmask 00010100
          568 1542 rmoveto
          -88 callgsubr
        </CharString>
        <CharString name="Ecaron">
          49 0 -67 callgsubr
          145 -21 -46 callsubr
          -190 728 -161 130 hintmask 11101010
          81 -106 callgsubr
          hintmask 00010100
          624 1514 -90 callsubr
        </CharString>
        <CharString name="Ecircumflex">
          49 0 -67 callgsubr
          152 348 -46 callsubr
          -190 728 -161 130 hintmask 11101010
          81 -106 callgsubr
          hintmask 00010100
          311 1560 -99 callgsubr
        </CharString>
        <CharString name="Edieresis">
          49 0 -67 callgsubr
          156 301 -46 callsubr
          -219 -40 callsubr
          -190 130 hintmask 11101001
          81 -106 callgsubr
          hintmask 00010110
          808 1546 -102 callsubr
        </CharString>
        <CharString name="Edotaccent">
          49 0 -67 callgsubr
          174 311 -46 callsubr
          10 328 39 130 hintmask 11101010
          81 -106 callgsubr
          hintmask 00010100
          568 1564 rmoveto
          -97 callgsubr
        </CharString>
        <CharString name="Egrave">
          49 0 -67 callgsubr
          114 396 -46 callsubr
          -79 406 50 130 hintmask 11101010
          81 -106 callgsubr
          hintmask 00010100
          670 1504 -93 callgsubr
        </CharString>
        <CharString name="Emacron">
          49 0 -67 callgsubr
          194 170 -46 callsubr
          -186 720 -157 130 hintmask 11101010
          81 -106 callgsubr
          hintmask 00010100
          928 1584 -29 callsubr
        </CharString>
        <CharString name="Eng">
          442 -510 114 396 -10 callsubr
          hstem
          271 160 317 334 219 160 vstem
          98 hmoveto
          507 112 hlineto
          -154 -20 30 81 hvcurveto
          928 vlineto
          744 -944 rlineto
          86 -118 39 -121 -102 vvcurveto
          -151 -76 -111 -134 -29 -30 9 18 -24 vhcurveto
          45 30 30 51 57 vvcurveto
          93 -68 74 -89 -102 -75 -83 -108 -151 148 -104 164 253 148 178 332 vhcurveto
          1277 vlineto
          81 40 30 133 vhcurveto
          112 -504 -112 vlineto
          153 18 -30 -81 hvcurveto
          -866 vlineto
          -858 1089 rlineto
          -345 -112 hlineto
          153 20 -30 -81 hvcurveto
          -1054 vlineto
          -81 -40 -30 -133 vhcurveto
          endchar
        </CharString>
        <CharString name="Eogonek">
          49 42 callsubr
          356 -67 callgsubr
          hstemhm
          250 240 210 450 -328 150 117 90 hintmask 00000000
          hintmask 01111011
          81 hmoveto
          832 hlineto
          hintmask 11111100
          -102 -67 -111 -104 -126 vvcurveto
          -135 97 -78 132 vhcurveto
          hintmask 11111011
          143 112 92 199 -5 hvcurveto
          hintmask 11111100
          -90 hlineto
          -86 -45 -51 -70 30 callsubr
          vhcurveto
          33 hlineto
          -42 callgsubr
          -400 586 173 hlineto
          hintmask 01111011
          -50 callgsubr
          -173 582 361 hlineto
          126 17 -43 -96 23 hvcurveto
          27 -113 rlineto
          hintmask 01111100
          145 1 -39 363 rlineto
          -1068 -110 hlineto
          130 38 -29 -80 hvcurveto
          -1064 vlineto
          -80 -39 -27 -130 vhcurveto
          endchar
        </CharString>
        <CharString name="Eth">
          -72 callgsubr
        </CharString>
        <CharString name="Euro">
          237 -20 130 384 99 246 99 452 130 hstem
          262 270 577 313 vstem
          24 494 rmoveto
          266 hlineto
          -368 88 280 -146 260 hhcurveto
          312 194 196 194 hvcurveto
          -144 hlineto
          -179 -52 -125 -81 -171 hhcurveto
          -158 -154 120 264 -61 hvcurveto
          373 hlineto
          17 99 rlineto
          -407 hlineto
          -7 50 -3 55 60 vvcurveto
          28 1 27 1 26 vhcurveto
          444 hlineto
          17 99 rlineto
          -452 hlineto
          316 44 163 136 197 hhcurveto
          93 98 -32 -89 50 hvcurveto
          -47 -27 -32 -52 -60 vvcurveto
          -86 62 -63 90 92 69 74 107 206 -210 152 -276 -399 -202 -273 -309 -56 vhcurveto
          -187 hlineto
          -17 -99 rlineto
          191 hlineto
          -3 -30 -1 -30 -29 vvcurveto
          -56 3 -52 7 -49 vhcurveto
          -231 hlineto
          endchar
        </CharString>
        <CharString name="F">
          -6 0 -67 callgsubr
          hstem
          240 225 367 130 vstem
          72 -62 callgsubr
          endchar
        </CharString>
        <CharString name="G">
          268 -20 -35 callsubr
          hstemhm
          78 264 730 300 -208 207 hintmask 00000000
          hintmask 10111010
          23 callsubr
          359 -213 351 213 142 81 59 57 vhcurveto
          hintmask 01111010
          37 -120 rlineto
          134 655 -458 -133 hlineto
          205 46 -12 -142 hvcurveto
          hintmask 10111010
          -106 -102 -152 -240 -243 -237 199 449 445 215 192 266 vhcurveto
          hintmask 10111100
          129 149 -64 -117 56 hvcurveto
          -51 -24 -34 -53 -61 vvcurveto
          -81 59 -60 85 88 68 70 102 231 -242 182 -318 vhcurveto
          hintmask 10111010
          -520 -214 -392 -378 hvcurveto
          endchar
        </CharString>
        <CharString name="Gbreve">
          322 -20 -35 callsubr
          132 189 hstemhm
          132 264 132 672 -74 -92 callsubr
          732 902 rmoveto
          -88 callgsubr
        </CharString>
        <CharString name="Gcircumflex">
          322 -20 -35 callsubr
          132 348 hstemhm
          132 264 104 728 -102 -92 callsubr
          475 920 -99 callgsubr
        </CharString>
        <CharString name="Gcommaaccent">
          322 23 callgsubr
          -35 callsubr
          hstemhm
          132 264 442 165 123 300 -208 207 -39 callsubr
          hintmask 0101110010000000
          132 -13 callgsubr
          359 -213 351 213 142 81 59 57 vhcurveto
          hintmask 0011110010000000
          37 -120 rlineto
          134 655 -458 -133 hlineto
          205 46 -12 -142 hvcurveto
          hintmask 0101110010000000
          -106 -102 -152 -240 -243 -237 199 449 445 215 192 266 vhcurveto
          hintmask 0101110100000000
          129 149 -64 -117 56 hvcurveto
          -51 -24 -34 -53 -61 vvcurveto
          -81 59 -60 85 88 68 70 102 231 -242 182 -318 vhcurveto
          hintmask 0101110010000000
          -520 -214 -392 -378 hvcurveto
          hintmask 1000001000000000
          611 -998 -100 callsubr
        </CharString>
        <CharString name="Gdotaccent">
          322 -20 -35 callsubr
          154 311 hstemhm
          132 264 304 328 98 -92 callsubr
          732 924 rmoveto
          -97 callgsubr
        </CharString>
        <CharString name="H">
          397 -45 callsubr
          594 130 556 110 hstem
          241 225 745 224 vstem
          72 -70 callsubr
          endchar
        </CharString>
        <CharString name="HT">
          endchar
        </CharString>
        <CharString name="Hbar">
          431 -45 callsubr
          594 130 209 130 217 110 hstem
          262 225 745 225 vstem
          93 -2 callsubr
          485 rlineto
          745 hlineto
          1 -485 rlineto
          -71 callsubr
          -110 562 -26 callsubr
          -66 callsubr
          824 rlineto
          171 130 -171 108 hlineto
          -87 callsubr
          -108 -745 108 vlineto
          -87 callsubr
          -108 -180 -130 180 vlineto
          1 -824 rlineto
          -71 callsubr
          393 724 rmoveto
          209 745 -209 vlineto
          endchar
        </CharString>
        <CharString name="Hcircumflex">
          431 -45 callsubr
          594 130 556 -9 callgsubr
          262 225 3 728 14 224 hintmask 11101010
          93 -70 callsubr
          hintmask 00010100
          504 1560 -99 callgsubr
        </CharString>
        <CharString name="I">
          -556 -67 callsubr
          hstem
          250 224 vstem
          81 -98 callsubr
          endchar
        </CharString>
        <CharString name="IJ">
          710 -20 127 -107 -63 callgsubr
          hstemhm
          268 224 301 318 398 225 hintmask 01110000
          99 -98 callsubr
          hintmask 10101100
          694 237 -75 callsubr
          endchar
        </CharString>
        <CharString name="Iacute">
          -518 27 callgsubr
          268 224 -217 406 hintmask 11010000
          99 -98 callsubr
          hintmask 00101000
          227 1504 rmoveto
          -107 callgsubr
        </CharString>
        <CharString name="Ibreve">
          -42 callsubr
          152 189 hstemhm
          43 672 -447 224 hintmask 11001000
          99 -98 callsubr
          hintmask 00110000
          280 1542 rmoveto
          -88 callgsubr
        </CharString>
        <CharString name="Icircumflex">
          -42 callsubr
          152 348 hstemhm
          15 728 -475 224 hintmask 11001000
          99 -98 callsubr
          hintmask 00110000
          23 1560 -99 callgsubr
        </CharString>
        <CharString name="Idieresis">
          -42 callsubr
          156 301 hstemhm
          -14 306 -24 224 -26 306 hintmask 11001000
          99 -98 callsubr
          hintmask 00110100
          520 1546 -102 callsubr
        </CharString>
        <CharString name="Idotaccent">
          -42 callsubr
          174 311 hstemhm
          215 328 -275 224 hintmask 11001000
          99 -98 callsubr
          hintmask 00110000
          280 1564 rmoveto
          -97 callgsubr
        </CharString>
        <CharString name="Igrave">
          -518 27 callgsubr
          126 406 -264 224 hintmask 11001000
          99 -98 callsubr
          hintmask 00110000
          382 1504 -93 callgsubr
        </CharString>
        <CharString name="Imacron">
          -42 callsubr
          194 170 hstemhm
          19 720 -471 224 hintmask 11001000
          99 -98 callsubr
          hintmask 00110000
          640 1584 -29 callsubr
        </CharString>
        <CharString name="Iogonek">
          -518 42 callsubr
          356 -63 callgsubr
          hstemhm
          130 533 -398 229 25 90 hintmask 00000000
          hintmask 11110000
          96 hmoveto
          242 hlineto
          -102 -73 -106 -106 -118 vvcurveto
          -135 97 -78 132 vhcurveto
          hintmask 11100100
          143 112 92 199 -5 hvcurveto
          -17 callsubr
          vhcurveto
          hintmask 11110000
          30 callsubr
          hvcurveto
          87 -70 callgsubr
          hintmask 11101000
          -66 callsubr
          1062 rlineto
          hintmask 11110000
          -89 callgsubr
          -567 -72 callsubr
          hintmask 11101000
          12 callsubr
        </CharString>
        <CharString name="Itilde">
          -42 callsubr
          141 -34 callsubr
          -26 810 -516 224 hintmask 11000010
          99 -98 callsubr
          hintmask 00000000
          411 1531 -85 callgsubr
          hhcurveto
          hintmask 00100100
          -81 -65 170 -179 hhcurveto
          -83 callgsubr
          hintmask 00011100
          -54 callgsubr
        </CharString>
        <CharString name="J">
          0 -20 127 1283 110 hstem
          83 318 398 225 vstem
          83 347 -75 callsubr
          endchar
        </CharString>
        <CharString name="Jcircumflex">
          0 -20 127 1283 -9 callgsubr
          83 318 135 728 -465 225 hintmask 11010100
          83 347 -75 callsubr
          hintmask 00101000
          560 1323 -99 callgsubr
        </CharString>
        <CharString name="K">
          284 -67 callsubr
          hstemhm
          241 224 473 535 -426 476 hintmask 00000000
          hintmask 11101000
          72 -48 callsubr
          hintmask 11110000
          -50 callsubr
          endchar
        </CharString>
        <CharString name="Kcommaaccent">
          303 -1 callsubr
          1280 110 hstemhm
          250 224 311 165 -3 535 -426 476 hintmask 00000000
          hintmask 01110010
          81 -48 callsubr
          hintmask 01110100
          -50 callsubr
          hintmask 10001000
          609 -358 -100 callsubr
        </CharString>
        <CharString name="L">
          -2 5 callgsubr
          hstemhm
          241 225 hintmask 00000000
          hintmask 01110000
          72 hmoveto
          -81 callgsubr
          hintmask 10110000
          -71 callsubr
          endchar
        </CharString>
        <CharString name="LF">
          endchar
        </CharString>
        <CharString name="Lacute">
          -3 5 callgsubr
          114 396 -46 callsubr
          -215 406 hintmask 00000000
          hintmask 01101000
          81 hmoveto
          -81 callgsubr
          hintmask 10101000
          -71 callsubr
          hintmask 00010100
          230 1504 rmoveto
          -107 callgsubr
        </CharString>
        <CharString name="Lcaron">
          -3 0 116 769 614 -109 110 -46 callsubr
          491 166 hintmask 01001000
          882 887 -71 callgsubr
          hintmask 00000000
          -801 -887 rmoveto
          -81 callgsubr
          hintmask 10110000
          -71 callsubr
          endchar
        </CharString>
        <CharString name="Lcommaaccent">
          -3 -547 417 130 9 callgsubr
          -46 callsubr
          148 165 hintmask 00000000
          hintmask 00111000
          81 hmoveto
          -81 callgsubr
          hintmask 01011000
          -71 callsubr
          hintmask 10000100
          447 -358 -100 callsubr
        </CharString>
        <CharString name="Ldot">
          -3 -45 callsubr
          -110 116 548 303 423 110 -46 callsubr
          366 312 hintmask 00000000
          hintmask 01011000
          81 hmoveto
          -81 callgsubr
          hintmask 10011000
          -71 callsubr
          hintmask 00100100
          760 704 rmoveto
          8 callsubr
        </CharString>
        <CharString name="Lslash">
          -3 5 callgsubr
          hstemhm
          249 226 hintmask 00000000
          hintmask 01110000
          81 hmoveto
          1068 hlineto
          69 403 -138 1 -40 -113 rlineto
          -93 -33 -61 -82 -126 hhcurveto
          -345 523 hlineto
          424 425 -92 71 -332 -333 rlineto
          479 vlineto
          -60 callgsubr
          -705 vlineto
          -200 -201 92 -71 108 109 1 -194 rlineto
          hintmask 10110000
          -71 callsubr
          endchar
        </CharString>
        <CharString name="M">
          692 -67 callsubr
          hstem
          250 160 1087 223 vstem
          -68 callgsubr
          endchar
        </CharString>
        <CharString name="N">
          372 0 -10 callsubr
          hstem
          240 160 870 160 vstem
          67 -93 callsubr
          endchar
        </CharString>
        <CharString name="Nacute">
          442 0 -10 callsubr
          -32 callgsubr
          271 160 341 406 123 160 hintmask 11010100
          98 -93 callsubr
          hintmask 00101000
          725 1502 rmoveto
          -107 callgsubr
        </CharString>
        <CharString name="Ncaron">
          442 0 -10 callsubr
          145 -21 hstemhm
          271 160 81 728 61 160 hintmask 11010100
          98 -93 callsubr
          hintmask 00101000
          834 1512 -90 callsubr
        </CharString>
        <CharString name="Ncommaaccent">
          442 -11 callgsubr
          130 -10 callsubr
          hstemhm
          271 160 482 165 223 160 hintmask 01110100
          98 -93 callsubr
          hintmask 10001000
          720 -360 -100 callsubr
        </CharString>
        <CharString name="Ntilde">
          442 0 -10 callsubr
          141 -34 callsubr
          271 160 40 810 20 160 hintmask 11000101
          98 -93 callsubr
          hintmask 00000000
          909 1529 -85 callgsubr
          hhcurveto
          hintmask 00100010
          -81 -65 170 -179 hhcurveto
          -83 callgsubr
          hintmask 00011010
          -54 callgsubr
        </CharString>
        <CharString name="O">
          292 -20 130 1280 130 hstem
          78 260 894 260 vstem
          78 -103 callsubr
          endchar
        </CharString>
        <CharString name="OE">
          862 -20 130 -110 -67 callgsubr
          -110 130 hstemhm
          78 250 746 223 349 150 hintmask 00000000
          hintmask 10101111
          78 748 rmoveto
          -489 308 -279 407 vhcurveto
          hintmask 01110111
          64 61 7 13 58 hvcurveto
          1027 hlineto
          -42 callgsubr
          -417 586 190 hlineto
          -50 callgsubr
          -190 582 378 hlineto
          126 17 -43 -96 23 hvcurveto
          27 -113 145 1 -39 363 rlineto
          -997 hlineto
          hintmask 01101111
          13 -60 -62 7 -62 hhcurveto
          hintmask 10101111
          -372 -343 -235 -537 hvcurveto
          hintmask 01101111
          715 -638 rmoveto
          -200 -265 129 521 444 217 186 248 83 135 -25 -76 63 hvcurveto
          -8 vlineto
          -1061 vlineto
          -57 -58 -75 -53 -148 hhcurveto
          endchar
        </CharString>
        <CharString name="Oacute">
          -53 callsubr
          94 396 hstemhm
          82 260 343 406 145 260 hintmask 11010100
          82 -103 callsubr
          hintmask 00101000
          -56 1504 rmoveto
          -107 callgsubr
        </CharString>
        <CharString name="Obreve">
          -53 callsubr
          132 189 hstemhm
          82 260 111 672 111 260 hintmask 11010100
          82 -103 callsubr
          hintmask 00101000
          -3 1542 rmoveto
          -88 callgsubr
        </CharString>
        <CharString name="Ocircumflex">
          -53 callsubr
          132 348 hstemhm
          82 260 83 728 83 260 hintmask 11010100
          82 -103 callsubr
          hintmask 00101000
          -260 1560 -99 callgsubr
        </CharString>
        <CharString name="Odieresis">
          -53 callsubr
          136 301 hstemhm
          82 260 54 -40 callsubr
          54 260 hintmask 11010010
          82 -103 callsubr
          hintmask 00101100
          237 1546 -102 callsubr
        </CharString>
        <CharString name="Ograve">
          -53 callsubr
          94 396 hstemhm
          82 260 194 406 294 260 hintmask 11010100
          82 -103 callsubr
          hintmask 00101000
          99 1504 -93 callgsubr
        </CharString>
        <CharString name="Ohungarumlaut">
          -53 callsubr
          94 396 hstemhm
          82 260 192 810 -108 260 hintmask 11010100
          82 -103 callsubr
          hintmask 00101000
          197 1504 -80 callsubr
        </CharString>
        <CharString name="Omacron">
          -53 callsubr
          174 170 hstemhm
          82 260 87 720 87 260 hintmask 11010100
          82 -103 callsubr
          hintmask 00101000
          357 1584 -29 callsubr
        </CharString>
        <CharString name="Omega">
          -76 callsubr
        </CharString>
        <CharString name="Oslash">
          -53 callsubr
          52 -21 hstem
          82 260 894 260 vstem
          221 -33 rmoveto
          104 -70 102 172 rlineto
          -59 104 123 -30 135 hhcurveto
          407 300 270 489 319 -114 213 -169 121 hvcurveto
          94 159 -104 70 -99 -166 rlineto
          44 -96 -108 21 -111 hhcurveto
          -372 -335 -244 -537 -265 91 -204 151 -129 hvcurveto
          110 185 rmoveto
          -56 99 -36 140 195 vvcurveto
          444 206 186 238 84 82 -24 -50 70 vhcurveto
          -506 -1098 rmoveto
          597 1007 rlineto
          76 -102 47 -153 -210 vvcurveto
          -521 -252 -129 -192 -89 -102 28 80 -85 vhcurveto
          endchar
        </CharString>
        <CharString name="Otilde">
          -53 callsubr
          121 -34 callsubr
          82 260 42 810 42 260 hintmask 11000101
          82 -103 callsubr
          hintmask 00000000
          128 1531 -85 callgsubr
          hhcurveto
          hintmask 00100010
          -81 -65 170 -179 hhcurveto
          -83 callgsubr
          hintmask 00011010
          -54 callgsubr
        </CharString>
        <CharString name="P">
          -8 -45 callsubr
          475 100 705 110 hstem
          240 225 495 241 vstem
          73 -61 callgsubr
          endchar
        </CharString>
        <CharString name="Q">
          292 -343 144 179 130 250 138 892 130 hstemhm
          78 260 894 260 -68 107 hintmask 00000000
          hintmask 11111100
          78 744 rmoveto
          -489 300 -275 407 52 50 5 9 48 vhcurveto
          -170 56 75 -167 213 hhcurveto
          hintmask 11111010
          217 60 199 105 -34 hvcurveto
          -98 hlineto
          -76 -1 -38 -84 -84 hhcurveto
          -88 -39 122 141 -36 hvcurveto
          hintmask 11111100
          216 117 138 235 332 vvcurveto
          537 -335 235 -372 -372 -335 -239 -537 vhcurveto
          429 -523 rmoveto
          -97 95 -72 166 278 vvcurveto
          444 209 186 238 238 209 -180 -430 -265 -62 -166 -86 -101 vhcurveto
          136 -53 -82 114 -166 hhcurveto
          -168 -89 -154 -123 -19 hvcurveto
          105 -73 rmoveto
          131 5 49 81 82 hhcurveto
          77 52 -78 -153 32 hvcurveto
          -13 -42 -43 -6 -39 hhcurveto
          -55 -60 10 28 -58 hvcurveto
          endchar
        </CharString>
        <CharString name="R">
          197 -8 callsubr
          hstemhm
          240 225 536 241 122 107 hintmask 00000000
          hintmask 01111110
          73 -60 callsubr
          hintmask 10111110
          -82 callsubr
          hintmask 01111110
          -65 callsubr
          endchar
        </CharString>
        <CharString name="RS">
          endchar
        </CharString>
        <CharString name="Racute">
          194 -8 callsubr
          114 396 -46 callsubr
          90 406 40 -75 callgsubr
          -82 862 rmoveto
          -107 callgsubr
        </CharString>
        <CharString name="Rcaron">
          194 -8 callsubr
          145 -21 -46 callsubr
          -170 728 -22 -75 callgsubr
          27 872 -90 callsubr
        </CharString>
        <CharString name="Rcommaaccent">
          194 23 callgsubr
          -2 callgsubr
          -46 callsubr
          339 165 32 241 122 107 -39 callsubr
          hintmask 0011110110000000
          83 -60 callsubr
          hintmask 0101110110000000
          -82 callsubr
          hintmask 0011110110000000
          -65 callsubr
          hintmask 1000001000000000
          21 -1000 -100 callsubr
        </CharString>
        <CharString name="S">
          -91 -20 callsubr
          hstemhm
          104 296 -259 219 416 286 -190 221 hintmask 00000000
          hintmask 11100100
          104 272 rmoveto
          -147 181 -145 306 289 213 136 260 228 -242 148 -186 106 vhcurveto
          hintmask 11011000
          -154 86 -151 88 161 vvcurveto
          145 132 62 122 90 97 -17 -53 39 vhcurveto
          -39 -26 -25 -44 -51 vvcurveto
          -75 61 -61 82 84 59 69 86 160 -182 132 -276 -248 -215 -153 -245 -245 215 -129 188 -109 vhcurveto
          hintmask 11100100
          171 -92 157 -84 -139 vvcurveto
          -159 -138 -65 -133 -101 -104 24 54 -54 vhcurveto
          35 27 23 41 45 vvcurveto
          81 -61 63 -82 -90 -63 -72 -91 vhcurveto
          endchar
        </CharString>
        <CharString name="Sacute">
          4 -20 callsubr
          94 396 -26 callgsubr
          160 406 -150 -100 callgsubr
          467 1342 rmoveto
          -107 callgsubr
        </CharString>
        <CharString name="Scaron">
          4 -20 callsubr
          125 -21 -26 callgsubr
          -100 728 -212 -100 callgsubr
          576 1352 -90 callsubr
        </CharString>
        <CharString name="Scedilla">
          4 -419 131 268 120 -89 -21 1410 120 -26 callgsubr
          249 126 41 286 -190 221 -39 callsubr
          hintmask 1101101010000000
          149 272 rmoveto
          -147 181 -145 306 vhcurveto
          6 6 1 6 hhcurveto
          -6 -249 11 callgsubr
          255 30 174 235 -41 hvcurveto
          221 35 152 131 220 vvcurveto
          228 -242 148 -186 106 vhcurveto
          -154 86 -151 88 161 vvcurveto
          145 132 62 122 vhcurveto
          hintmask 1101011100000000
          90 97 -17 -53 39 hvcurveto
          -39 -26 -25 -44 -51 vvcurveto
          -75 61 -61 82 84 59 69 86 160 -182 132 -276 -248 -215 -153 -245 -245 215 -129 188 -109 vhcurveto
          hintmask 1101101010000000
          171 -92 157 -84 -139 vvcurveto
          -159 -138 -65 -133 -101 -104 24 54 -54 vhcurveto
          35 27 23 41 45 vvcurveto
          81 -61 63 -82 -90 -63 -72 -91 vhcurveto
          endchar
        </CharString>
        <CharString name="Scircumflex">
          4 -20 callsubr
          132 348 -26 callgsubr
          -100 728 -212 -100 callgsubr
          263 1398 -99 callgsubr
        </CharString>
        <CharString name="Scommaaccent">
          4 23 callgsubr
          -10 callgsubr
          -26 callgsubr
          212 165 39 286 -190 221 hintmask 00000000
          hintmask 01110001
          149 272 rmoveto
          -147 181 -145 306 289 213 136 260 228 -242 148 -186 106 vhcurveto
          hintmask 01101010
          -154 86 -151 88 161 vvcurveto
          145 132 62 122 90 97 -17 -53 39 vhcurveto
          -39 -26 -25 -44 -51 vvcurveto
          -75 61 -61 82 84 59 69 86 160 -182 132 -276 -248 -215 -153 -245 -245 215 -129 188 -109 vhcurveto
          hintmask 01110001
          171 -92 157 -84 -139 vvcurveto
          -159 -138 -65 -133 -101 -104 24 54 -54 vhcurveto
          35 27 23 41 45 vvcurveto
          81 -61 63 -82 -90 -63 -72 -91 vhcurveto
          hintmask 10000100
          373 -520 -100 callsubr
        </CharString>
        <CharString name="T">
          99 17 callgsubr
          hstem
          576 225 vstem
          367 -84 callsubr
          endchar
        </CharString>
        <CharString name="Tbar">
          105 -45 callsubr
          573 130 194 41 callsubr
          hstem
          577 225 vstem
          368 hmoveto
          643 -70 callgsubr
          -177 -32 29 80 hvcurveto
          464 381 130 -381 571 205 vlineto
          126 49 -77 -98 14 hvcurveto
          29 -203 145 1 -44 493 rlineto
          -1273 hlineto
          -44 -493 145 -1 29 203 rlineto
          98 14 49 77 126 hhcurveto
          205 -571 -377 -130 377 -464 hlineto
          -80 -55 -29 -154 vhcurveto
          endchar
        </CharString>
        <CharString name="Tcaron">
          105 17 callgsubr
          145 -21 hstemhm
          333 728 -484 225 hintmask 11100100
          368 -84 callsubr
          hintmask 00011000
          385 1514 -90 callsubr
        </CharString>
        <CharString name="Tcommaaccent">
          105 -1 callsubr
          897 41 callsubr
          hstemhm
          577 225 -130 165 hintmask 01111000
          368 -84 callsubr
          hintmask 10000100
          209 -358 -100 callsubr
        </CharString>
        <CharString name="Thorn">
          1 -45 callsubr
          204 102 687 111 176 110 hstem
          220 226 494 241 vstem
          53 hmoveto
          573 -70 callgsubr
          -176 -4 31 118 hvcurveto
          55 35 vlineto
          433 -12 267 120 341 vvcurveto
          205 -74 246 -518 vhcurveto
          -143 37 hlineto
          118 4 21 176 vhcurveto
          110 -573 -72 callsubr
          150 17 -29 -80 hvcurveto
          -1062 vlineto
          -80 -17 -18 callgsubr
          393 306 rmoveto
          687 125 vlineto
          320 49 -201 -162 -190 -107 -134 -308 hvcurveto
          endchar
        </CharString>
        <CharString name="U">
          325 -41 callgsubr
          hstem
          210 223 779 171 vstem
          210 -107 callsubr
          endchar
        </CharString>
        <CharString name="US">
          endchar
        </CharString>
        <CharString name="Uacute">
          -49 callsubr
          114 396 17 callsubr
          309 406 64 171 hintmask 11010100
          221 -107 callsubr
          hintmask 00101000
          583 333 rmoveto
          -107 callgsubr
        </CharString>
        <CharString name="Ubreve">
          -49 callsubr
          152 189 17 callsubr
          77 672 30 171 hintmask 11010100
          221 -107 callsubr
          hintmask 00101000
          636 371 rmoveto
          -88 callgsubr
        </CharString>
        <CharString name="Ucircumflex">
          -49 callsubr
          152 348 17 callsubr
          49 728 2 171 hintmask 11010100
          221 -107 callsubr
          hintmask 00101000
          379 389 -99 callgsubr
        </CharString>
        <CharString name="Udieresis">
          -49 callsubr
          156 301 17 callsubr
          20 -40 callsubr
          -27 171 hintmask 11010010
          221 -107 callsubr
          hintmask 00101100
          876 375 -102 callsubr
        </CharString>
        <CharString name="Ugrave">
          -49 callsubr
          114 396 17 callsubr
          160 406 213 171 hintmask 11010100
          221 -107 callsubr
          hintmask 00101000
          738 333 -93 callgsubr
        </CharString>
        <CharString name="Uhungarumlaut">
          -49 callsubr
          114 396 17 callsubr
          158 810 -189 171 hintmask 11010100
          221 -107 callsubr
          hintmask 00101000
          836 333 -80 callsubr
        </CharString>
        <CharString name="Umacron">
          -49 callsubr
          194 170 17 callsubr
          53 720 6 171 hintmask 11010100
          221 -107 callsubr
          hintmask 00101000
          996 413 -29 callsubr
        </CharString>
        <CharString name="Uogonek">
          338 42 callsubr
          336 -38 callsubr
          hstemhm
          221 242 167 959 -570 90 140 171 hintmask 00000000
          hintmask 01110110
          221 620 rmoveto
          -469 277 -168 311 -3 vhcurveto
          hintmask 11111000
          -88 -62 -91 -93 -122 vvcurveto
          -135 97 -78 132 vhcurveto
          hintmask 11110110
          143 112 92 199 -5 hvcurveto
          -17 callsubr
          vhcurveto
          hintmask 11111000
          -65 -29 45 46 134 134 92 107 53 hvcurveto
          hintmask 01110110
          195 96 176 154 -1 356 -1 661 rcurveline
          hintmask 01111000
          -89 callgsubr
          -508 -72 callsubr
          hintmask 01110110
          -85 callsubr
          -682 vlineto
          -292 -122 -181 -269 -205 -190 126 347 vhcurveto
          -1 682 -69 callsubr
          -578 -83 callsubr
          endchar
        </CharString>
        <CharString name="Uring">
          -49 callsubr
          -49 24 callgsubr
          17 callsubr
          122 14 callsubr
          102 171 hintmask 11001001
          221 -107 callsubr
          hintmask 00110110
          622 170 rmoveto
          -86 callsubr
        </CharString>
        <CharString name="Utilde">
          -49 callsubr
          141 -34 callsubr
          221 223 8 810 -39 171 hintmask 11000101
          221 -107 callsubr
          hintmask 00000000
          767 360 -85 callgsubr
          hhcurveto
          hintmask 00100010
          -81 -65 170 -179 hhcurveto
          -83 callgsubr
          hintmask 00011010
          -54 callgsubr
        </CharString>
        <CharString name="V">
          207 10 callgsubr
          hstem
          -45 449 776 350 vstem
          688 hmoveto
          131 hlineto
          520 -16 callsubr
          77 32 48 32 111 hhcurveto
          110 -547 -72 callsubr
          185 32 -32 -77 -30 hvcurveto
          -378 -987 -375 987 rlineto
          82 -31 12 27 185 hhcurveto
          110 -628 -72 callsubr
          137 21 -34 -75 31 hvcurveto
          endchar
        </CharString>
        <CharString name="W">
          803 10 callgsubr
          hstem
          -45 408 1246 517 vstem
          569 -95 callgsubr
          endchar
        </CharString>
        <CharString name="Wacute">
          15 callgsubr
          613 406 227 517 hintmask 11010100
          679 -95 callgsubr
          hintmask 00101000
          905 333 rmoveto
          -107 callgsubr
        </CharString>
        <CharString name="Wcircumflex">
          22 callgsubr
          152 348 hstemhm
          65 408 353 728 165 517 hintmask 11010100
          679 -95 callgsubr
          hintmask 00101000
          701 389 -99 callgsubr
        </CharString>
        <CharString name="Wdieresis">
          22 callgsubr
          156 301 hstemhm
          65 408 324 -40 callsubr
          136 517 hintmask 11010010
          679 -95 callgsubr
          hintmask 00101100
          1198 375 -102 callsubr
        </CharString>
        <CharString name="Wgrave">
          15 callgsubr
          464 406 376 517 hintmask 11010100
          679 -95 callgsubr
          hintmask 00101000
          1060 333 -93 callgsubr
        </CharString>
        <CharString name="X">
          299 -67 callsubr
          hstemhm
          70 527 -507 480 388 527 -450 480 hintmask 00000000
          hintmask 11101000
          70 hmoveto
          527 -70 callgsubr
          -165 -22 42 67 50 hvcurveto
          295 395 rlineto
          hintmask 11100100
          253 -395 rlineto
          -74 47 -2 -35 -143 -51 callsubr
          605 -26 callsubr
          -137 -58 41 68 -44 hvcurveto
          -351 548 339 514 rlineto
          hintmask 11011000
          69 45 77 40 99 hhcurveto
          110 -527 -72 callsubr
          165 18 -39 -70 -46 hvcurveto
          -252 -386 -246 386 rlineto
          72 -46 1 37 143 hhcurveto
          110 -605 -72 callsubr
          137 59 -41 -68 43 hvcurveto
          345 -539 -383 -523 rlineto
          hintmask 11101000
          -66 -48 -74 -43 -99 hhcurveto
          endchar
        </CharString>
        <CharString name="Y">
          87 -67 callsubr
          hstem
          -45 579 59 214 86 517 vstem
          386 -94 callgsubr
          endchar
        </CharString>
        <CharString name="Yacute">
          15 callsubr
          59 214 -169 406 -151 517 hintmask 11011010
          395 -94 callgsubr
          hintmask 00100100
          303 1504 rmoveto
          -107 callgsubr
        </CharString>
        <CharString name="Ycircumflex">
          105 -67 callsubr
          152 348 hstemhm
          -36 579 -156 728 -513 214 86 517 hintmask 11010110
          395 -94 callgsubr
          hintmask 00101000
          99 1560 -99 callgsubr
        </CharString>
        <CharString name="Ydieresis">
          105 -67 callsubr
          156 301 hstemhm
          -36 579 -185 306 -62 214 22 306 -242 517 hintmask 11010101
          395 -94 callgsubr
          hintmask 00101010
          596 1546 -102 callsubr
        </CharString>
        <CharString name="Ygrave">
          15 callsubr
          -45 406 -302 214 86 517 hintmask 11010110
          395 -94 callgsubr
          hintmask 00101000
          458 1504 -93 callgsubr
        </CharString>
        <CharString name="Z">
          34 13 callgsubr
          hstem
          137 140 vstem
          98 -78 callsubr
          endchar
        </CharString>
        <CharString name="Zacute">
          14 13 callgsubr
          -32 callgsubr
          127 140 314 406 hintmask 11010000
          88 -78 callsubr
          hintmask 00101000
          544 1494 rmoveto
          -107 callgsubr
        </CharString>
        <CharString name="Zcaron">
          14 13 callgsubr
          145 -21 hstemhm
          127 140 54 728 hintmask 11010000
          88 -78 callsubr
          hintmask 00101000
          653 1504 -90 callsubr
        </CharString>
        <CharString name="Zdotaccent">
          14 13 callgsubr
          174 311 hstemhm
          127 140 254 328 hintmask 11010000
          88 -78 callsubr
          hintmask 00101000
          597 1554 rmoveto
          -97 callgsubr
        </CharString>
        <CharString name="a">
          -41 callsubr
          -40 callgsubr
          323 216 134 105 hintmask 00000000
          hintmask 11101100
          -22 callsubr
          155 -88 148 181 107 73 87 79 vhcurveto
          -95 28 78 -65 103 hhcurveto
          169 57 129 152 -7 hvcurveto
          -105 hlineto
          -113 -35 -28 -46 -40 -13 40 79 vhcurveto
          449 vlineto
          226 -112 120 -279 vhcurveto
          hintmask 11011100
          -213 -202 -101 -172 10 hvcurveto
          -67 4 50 -47 70 hhcurveto
          74 59 51 73 41 -20 35 -30 23 hvcurveto
          28 40 62 22 78 hhcurveto
          104 89 -64 -65 -112 -53 -17 -262 -83 hvcurveto
          hintmask 11101100
          -166 -54 -162 -98 -176 vvcurveto
          242 3 rmoveto
          102 60 82 116 50 vhcurveto
          48 19 100 35 77 40 rrcurveto
          -154 vlineto
          -205 -126 -104 -136 -83 -56 52 83 vhcurveto
          endchar
        </CharString>
        <CharString name="aacute">
          -41 callsubr
          160 496 -40 callgsubr
          85 310 -72 -104 callgsubr
          215 940 -101 callsubr
        </CharString>
        <CharString name="abreve">
          -41 callsubr
          148 189 -40 callgsubr
          -170 672 -179 -104 callgsubr
          244 928 rmoveto
          -88 callsubr
        </CharString>
        <CharString name="acircumflex">
          -41 callsubr
          133 433 -40 callgsubr
          -171 674 -180 -104 callgsubr
          17 946 -99 callsubr
        </CharString>
        <CharString name="acute">
          1194 496 hstem
          -104 310 vstem
          -52 1194 -101 callsubr
        </CharString>
        <CharString name="acute.cap">
          1614 396 hstem
          -153 406 vstem
          -102 1614 rmoveto
          -107 callgsubr
        </CharString>
        <CharString name="adieresis">
          -41 callsubr
          191 301 -40 callgsubr
          -227 -40 callsubr
          -236 216 134 105 -39 callsubr
          hintmask 1101000110000000
          -22 callsubr
          155 -88 148 181 107 73 87 79 vhcurveto
          -95 28 78 -65 103 hhcurveto
          169 57 129 152 -7 hvcurveto
          -105 hlineto
          -113 -35 -28 -46 -40 -13 40 79 vhcurveto
          449 vlineto
          226 -112 120 -279 vhcurveto
          hintmask 1100100110000000
          -213 -202 -101 -172 10 hvcurveto
          -67 4 50 -47 70 hhcurveto
          74 59 51 73 41 -20 35 -30 23 hvcurveto
          28 40 62 22 78 hhcurveto
          104 89 -64 -65 -112 -53 -17 -262 -83 hvcurveto
          hintmask 1101000110000000
          -166 -54 -162 -98 -176 vvcurveto
          242 3 rmoveto
          102 60 82 116 50 vhcurveto
          48 19 100 35 77 40 rrcurveto
          -154 vlineto
          -205 -126 -104 -136 -83 -56 52 83 vhcurveto
          hintmask 0010011000000000
          484 971 -102 callsubr
        </CharString>
        <CharString name="ae">
          485 7 callsubr
          hstemhm
          96 43 callsubr
          462 234 -39 callsubr
          hintmask 1011010110000000
          96 -65 callgsubr
          hintmask 1011001110000000
          3 callsubr
          hintmask 1010101110000000
          -5 callsubr
          hintmask 1011010110000000
          -21 callsubr
          hintmask 0111010110000000
          -23 callgsubr
          endchar
        </CharString>
        <CharString name="aeacute">
          483 7 callsubr
          28 callsubr
          92 43 callsubr
          -142 310 294 234 -39 callsubr
          hintmask 1011001010100000
          92 -65 callgsubr
          hintmask 1011000110100000
          3 callsubr
          hintmask 1010100110100000
          -5 callsubr
          hintmask 1011001010100000
          -21 callsubr
          hintmask 0111001010100000
          -23 callgsubr
          hintmask 0000010001000000
          550 930 -101 callsubr
        </CharString>
        <CharString name="agrave">
          -41 callsubr
          160 496 -40 callgsubr
          -50 310 63 -104 callgsubr
          286 940 -92 callgsubr
        </CharString>
        <CharString name="amacron">
          -41 callsubr
          199 170 -40 callgsubr
          -174 680 -183 -104 callgsubr
          584 979 -29 callgsubr
        </CharString>
        <CharString name="ampersand">
          397 -20 112 -112 139 696 98 502 105 hstemhm
          111 231 -22 206 307 193 143 367 -161 267 -39 callsubr
          hintmask 0111101010000000
          111 382 rmoveto
          -230 18 172 -172 272 hhcurveto
          167 123 53 90 100 hvcurveto
          -73 76 112 -70 182 hhcurveto
          163 133 104 164 13 hvcurveto
          86 7 -54 68 -81 hhcurveto
          -73 -60 -57 -72 -6 hvcurveto
          hintmask 1011101010000000
          -5 -64 42 -52 60 -11 rrcurveto
          -41 -31 -37 -13 -57 hhcurveto
          -88 -79 85 98 -86 hvcurveto
          75 110 66 131 73 142 rrcurveto
          hintmask 0111011100000000
          43 89 55 58 134 10 -7 98 rcurveline
          -517 hlineto
          7 -98 111 -5 54 -46 -24 -86 rlinecurve
          -28 -102 -49 -113 -67 -98 -102 132 -115 165 -95 152 188 125 143 154 -13 185 rrcurveto
          157 -16 -162 85 -177 hhcurveto
          -211 -156 -154 -207 16 hvcurveto
          4 -51 15 -55 27 -56 24 -49 31 -58 37 -61 rrcurveto
          hintmask 0111101010000000
          -199 -78 -165 -168 17 -201 rrcurveto
          536 533 rmoveto
          hintmask 0111011010000000
          -30 51 -26 48 -22 44 -23 46 -16 57 -4 54 rrcurveto
          104 -8 46 96 97 hhcurveto
          96 66 -76 -92 10 hvcurveto
          hintmask 0111101010000000
          9 -141 -71 -91 -124 -100 rrcurveto
          -305 -526 rmoveto
          -12 146 54 117 132 82 111 -178 139 -197 117 -146 rrcurveto
          -58 -73 -84 -36 -96 hhcurveto
          -172 -105 130 140 -11 hvcurveto
          endchar
        </CharString>
        <CharString name="aogonek">
          -112 42 callsubr
          336 139 -101 -21 923 114 hstemhm
          97 240 -178 257 244 180 -101 210 100 90 -56 105 -39 callsubr
          hintmask 1101100110000000
          97 -24 callsubr
          154 -88 148 181 107 73 87 79 vhcurveto
          hintmask 1011100110000000
          19 -66 41 -52 58 -25 rrcurveto
          hintmask 1101101010000000
          -105 -68 -119 -106 -120 -68 callsubr
          134 153 64 86 59 vhcurveto
          hintmask 1101010101000000
          75 51 40 93 -6 125 rrcurveto
          -105 hlineto
          -113 -35 -28 -46 -40 -13 40 79 vhcurveto
          449 vlineto
          226 -106 120 -279 -213 -202 -103 -172 10 vhcurveto
          -67 4 50 -52 70 hhcurveto
          74 59 56 73 41 -20 36 -31 24 hvcurveto
          28 40 63 22 78 hhcurveto
          104 89 -64 -65 -112 -53 -17 -262 -83 hvcurveto
          hintmask 1101100110000000
          -166 -54 -161 -98 -176 vvcurveto
          240 3 rmoveto
          102 61 82 116 50 vhcurveto
          48 19 100 35 77 40 rrcurveto
          -154 vlineto
          -205 -126 -104 -136 -83 -57 52 83 vhcurveto
          endchar
        </CharString>
        <CharString name="approxequal">
          255 123 208 30 208 65 25 callgsubr
          hintmask 00011000
          169 636 rmoveto
          -25 callsubr
          hintmask 00111000
          -47 callsubr
          hintmask 00011000
          16 callgsubr
          hintmask 00000000
          -511 vmoveto
          -25 callsubr
          hintmask 01001000
          -47 callsubr
          hintmask 11001000
          16 callgsubr
          endchar
        </CharString>
        <CharString name="aring">
          -41 callsubr
          140 24 callgsubr
          -40 callgsubr
          -111 14 callsubr
          -121 216 134 105 -39 callsubr
          hintmask 1100100011000000
          -22 callsubr
          155 -88 148 181 107 73 87 79 vhcurveto
          -95 28 78 -65 103 hhcurveto
          169 57 129 152 -7 hvcurveto
          -105 hlineto
          -113 -35 -28 -46 -40 -13 40 79 vhcurveto
          449 vlineto
          226 -112 120 -279 vhcurveto
          hintmask 1100010011000000
          -213 -202 -101 -172 10 hvcurveto
          -67 4 50 -47 70 hhcurveto
          74 59 51 73 41 -20 35 -30 23 hvcurveto
          28 40 62 22 78 hhcurveto
          104 89 -64 -65 -112 -53 -17 -262 -83 hvcurveto
          hintmask 1100100011000000
          -166 -54 -162 -98 -176 vvcurveto
          242 3 rmoveto
          102 60 82 116 50 vhcurveto
          48 19 100 35 77 40 rrcurveto
          -154 vlineto
          -205 -126 -104 -136 -83 -56 52 83 vhcurveto
          hintmask 0011001100000000
          244 920 rmoveto
          -86 callsubr
        </CharString>
        <CharString name="asciicircum">
          251 542 1066 hstem
          242 1044 vstem
          242 605 rmoveto
          154 -63 368 816 368 -816 154 63 -462 1003 rlineto
          -120 hlineto
          endchar
        </CharString>
        <CharString name="asciitilde">
          255 534 25 callgsubr
          hintmask 01100000
          169 536 rmoveto
          -25 callsubr
          hintmask 11100000
          -47 callsubr
          hintmask 01100000
          16 callgsubr
          endchar
        </CharString>
        <CharString name="asterisk">
          -248 1040 68 hstemhm
          173 259 -12 189 -137 86 39 259 hintmask 00000000
          hintmask 11011000
          227 638 rmoveto
          62 -45 64 15 36 48 51 72 -16 106 54 76 26 37 24 -11 24 -27 55 -73 -17 -108 51 -71 36 -49 65 -15 61 45 62 45 6 65 -36 50 rrcurveto
          hintmask 10100000
          -52 71 -114 13 -48 78 -19 31 0 26 43 14 87 28 97 -48 84 26 58 19 33 58 -24 71 -23 73 -61 26 -58 -18 rrcurveto
          hintmask 11011000
          -84 -28 -48 -96 -88 -30 -43 -14 -13 22 -4 36 rrcurveto
          93 77 76 88 vvcurveto
          61 -43 49 -77 -77 -43 -49 -61 vhcurveto
          -88 77 -76 -93 vvcurveto
          -45 -24 -5 -36 7 vhcurveto
          -88 28 -48 97 -84 27 -58 19 -61 -26 -23 -73 -24 -72 33 -57 58 -19 rrcurveto
          hintmask 10100000
          84 -27 96 49 89 -28 43 -14 -3 -25 -18 -32 rrcurveto
          hintmask 11011000
          -54 -75 -107 -16 -51 -71 -37 -50 6 -66 62 -44 rrcurveto
          endchar
        </CharString>
        <CharString name="at">
          711 -280 126 359 110 -110 130 622 106 332 123 hstemhm
          158 226 257 213 326 149 383 137 -39 callsubr
          hintmask 1101111110000000
          158 567 rmoveto
          -505 374 -342 552 215 193 71 123 139 vhcurveto
          -45 97 rlineto
          -84 -82 -185 -81 -217 hhcurveto
          -451 -267 322 393 484 294 350 437 359 238 -181 -406 -256 -124 -237 -164 -88 -25 73 147 30 hvcurveto
          122 519 rlineto
          -192 hlineto
          -14 -60 rlineto
          36 -35 -60 33 -76 hhcurveto
          -240 -205 -265 -298 hvcurveto
          hintmask 1011111110000000
          -131 68 -164 183 113 105 65 103 70 vhcurveto
          hintmask 1101111110000000
          -108 11 91 -60 106 hhcurveto
          301 158 313 292 2 hvcurveto
          381 3 -237 327 -514 hhcurveto
          -527 -416 -365 -586 hvcurveto
          hintmask 1011111110000000
          696 -85 rmoveto
          215 115 260 158 37 44 -15 -32 28 vhcurveto
          -408 -74 -91 -167 -115 hhcurveto
          -70 -32 53 94 hvcurveto
          endchar
        </CharString>
        <CharString name="atilde">
          -41 callsubr
          198 180 -10 180 -40 callgsubr
          -239 810 -248 216 134 105 -39 callsubr
          hintmask 1100100110000000
          -22 callsubr
          155 -88 148 181 107 73 87 79 vhcurveto
          -95 28 78 -65 103 hhcurveto
          169 57 129 152 -7 hvcurveto
          -105 hlineto
          -113 -35 -28 -46 -40 -13 40 79 vhcurveto
          449 vlineto
          226 -112 120 -279 vhcurveto
          hintmask 1100010110000000
          -213 -202 -101 -172 10 hvcurveto
          -67 4 50 -47 70 hhcurveto
          74 59 51 73 41 -20 35 -30 23 hvcurveto
          28 40 62 22 78 hhcurveto
          104 89 -64 -65 -112 -53 -17 -262 -83 hvcurveto
          hintmask 1100100110000000
          -166 -54 -162 -98 -176 vvcurveto
          242 3 rmoveto
          102 60 82 116 50 vhcurveto
          48 19 100 35 77 40 rrcurveto
          -154 vlineto
          -205 -126 -104 -136 -83 -56 52 83 vhcurveto
          -39 callsubr
          375 978 -85 callgsubr
          -81 -65 170 -179 hhcurveto
          hintmask 0010001000000000
          -83 callgsubr
          hintmask 0001001000000000
          -54 callgsubr
        </CharString>
        <CharString name="b">
          -44 -20 120 -79 -21 913 121 373 110 hstemhm
          190 27 callsubr
          hintmask 01111100
          190 43 callgsubr
          hintmask 10111100
          -64 callsubr
          endchar
        </CharString>
        <CharString name="backslash">
          -257 -148 1756 hstem
          110 779 vstem
          264 1608 rmoveto
          -154 hlineto
          624 -1756 rlineto
          155 hlineto
          endchar
        </CharString>
        <CharString name="bar">
          20 callsubr
          -148 rmoveto
          163 1801 -163 hlineto
          endchar
        </CharString>
        <CharString name="braceleft">
          26 callsubr
          323 525 -506 199 hintmask 00000000
          hintmask 10110000
          323 -39 rmoveto
          -288 162 -103 267 vhcurveto
          96 102 -106 hlineto
          -168 -52 96 144 hvcurveto
          191 19 104 196 vvcurveto
          183 -101 64 -97 27 vhcurveto
          97 26 101 64 183 186 -19 149 161 vvcurveto
          144 52 97 169 vhcurveto
          105 101 -96 hlineto
          -272 -157 -115 -276 hvcurveto
          hintmask 11101000
          -169 19 -180 -98 vvcurveto
          -183 -66 -34 -117 vhcurveto
          -112 vlineto
          117 66 -34 -184 hvcurveto
          hintmask 10110000
          -127 -19 -138 -177 vvcurveto
          endchar
        </CharString>
        <CharString name="braceright">
          26 callsubr
          79 525 -218 199 hintmask 00000000
          hintmask 10110000
          604 -39 rmoveto
          177 -19 138 127 vvcurveto
          184 66 34 117 vhcurveto
          112 vlineto
          hintmask 11101000
          -117 -66 34 183 hvcurveto
          98 19 180 169 vvcurveto
          276 -157 115 -272 vhcurveto
          -96 -101 105 hlineto
          169 52 -97 -144 hvcurveto
          -161 -19 -149 -186 vvcurveto
          -183 101 -64 97 -26 vhcurveto
          -97 -27 -101 -64 -183 -196 19 -104 -191 vvcurveto
          -144 -52 -96 -168 vhcurveto
          -106 -102 96 hlineto
          hintmask 10110000
          267 162 103 288 hvcurveto
          endchar
        </CharString>
        <CharString name="bracketleft">
          31 callsubr
          240 197 vstem
          240 -400 rmoveto
          495 110 -298 1940 298 110 -495 hlineto
          endchar
        </CharString>
        <CharString name="bracketright">
          31 callsubr
          377 197 vstem
          574 1760 rmoveto
          -495 -110 298 -1940 -298 -110 495 hlineto
          endchar
        </CharString>
        <CharString name="breve">
          1182 189 hstem
          -336 672 vstem
          1182 vmoveto
          -88 callsubr
        </CharString>
        <CharString name="breve.cap">
          1652 189 hstem
          -336 672 vstem
          1652 vmoveto
          -88 callgsubr
        </CharString>
        <CharString name="brokenbar">
          20 callsubr
          852 rmoveto
          163 801 -163 hlineto
          -1801 vmoveto
          163 801 -163 hlineto
          endchar
        </CharString>
        <CharString name="bullet">
          -423 444 473 hstem
          187 477 vstem
          425 444 rmoveto
          130 109 104 132 128 -109 109 -130 -133 -105 -109 -128 -132 105 -104 133 hvcurveto
          endchar
        </CharString>
        <CharString name="c">
          -17 callgsubr
          hstem
          90 240 377 270 vstem
          -95 callsubr
          endchar
        </CharString>
        <CharString name="cacute">
          -17 callgsubr
          28 callsubr
          90 240 156 310 -89 270 hintmask 11010100
          -95 callsubr
          hintmask 00101000
          448 694 -101 callsubr
        </CharString>
        <CharString name="caron">
          1166 433 hstem
          -337 674 vstem
          56 1166 -81 callsubr
        </CharString>
        <CharString name="caron.cap">
          1645 -21 hstem
          -364 728 vstem
          56 1624 -90 callsubr
        </CharString>
        <CharString name="caronvertical">
          -766 1069 490 hstem
          249 163 vstem
          150 1069 rmoveto
          152 18 110 145 138 vvcurveto
          111 -59 78 -88 -76 -55 -58 -70 -73 47 -45 50 -32 vhcurveto
          45 -29 -39 -81 -128 -36 rrcurveto
          endchar
        </CharString>
        <CharString name="ccaron">
          -17 callgsubr
          132 433 hstemhm
          90 240 -100 674 -197 270 hintmask 11010100
          -95 callsubr
          hintmask 00101000
          533 666 -81 callsubr
        </CharString>
        <CharString name="ccedilla">
          -225 -419 131 269 120 -93 -21 932 115 hstemhm
          90 240 217 126 34 270 hintmask 00000000
          hintmask 11011100
          256 -3 callgsubr
          196 32 114 138 137 vvcurveto
          -137 hlineto
          hintmask 11011110
          -123 -31 -84 -70 -114 hhcurveto
          -145 -128 124 283 295 117 116 157 73 57 -32 -38 32 hvcurveto
          -36 -24 -23 -40 -44 vvcurveto
          -76 57 -58 73 82 58 63 81 169 -166 114 -215 -349 -157 -266 -268 -369 235 -142 222 -8 vhcurveto
          hintmask 11011100
          -6 -249 -134 -51 -151 46 rrcurveto
          endchar
        </CharString>
        <CharString name="ccircumflex">
          -17 callgsubr
          133 433 hstemhm
          90 240 -100 674 -197 270 hintmask 11010100
          -95 callsubr
          hintmask 00101000
          250 700 -99 callsubr
        </CharString>
        <CharString name="cdotaccent">
          -17 callgsubr
          180 311 hstemhm
          90 240 73 328 -24 270 hintmask 11010100
          -95 callsubr
          hintmask 00101000
          477 714 rmoveto
          -97 callgsubr
        </CharString>
        <CharString name="cedilla">
          -620 -419 131 hstem
          446 25 vstem
          54 -273 rmoveto
          -7 -106 rlineto
          -22 29 105 -18 31 hhcurveto
          275 14 202 262 -55 hvcurveto
          -100 -31 5 -278 -139 -57 -158 48 rlinecurve
          endchar
        </CharString>
        <CharString name="cent">
          -205 180 121 hstem
          96 240 377 270 vstem
          417 -56 rmoveto
          99 hlineto
          29 237 rlineto
          -1 10 10 0 10 hhcurveto
          251 149 158 156 hvcurveto
          -137 hlineto
          -123 -31 -84 -70 -114 hhcurveto
          -17 -16 2 3 -16 hvcurveto
          99 808 50 -11 38 -25 25 -29 rlinecurve
          -36 -24 -23 -40 -44 vvcurveto
          -76 57 -58 73 82 58 63 81 149 -131 107 -179 22 vhcurveto
          33 263 rlineto
          -99 hlineto
          -32 -259 rlineto
          -330 -13 -149 -259 -261 vvcurveto
          -311 167 -150 185 -44 vhcurveto
          19 154 rmoveto
          -77 59 -54 117 183 vvcurveto
          263 93 121 132 23 vhcurveto
          endchar
        </CharString>
        <CharString name="circumflex">
          1167 433 hstem
          -337 674 vstem
          -227 1200 -99 callsubr
        </CharString>
        <CharString name="circumflex.cap">
          1652 348 hstem
          -364 728 vstem
          -257 1670 -99 callgsubr
        </CharString>
        <CharString name="colon">
          -594 -20 303 376 303 hstemhm
          192 312 hintmask 10100000
          192 130 -61 callsubr
          hintmask 01100000
          679 vmoveto
          8 callsubr
        </CharString>
        <CharString name="comma">
          -595 -387 713 hstem
          322 204 vstem
          175 158 -33 callsubr
        </CharString>
        <CharString name="commaaccent">
          -595 -11 callgsubr
          hstem
          339 165 vstem
          244 -248 -100 callsubr
        </CharString>
        <CharString name="copyright">
          640 -114 106 252 117 754 115 239 106 hstem
          102 131 276 222 361 257 311 131 vstem
          102 730 rmoveto
          -485 379 -359 465 465 380 359 485 485 -380 360 -465 -465 -379 -360 -485 vhcurveto
          131 hmoveto
          424 320 315 393 393 321 -295 -444 -424 -321 -314 -393 -393 -320 304 434 vhcurveto
          276 1 rmoveto
          -357 238 -130 216 238 142 135 134 vhcurveto
          -125 hlineto
          -102 -30 -86 -50 -111 hhcurveto
          -139 -121 110 267 277 122 100 142 70 65 -32 -49 31 hvcurveto
          -41 -21 -28 -42 -46 vvcurveto
          -70 55 -53 74 74 54 61 81 149 -167 137 -215 -327 -131 -257 -242 vhcurveto
          endchar
        </CharString>
        <CharString name="currency">
          102 305 135 553 135 hstem
          277 155 514 154 vstem
          316 191 rmoveto
          163 170 rlineto
          -36 61 71 -20 77 hhcurveto
          83 76 23 41 64 hvcurveto
          161 -168 143 144 -171 163 rlineto
          36 61 20 71 77 vvcurveto
          76 -20 72 -36 61 vhcurveto
          171 164 -143 144 -162 -170 rlineto
          41 -64 -76 23 -82 hhcurveto
          -77 -71 -20 -36 -61 hvcurveto
          -163 172 -144 -143 169 -162 rlineto
          -41 -64 -23 -76 -82 vvcurveto
          -82 23 -76 40 -64 vhcurveto
          -168 -161 rlineto
          516 106 rmoveto
          -151 -105 122 155 153 105 123 151 152 106 -123 -153 -155 -106 -122 -152 hvcurveto
          endchar
        </CharString>
        <CharString name="d">
          -60 -53 callgsubr
          373 110 hstem
          87 233 508 216 vstem
          87 478 -89 callsubr
          endchar
        </CharString>
        <CharString name="dagger">
          -297 21 -21 1092 84 hstemhm
          422 150 -123 95 -81 68 hintmask 00000000
          hintmask 11010000
          449 hmoveto
          95 hlineto
          816 88 26 9 1 vhcurveto
          hintmask 11100000
          -8 -61 9 198 30 17 12 22 24 29 -14 -15 16 hvcurveto
          6 callgsubr
          hintmask 11001000
          -55 callgsubr
          hintmask 11100000
          44 callgsubr
          -200 -64 -7 -7 hvcurveto
          hintmask 11010000
          13 -3 85 -45 -795 vvcurveto
          endchar
        </CharString>
        <CharString name="daggerdbl">
          -297 0 -21 390 84 639 84 hstemhm
          422 150 -109 68 hintmask 00000000
          hintmask 11110000
          196 287 rmoveto
          47 31 24 31 33 hvcurveto
          hintmask 11101000
          17 20 29 10 27 hhcurveto
          42 38 -21 -49 -25 -12 -27 -19 -19 hvcurveto
          -34 -35 -31 -29 -54 vvcurveto
          -71 59 -60 71 71 59 60 71 54 -31 29 -34 35 vhcurveto
          -20 19 -11 27 25 vvcurveto
          49 38 21 41 28 29 -10 -17 19 vhcurveto
          -31 33 31 -24 47 hhcurveto
          72 58 58 73 70 -58 59 -72 -51 -31 -31 -34 -35 hvcurveto
          hintmask 11110000
          -15 -16 -29 -14 -24 hhcurveto
          -22 -17 12 30 hvcurveto
          555 vlineto
          30 17 12 22 24 29 -14 -15 16 vhcurveto
          6 callgsubr
          hintmask 11101000
          -55 callgsubr
          hintmask 11110000
          44 callgsubr
          hvcurveto
          -555 vlineto
          -30 -18 -12 -22 -23 -29 14 15 -17 vhcurveto
          34 -35 -31 31 -51 hhcurveto
          -71 -59 -59 -70 -73 59 -58 71 hvcurveto
          endchar
        </CharString>
        <CharString name="dcaron">
          209 -53 callgsubr
          -59 614 -182 110 hstemhm
          96 233 508 216 273 166 hintmask 00100010
          1242 977 -71 callgsubr
          hintmask 11011100
          -1146 -499 -89 callsubr
          endchar
        </CharString>
        <CharString name="dcroat">
          -51 -53 callgsubr
          109 120 144 110 hstem
          96 233 508 216 vstem
          96 478 rmoveto
          -308 178 -190 257 133 117 51 127 85 vhcurveto
          -142 33 88 -36 83 hhcurveto
          40 58 12 24 32 hvcurveto
          97 vlineto
          -7 -14 -25 -4 -18 hhcurveto
          -96 6 60 104 hvcurveto
          877 147 120 -147 168 -14 callsubr
          -49 45 callgsubr
          -110 71 vlineto
          80 5 -29 -87 hvcurveto
          -28 -283 -120 283 -221 vlineto
          71 -74 -100 41 -105 hhcurveto
          -273 -189 -167 -389 hvcurveto
          485 -378 rmoveto
          -187 -65 193 223 239 94 159 158 158 103 -139 -259 -253 -84 -163 -177 hvcurveto
          endchar
        </CharString>
        <CharString name="degree">
          -189 903 138 339 140 hstem
          236 148 320 149 vstem
          544 903 rmoveto
          171 138 137 171 171 -138 138 -171 -171 -137 -138 -171 -171 137 -137 171 hvcurveto
          138 vmoveto
          -89 -71 75 95 95 71 74 89 89 71 -74 -95 -95 -71 -75 -89 hvcurveto
          endchar
        </CharString>
        <CharString name="dieresis">
          1225 301 hstem
          -393 -40 callsubr
          vstem
          240 1225 -102 callsubr
        </CharString>
        <CharString name="dieresis.cap">
          1656 301 hstem
          -393 -40 callsubr
          vstem
          240 1656 -102 callsubr
        </CharString>
        <CharString name="divide">
          82 60 346 192 163 199 346 hstem
          505 346 vstem
          678 960 rmoveto
          32 callsubr
          -95 78 -78 95 hvcurveto
          -551 -362 rmoveto
          -11 callsubr
          378 -528 rmoveto
          -95 78 -78 95 32 callsubr
          vhcurveto
          endchar
        </CharString>
        <CharString name="dollar">
          -16 -20 120 -88 -21 1328 121 hstemhm
          129 296 -239 222 413 286 -202 223 hintmask 00000000
          hintmask 01110010
          129 282 rmoveto
          -129 135 -126 233 -36 vhcurveto
          -37 -347 rlineto
          99 hlineto
          hintmask 10101010
          36 337 rlineto
          13 14 -1 14 hhcurveto
          283 209 138 246 218 -236 138 -182 102 hvcurveto
          -24 12 rlineto
          hintmask 10101100
          51 480 66 -11 60 -27 26 -54 rlinecurve
          -41 -25 -27 -46 -52 vvcurveto
          -74 61 -62 82 84 59 69 86 152 -139 132 -218 31 vhcurveto
          36 339 rlineto
          -99 hlineto
          -35 -332 rlineto
          -3 hlineto
          -245 -218 -151 -233 -225 195 -120 182 -102 hvcurveto
          hintmask 10110010
          -53 -495 -60 14 -51 24 -33 35 rlinecurve
          36 27 23 41 46 vvcurveto
          81 -61 63 -82 vhcurveto
          hintmask 01110010
          -90 -63 -72 -91 hvcurveto
          464 606 rmoveto
          hintmask 10101010
          -104 67 -81 78 100 vvcurveto
          124 115 56 116 6 vhcurveto
          -31 -1218 rmoveto
          49 458 rlineto
          137 -74 111 -78 -112 vvcurveto
          -145 -131 -50 -128 -13 -13 0 1 -12 vhcurveto
          endchar
        </CharString>
        <CharString name="dotaccent">
          1214 311 hstem
          -164 328 vstem
          1214 vmoveto
          -97 callgsubr
        </CharString>
        <CharString name="dotaccent.cap">
          1674 311 hstem
          -164 328 vstem
          1674 vmoveto
          -97 callgsubr
        </CharString>
        <CharString name="dotlessi">
          -608 -55 callsubr
          hstem
          232 216 vstem
          82 -91 callgsubr
          endchar
        </CharString>
        <CharString name="dotlessj">
          -656 9 callsubr
          hstem
          -101 258 95 217 vstem
          33 -184 rmoveto
          -78 -56 -61 -77 -105 112 -83 138 -77 callsubr
          7 callgsubr
        </CharString>
        <CharString name="e">
          -162 -20 121 360 113 343 117 hstem
          90 239 462 234 vstem
          90 -105 callsubr
          endchar
        </CharString>
        <CharString name="eacute">
          -58 callgsubr
          28 callsubr
          106 239 177 310 -25 234 hintmask 11101010
          106 -105 callsubr
          hintmask 00010100
          -233 620 -101 callsubr
        </CharString>
        <CharString name="ebreve">
          -58 callgsubr
          148 189 hstemhm
          106 239 -78 672 -132 234 hintmask 11101010
          106 -105 callsubr
          hintmask 00010100
          -204 608 rmoveto
          -88 callsubr
        </CharString>
        <CharString name="ecaron">
          -58 callgsubr
          132 433 hstemhm
          106 239 -79 674 -133 234 hintmask 11101010
          106 -105 callsubr
          hintmask 00010100
          -148 592 -81 callsubr
        </CharString>
        <CharString name="ecircumflex">
          -58 callgsubr
          133 433 hstemhm
          106 239 -79 674 -133 234 hintmask 11101010
          106 -105 callsubr
          hintmask 00010100
          -431 626 -99 callsubr
        </CharString>
        <CharString name="edieresis">
          -58 callgsubr
          191 301 hstemhm
          106 239 -135 -40 callsubr
          -189 234 hintmask 11101001
          106 -105 callsubr
          hintmask 00010110
          36 651 -102 callsubr
        </CharString>
        <CharString name="edotaccent">
          -58 callgsubr
          180 311 hstemhm
          106 239 94 328 40 234 hintmask 11101010
          106 -105 callsubr
          hintmask 00010100
          -204 640 rmoveto
          -97 callgsubr
        </CharString>
        <CharString name="egrave">
          -58 callgsubr
          28 callsubr
          106 239 42 310 110 234 hintmask 11101010
          106 -105 callsubr
          hintmask 00010100
          -162 620 -92 callgsubr
        </CharString>
        <CharString name="eight">
          -28 -20 125 1300 115 hstemhm
          122 208 -134 227 454 186 -172 244 hintmask 00000000
          hintmask 11101000
          122 392 rmoveto
          -260 190 -152 320 vhcurveto
          hintmask 11100100
          316 187 198 214 202 -139 111 -154 91 hvcurveto
          hintmask 11011000
          136 67 85 149 136 vvcurveto
          240 -199 132 -222 -231 -215 -138 -244 -155 94 -103 119 -86 vhcurveto
          hintmask 11101000
          -155 -66 -132 -132 -204 vvcurveto
          611 465 rmoveto
          hintmask 11011000
          -161 89 -149 87 164 vvcurveto
          123 97 85 126 145 86 -105 -153 vhcurveto
          hintmask 11101000
          -129 -45 -108 -99 -53 vhcurveto
          -403 -474 rmoveto
          169 57 120 130 52 vhcurveto
          hintmask 11100100
          182 -112 192 -95 -174 vvcurveto
          -152 -119 -86 -158 vhcurveto
          hintmask 11101000
          -180 -104 138 140 hvcurveto
          endchar
        </CharString>
        <CharString name="ellipsis">
          774 -20 40 callgsubr
          372 312 372 312 cntrmask 01110000
          1560 130 -61 callsubr
          -684 hmoveto
          -85 71 -65 85 -77 callgsubr
          vhcurveto
          -684 hmoveto
          8 callsubr
        </CharString>
        <CharString name="emacron">
          -58 callgsubr
          199 170 hstemhm
          106 239 -82 680 -136 234 hintmask 11101010
          106 -105 callsubr
          hintmask 00010100
          136 659 -29 callgsubr
        </CharString>
        <CharString name="emdash">
          974 40 callsubr
          2012 vstem
          120 448 rmoveto
          2012 163 -2012 hlineto
          endchar
        </CharString>
        <CharString name="endash">
          234 40 callsubr
          1272 vstem
          120 448 rmoveto
          1272 163 -1272 hlineto
          endchar
        </CharString>
        <CharString name="eng">
          5 -510 120 390 37 callsubr
          24 callsubr
          94 269 85 217 hintmask 00000000
          hintmask 11010111
          80 hmoveto
          504 -70 callgsubr
          -135 -13 26 79 hvcurveto
          567 vlineto
          65 63 110 37 73 hhcurveto
          188 14 -144 -149 hvcurveto
          -247 vlineto
          -164 46 -243 -136 vvcurveto
          -116 -34 -68 -96 -7 vhcurveto
          -12 -1 -13 2 -13 3 rrcurveto
          23 23 14 30 34 vvcurveto
          70 -56 55 -73 -86 -54 -64 -80 -122 108 -70 138 211 114 159 361 vhcurveto
          -1 594 rlineto
          307 -1 -123 122 -198 hhcurveto
          -120 -142 -65 -68 -80 hvcurveto
          hintmask 11101111
          82 -11 46 -77 vhcurveto
          -65 -43 -76 callgsubr
          endchar
        </CharString>
        <CharString name="eogonek">
          -151 42 callsubr
          336 121 345 113 358 117 hstemhm
          100 239 74 180 209 90 -87 232 hintmask 00000000
          hintmask 11111110
          100 488 rmoveto
          -371 261 -137 238 vhcurveto
          8 hlineto
          -96 -64 -98 -95 -118 -68 callsubr
          134 126 85 108 67 vhcurveto
          98 61 60 72 18 81 -149 -1 rcurveline
          -84 -44 -70 -49 -117 hhcurveto
          -151 -133 104 241 hvcurveto
          hintmask 11111101
          696 hlineto
          1 26 1 42 26 vvcurveto
          230 -91 264 -352 vhcurveto
          hintmask 11111110
          -331 -163 -241 -305 hvcurveto
          243 71 rmoveto
          208 8 84 150 160 hhcurveto
          hintmask 11111101
          174 44 -181 -177 -8 hvcurveto
          endchar
        </CharString>
        <CharString name="equal">
          19 callgsubr
          127 821 rmoveto
          -11 callsubr
          -610 vmoveto
          -11 callsubr
          endchar
        </CharString>
        <CharString name="eth">
          -142 -20 123 816 115 392 -20 139 -21 hstem
          87 230 512 222 vstem
          87 489 rmoveto
          -306 183 -198 291 -5 vhcurveto
          377 113 308 340 409 -178 263 -194 155 hvcurveto
          118 127 -87 82 -132 -142 -99 58 -95 33 -70 12 rlinecurve
          -41 -101 53 -14 79 -33 83 -51 rlinecurve
          -138 -148 87 -82 150 161 119 -101 105 -140 17 -175 rlinecurve
          59 -70 -92 34 -88 hhcurveto
          -323 -168 -208 -337 hvcurveto
          486 -386 rmoveto
          -187 -69 190 223 239 88 164 168 158 98 -144 -259 -253 -69 -160 -187 hvcurveto
          endchar
        </CharString>
        <CharString name="exclam">
          -693 -20 308 hstemhm
          138 308 -293 287 hintmask 00000000
          hintmask 10100000
          249 448 rmoveto
          98 hlineto
          35 334 48 340 10 326 rrcurveto
          67 2 -77 5 -71 hhcurveto
          -67 -76 -15 -57 2 hvcurveto
          10 -326 51 -340 35 -334 rrcurveto
          hintmask 11000000
          -111 -314 -3 callsubr
          -85 -69 -69 -85 vhcurveto
          endchar
        </CharString>
        <CharString name="exclamdown">
          -693 1112 308 hstemhm
          153 287 hintmask 00000000
          249 952 rmoveto
          -35 -334 -51 -340 -10 -326 rrcurveto
          -57 -2 76 -15 67 hhcurveto
          71 77 5 67 -2 hvcurveto
          -10 326 -48 340 -35 334 rrcurveto
          -209 314 -3 callsubr
          vhcurveto
          hintmask 11000000
          -85 -69 -69 -85 hvcurveto
          endchar
        </CharString>
        <CharString name="f">
          -463 35 callsubr
          hstem
          -6 callgsubr
          vstem
          -79 callsubr
          endchar
        </CharString>
        <CharString name="ff">
          352 0 110 784 120 498 -25 callgsubr
          hintmask 11111000
          -79 callsubr
          hintmask 11100110
          815 -64 callgsubr
          endchar
        </CharString>
        <CharString name="ffi">
          1022 -45 callsubr
          772 110 -98 120 20 -20 205 303 -10 -25 callgsubr
          63 312 hintmask 1010011100000000
          -79 callsubr
          hintmask 1010010011000000
          815 -64 callgsubr
          -39 callsubr
          1046 1109 -62 callsubr
          hintmask 1101100000100000
          -59 callsubr
        </CharString>
        <CharString name="ffl">
          1012 10 callsubr
          402 110 -14 -25 callgsubr
          104 216 -39 callsubr
          hintmask 1101001110000000
          921 -37 callsubr
          hintmask 1110001110000000
          -48 callgsubr
          hintmask 1101001110000000
          -27 callsubr
          hintmask 1101110000000000
          -815 -64 callgsubr
          endchar
        </CharString>
        <CharString name="fi">
          207 -45 callsubr
          772 110 -98 120 20 -20 205 303 -10 -15 callsubr
          63 312 hintmask 1010011100000000
          -79 callsubr
          -39 callsubr
          1046 1109 -62 callsubr
          hintmask 1101100010000000
          -59 callsubr
        </CharString>
        <CharString name="five">
          -39 -20 116 734 160 310 200 hstem
          130 280 458 255 vstem
          130 294 rmoveto
          -144 178 -170 282 275 258 177 347 252 -143 234 -317 -137 -125 -66 -80 -70 vhcurveto
          54 456 rlineto
          477 hlineto
          292 -35 200 0 hvcurveto
          -867 hlineto
          -80 -813 166 -4 rlineto
          68 46 83 79 124 hhcurveto
          190 87 -161 -182 -271 -146 -120 -152 -91 -91 33 78 -38 hvcurveto
          36 24 24 42 48 16 callsubr
          endchar
        </CharString>
        <CharString name="fl">
          197 10 callsubr
          402 110 -14 -15 callsubr
          104 -16 callgsubr
          hintmask 11011110
          106 -37 callsubr
          hintmask 11101110
          -48 callgsubr
          hintmask 11011110
          -27 callsubr
          endchar
        </CharString>
        <CharString name="florin">
          -73 -510 114 1280 117 525 114 hstemhm
          -16 279 196 697 -62 269 hintmask 00000000
          hintmask 11110100
          134 -90 rmoveto
          -88 -62 -72 -92 -158 130 -98 158 250 169 253 374 45 hvcurveto
          94 767 rlineto
          hintmask 11111000
          326 117 -309 hlineto
          hintmask 11110100
          436 45 80 89 90 hhcurveto
          45 31 -27 -39 16 hvcurveto
          -36 -22 -24 -39 -44 vvcurveto
          -76 56 -59 73 82 58 64 80 150 -106 126 -172 -235 -167 -191 -376 -45 vhcurveto
          -53 -6 -28 -19 -37 hhcurveto
          hintmask 11111000
          -108 -117 93 hlineto
          41 9 -12 -52 hvcurveto
          -80 -665 rlineto
          -454 -77 -60 -97 -120 hhcurveto
          -34 -25 23 32 -14 hvcurveto
          42 23 29 44 49 vvcurveto
          hintmask 11110100
          76 -56 59 -73 vhcurveto
          endchar
        </CharString>
        <CharString name="four">
          -24 0 108 323 119 hstem
          738 220 vstem
          148 431 rmoveto
          590 -209 hlineto
          -102 -22 -12 -207 vhcurveto
          -108 639 108 vlineto
          -167 -23 26 79 hvcurveto
          154 vlineto
          52 9 12 41 vhcurveto
          163 119 -158 hlineto
          -37 -18 5 55 hvcurveto
          890 -180 vlineto
          -703 -948 rlineto
          184 -2 rmoveto
          479 657 rlineto
          -686 vlineto
          -1 29 rlineto
          endchar
        </CharString>
        <CharString name="fraction">
          -257 21 -21 hstem
          75 879 vstem
          75 hmoveto
          125 hlineto
          754 1520 rlineto
          -124 hlineto
          endchar
        </CharString>
        <CharString name="g">
          -52 callsubr
          -34 callgsubr
          373 217 -65 188 -117 215 -39 callsubr
          hintmask 1101100010000000
          67 -208 rmoveto
          -175 140 -127 332 289 252 133 218 238 -189 39 -260 22 vhcurveto
          hintmask 1101001100000000
          -190 16 -74 9 48 vvcurveto
          26 33 40 71 16 vhcurveto
          -2 28 35 -1 4 hhcurveto
          227 192 145 226 89 -24 80 -36 52 hvcurveto
          hintmask 1110010001000000
          17 16 22 15 27 11 4 -69 47 -35 60 2 53 2 54 40 -3 72 -2 71 -52 55 -86 -3 -84 -2 -82 -50 -46 -53 rrcurveto
          hintmask 1101010010000000
          57 -77 -105 21 -100 hhcurveto
          -213 -219 -127 -254 -122 72 -145 130 -50 hvcurveto
          hintmask 1101001010000000
          -85 -38 -26 -55 -49 vvcurveto
          -61 29 -40 42 -25 vhcurveto
          hintmask 1101100010000000
          -108 -55 -99 -85 -136 vvcurveto
          hintmask 1101010100000000
          472 615 rmoveto
          -99 -110 72 180 196 110 69 99 99 102 -65 -196 -180 -102 -76 -99 hvcurveto
          hintmask 1101100010000000
          -257 -582 rmoveto
          72 24 68 75 40 vhcurveto
          65 -19 95 -5 103 -10 rrcurveto
          159 -15 89 -52 -101 vvcurveto
          -117 -118 -76 -187 -177 -128 71 144 vhcurveto
          endchar
        </CharString>
        <CharString name="gbreve">
          -52 callsubr
          148 189 -34 callgsubr
          -142 672 -157 -105 callgsubr
          279 1357 rmoveto
          -88 callsubr
        </CharString>
        <CharString name="gcircumflex">
          -52 callsubr
          133 433 -34 callgsubr
          -143 674 -158 -105 callgsubr
          52 1375 -99 callsubr
        </CharString>
        <CharString name="gcommaaccent">
          -52 callsubr
          182 490 -34 callgsubr
          60 163 150 -105 callgsubr
          407 1881 rmoveto
          -152 -18 -110 -145 -138 vvcurveto
          -111 59 -78 88 76 55 58 70 73 -47 45 -50 32 vhcurveto
          -45 29 39 81 128 36 rrcurveto
          endchar
        </CharString>
        <CharString name="gdotaccent">
          -52 callsubr
          180 311 -34 callgsubr
          30 328 15 -105 callgsubr
          279 1389 rmoveto
          -97 callgsubr
        </CharString>
        <CharString name="germandbls">
          27 -20 144 -124 110 664 114 6 120 516 110 hstemhm
          208 216 438 219 -90 230 hintmask 00000000
          hintmask 01011101
          71 hmoveto
          353 1015 hlineto
          444 107 71 139 vhcurveto
          hintmask 01101110
          135 57 -131 -124 -159 -20 -228 -284 hvcurveto
          -114 vlineto
          hintmask 10101101
          252 181 -69 -286 -143 -44 -152 -131 -136 -21 81 99 -16 hvcurveto
          -86 hlineto
          -172 -18 58 -152 236 hhcurveto
          228 160 152 279 239 -164 163 -209 43 hvcurveto
          hintmask 01011110
          147 60 86 151 165 vvcurveto
          295 -168 113 -213 -264 -232 -165 -400 -56 -14 -5 -36 vhcurveto
          -106 -120 111 hlineto
          40 9 -12 -53 hvcurveto
          -612 vlineto
          -80 -18 -27 -119 vhcurveto
          endchar
        </CharString>
        <CharString name="grave">
          1194 496 hstem
          -216 310 vstem
          42 1194 -92 callgsubr
        </CharString>
        <CharString name="grave.cap">
          1614 396 hstem
          -253 406 vstem
          102 1614 -93 callgsubr
        </CharString>
        <CharString name="greater">
          258 81 1207 hstem
          274 1111 vstem
          1385 707 1 callsubr
          1111 581 rlineto
          endchar
        </CharString>
        <CharString name="greaterequal">
          82 -15 callgsubr
          1103 819 1 callsubr
          hintmask 01100000
          1111 581 rlineto
          endchar
        </CharString>
        <CharString name="guillemotleft">
          101 22 -21 1027 -20 hstemhm
          139 561 -8 561 hintmask 11100000
          139 482 -43 callgsubr
          hintmask 11010000
          553 -65 -43 callgsubr
          endchar
        </CharString>
        <CharString name="guillemotright">
          101 22 -21 1027 -20 hstemhm
          126 561 -8 561 hintmask 11100000
          687 547 -32 callsubr
          561 481 rlineto
          553 65 -32 callsubr
          hintmask 11010000
          561 481 rlineto
          endchar
        </CharString>
        <CharString name="guilsinglleft">
          -452 22 -21 1027 -20 hstem
          139 561 vstem
          139 482 -43 callgsubr
          endchar
        </CharString>
        <CharString name="guilsinglright">
          -452 22 -21 1027 -20 hstem
          126 561 vstem
          687 547 -32 callsubr
          561 481 rlineto
          endchar
        </CharString>
        <CharString name="h">
          3 -45 callsubr
          774 150 382 110 hstem
          220 216 448 216 vstem
          80 -96 callsubr
          123 -19 callgsubr
          -69 -80 vhcurveto
          540 0 callsubr
          -1085 vlineto
          -79 -19 -26 -121 vhcurveto
          endchar
        </CharString>
        <CharString name="hbar">
          13 -45 callsubr
          774 150 109 120 153 110 hstem
          232 216 448 216 vstem
          92 -96 callsubr
          123 -19 callgsubr
          -69 -80 vhcurveto
          243 287 120 -287 177 0 callsubr
          -37 -143 -120 143 -928 vlineto
          -79 -19 -26 -121 vhcurveto
          endchar
        </CharString>
        <CharString name="hcircumflex">
          13 -45 callsubr
          774 150 312 110 107 433 hstemhm
          -13 674 -430 220 442 220 hintmask 11100110
          91 hmoveto
          508 -70 callgsubr
          -135 -13 26 79 hvcurveto
          567 vlineto
          65 63 106 37 73 hhcurveto
          188 12 -144 -149 hvcurveto
          -374 vlineto
          -79 -2 -28 -128 vhcurveto
          -110 473 -26 callsubr
          -121 -2 28 79 hvcurveto
          387 vlineto
          307 -126 123 -198 -120 -138 -65 -69 -80 vhcurveto
          470 vlineto
          14 callgsubr
          -47 -51 callgsubr
          80 0 -29 -87 1 hvcurveto
          -1015 vlineto
          -79 -19 -26 -121 vhcurveto
          hintmask 00011000
          6 1486 -99 callsubr
        </CharString>
        <CharString name="hungarumlaut">
          1189 431 hstem
          -255 844 vstem
          200 1189 -79 callgsubr
        </CharString>
        <CharString name="hungarumlaut.cap">
          1614 396 hstem
          -255 810 vstem
          200 1614 -80 callsubr
        </CharString>
        <CharString name="hyphen">
          -283 40 callsubr
          755 vstem
          120 448 rmoveto
          755 163 -755 hlineto
          endchar
        </CharString>
        <CharString name="i">
          -608 -55 callsubr
          205 303 hstemhm
          181 312 -261 -16 callgsubr
          hintmask 11111000
          337 1219 -62 callsubr
          hintmask 11110100
          -59 callsubr
        </CharString>
        <CharString name="iacute">
          -551 -55 callsubr
          -13 callsubr
          287 216 -201 310 hintmask 11101000
          137 -91 callgsubr
          hintmask 00010100
          217 1084 -101 callsubr
        </CharString>
        <CharString name="ibreve">
          -531 -55 callsubr
          168 189 hstemhm
          57 672 -432 216 hintmask 11100100
          -38 callgsubr
          hintmask 00011000
          246 1072 rmoveto
          -88 callsubr
        </CharString>
        <CharString name="icircumflex">
          -551 -55 callsubr
          153 433 hstemhm
          46 674 -433 216 hintmask 11100100
          137 -91 callgsubr
          hintmask 00011000
          19 1090 -99 callsubr
        </CharString>
        <CharString name="idieresis">
          -531 -55 callsubr
          211 301 hstemhm
          0 306 -9 216 -33 306 hintmask 11100100
          -38 callgsubr
          hintmask 00011010
          486 1115 -102 callsubr
        </CharString>
        <CharString name="igrave">
          -551 -55 callsubr
          -13 callsubr
          167 310 -190 216 hintmask 11100100
          137 -91 callgsubr
          hintmask 00011000
          288 1084 -92 callgsubr
        </CharString>
        <CharString name="ij">
          79 -510 115 395 110 771 110 -109 110 41 -20 21 -20 205 303 -300 303 hstemhm
          251 312 -261 216 116 610 -257 217 -39 callsubr
          hintmask 0101011010000000
          407 1219 -62 callsubr
          hintmask 0101011001000000
          -97 callsubr
          -39 callsubr
          936 1112 -24 callgsubr
          hintmask 1010100100100000
          -77 callsubr
          hintmask 1010100100010000
          7 callgsubr
        </CharString>
        <CharString name="imacron">
          -531 -55 callsubr
          219 170 hstemhm
          53 680 -436 216 hintmask 11100100
          -38 callgsubr
          hintmask 00011000
          586 1123 -29 callgsubr
        </CharString>
        <CharString name="infinity">
          508 251 130 -130 187 332 187 -131 131 hstemhm
          164 192 1078 190 hintmask 00000000
          hintmask 10011100
          519 251 rmoveto
          165 121 83 122 81 hvcurveto
          hintmask 01011100
          -110 93 108 -95 150 hhcurveto
          237 150 162 207 218 -209 119 -146 -148 -131 -85 -121 -86 hvcurveto
          hintmask 10101100
          109 -93 -109 97 -150 hhcurveto
          -238 -150 -162 -207 hvcurveto
          hintmask 10011100
          -220 210 -117 145 vhcurveto
          hintmask 01011100
          465 399 rmoveto
          91 65 71 85 129 hhcurveto
          100 85 -76 -103 -142 -91 -67 -96 -97 -78 100 112 -88 hvcurveto
          hintmask 10101100
          -445 -269 rmoveto
          -100 -83 77 102 142 90 68 95 97 79 -100 -112 87 hvcurveto
          -91 -64 -72 -86 -129 hhcurveto
          endchar
        </CharString>
        <CharString name="integral">
          -314 -550 119 2152 119 hstem
          -215 269 856 269 vstem
          -75 -140 rmoveto
          -82 -58 -68 -86 -129 114 -127 184 278 172 211 555 29 hvcurveto
          39 820 rlineto
          609 31 131 76 115 hhcurveto
          48 47 -17 -33 23 hvcurveto
          -50 -17 -36 -46 -53 vvcurveto
          -70 56 -55 73 82 58 68 86 129 -114 127 -184 -278 -172 -211 -555 -29 vhcurveto
          -39 -820 rlineto
          -609 -31 -131 -76 -115 hhcurveto
          -49 -46 17 33 -23 hvcurveto
          50 17 36 46 53 vvcurveto
          70 -56 55 -73 vhcurveto
          endchar
        </CharString>
        <CharString name="iogonek">
          -551 42 callsubr
          356 -56 callgsubr
          200 311 hstemhm
          142 180 -112 328 -253 220 26 90 -39 callsubr
          hintmask 1111101000000000
          374 1214 rmoveto
          90 74 65 93 101 -79 52 -85 -85 -79 -52 -101 -93 73 -65 91 hvcurveto
          -239 -1214 rmoveto
          220 hlineto
          hintmask 1111110010000000
          -102 -67 -111 -104 -126 -68 callsubr
          134 156 131 115 vhcurveto
          60 -70 callgsubr
          hintmask 1111100100000000
          -134 -14 26 79 hvcurveto
          691 vlineto
          82 -11 -21 callgsubr
          -48 -87 callgsubr
          endchar
        </CharString>
        <CharString name="itilde">
          -531 -55 callsubr
          218 33 callsubr
          -12 810 -501 216 hintmask 11100010
          -38 callgsubr
          hintmask 00000000
          377 1122 -85 callgsubr
          -81 -65 170 -179 hhcurveto
          hintmask 00010100
          -83 callgsubr
          hintmask 00001100
          -54 callgsubr
        </CharString>
        <CharString name="j">
          -656 9 callsubr
          209 303 hstemhm
          -101 610 -257 217 hintmask 00000000
          hintmask 11111000
          353 1222 -24 callgsubr
          hintmask 11110100
          -77 callsubr
          hintmask 11111000
          7 callgsubr
        </CharString>
        <CharString name="jcircumflex">
          -650 9 callsubr
          154 433 hstemhm
          -95 258 -178 674 -401 217 hintmask 11101010
          39 -184 rmoveto
          -78 -56 -61 -77 -105 112 -83 138 -77 callsubr
          -43 callsubr
          hintmask 00010100
          56 1384 -99 callsubr
        </CharString>
        <CharString name="k">
          -11 -20 8 callgsubr
          219 216 196 552 -32 104 hintmask 00000000
          hintmask 01111101
          67 3 callgsubr
          hintmask 10111101
          -20 callgsubr
          hintmask 01111110
          -52 callgsubr
          endchar
        </CharString>
        <CharString name="kcommaaccent">
          -29 23 callgsubr
          8 callgsubr
          201 216 196 552 -519 165 322 104 -39 callsubr
          hintmask 0011111001000000
          49 3 callgsubr
          hintmask 0101111001000000
          -20 callgsubr
          hintmask 0011111100000000
          -52 callgsubr
          hintmask 1000000010000000
          502 -358 -100 callsubr
        </CharString>
        <CharString name="kgreenlandic">
          -29 -20 151 -131 110 351 108 325 120 -110 110 hstemhm
          201 214 288 465 -34 105 hintmask 00000000
          hintmask 01110101
          49 hmoveto
          517 -70 callgsubr
          -134 -17 28 79 hvcurveto
          243 vlineto
          1 12 12 0 11 hhcurveto
          hintmask 10110101
          312 -60 -481 310 hhcurveto
          221 22 195 103 -24 hvcurveto
          -97 hlineto
          -62 -1 -9 -85 -59 hhcurveto
          -97 -22 317 111 -259 hvcurveto
          hintmask 01110110
          157 163 132 168 192 4 rrcurveto
          120 -465 -120 106 vlineto
          -39 -59 -152 -185 -102 -81 rrcurveto
          -101 228 hlineto
          hintmask 01101101
          79 29 28 92 vhcurveto
          hintmask 01110101
          110 -487 vlineto
          hintmask 01101101
          -72 callsubr
          134 17 -28 -79 hvcurveto
          1 -580 rlineto
          -79 -36 -28 -116 vhcurveto
          endchar
        </CharString>
        <CharString name="l">
          -618 -45 callsubr
          1306 110 hstem
          222 216 vstem
          70 hmoveto
          -73 callsubr
          endchar
        </CharString>
        <CharString name="lacute">
          -592 -45 callsubr
          1216 110 164 396 hstemhm
          269 220 -186 406 hintmask 11010000
          117 hmoveto
          522 -70 callgsubr
          -134 -16 28 79 hvcurveto
          1133 -33 callgsubr
          -70 -50 -42 -174 -51 callsubr
          81 vlineto
          80 1 -29 -87 hvcurveto
          -993 vlineto
          -79 -36 -28 -116 vhcurveto
          hintmask 00101000
          237 1490 rmoveto
          -107 callgsubr
        </CharString>
        <CharString name="lcaron">
          -346 -45 callsubr
          865 614 -173 39 callsubr
          279 166 hintmask 01001000
          682 977 -71 callgsubr
          hintmask 10110000
          -563 -977 rmoveto
          -73 callsubr
          endchar
        </CharString>
        <CharString name="lcommaaccent">
          -592 -1 callsubr
          1306 39 callsubr
          -135 165 hintmask 01110000
          119 hmoveto
          -73 callsubr
          hintmask 10001000
          138 -358 -100 callsubr
        </CharString>
        <CharString name="ldot">
          -269 -45 callsubr
          454 303 549 39 callsubr
          239 312 hintmask 10110000
          119 hmoveto
          -73 callsubr
          hintmask 01001000
          607 604 rmoveto
          8 callsubr
        </CharString>
        <CharString name="less">
          258 56 1207 hstem
          119 1111 vstem
          119 637 -12 callsubr
        </CharString>
        <CharString name="lessequal">
          258 -15 callgsubr
          hintmask 01100000
          -8 774 -12 callsubr
        </CharString>
        <CharString name="logicalnot">
          82 601 163 hstem
          1033 163 vstem
          125 601 rmoveto
          908 -354 163 517 -1071 hlineto
          endchar
        </CharString>
        <CharString name="lozenge">
          254 10 -21 hstem
          202 1128 vstem
          741 -11 rmoveto
          52 hlineto
          537 803 -539 804 rlineto
          -52 hlineto
          -537 -804 rlineto
          567 -557 rmoveto
          -361 557 354 556 362 -556 rlineto
          endchar
        </CharString>
        <CharString name="lslash">
          -592 -45 callsubr
          1306 110 hstem
          271 216 vstem
          119 hmoveto
          518 -70 callgsubr
          -134 -16 28 79 hvcurveto
          533 vlineto
          262 319 -87 66 -175 -213 rlineto
          518 vlineto
          -18 callsubr
          1 -29 -87 hvcurveto
          -641 vlineto
          -261 -317 87 -66 174 211 rlineto
          -270 vlineto
          -79 -36 -28 -116 vhcurveto
          endchar
        </CharString>
        <CharString name="m">
          603 -44 callsubr
          24 callsubr
          419 216 413 -16 callgsubr
          hintmask 10101110
          80 -74 callsubr
          hintmask 11011110
          82 -8 46 -77 vhcurveto
          -65 -46 -76 callgsubr
          endchar
        </CharString>
        <CharString name="macron">
          1233 170 hstem
          -340 680 vstem
          340 1233 -29 callgsubr
        </CharString>
        <CharString name="macron.cap">
          1694 170 hstem
          -360 720 vstem
          360 1694 -29 callsubr
        </CharString>
        <CharString name="minus">
          63 598 163 hstem
          120 1101 vstem
          120 598 rmoveto
          -11 callsubr
          endchar
        </CharString>
        <CharString name="mu">
          -84 callgsubr
        </CharString>
        <CharString name="multiply">
          82 211 893 hstem
          221 893 vstem
          221 326 rmoveto
          115 -115 331 331 332 -331 115 115 -332 331 332 332 -115 115 -332 -332 -331 332 -115 -115 331 -332 rlineto
          endchar
        </CharString>
        <CharString name="n">
          3 -44 callsubr
          24 callsubr
          448 -16 callgsubr
          hintmask 10101100
          80 -96 callsubr
          122 -19 callgsubr
          -68 -80 vhcurveto
          hintmask 11011100
          82 -11 46 -77 vhcurveto
          -65 -43 -76 callgsubr
          endchar
        </CharString>
        <CharString name="nacute">
          3 -44 callsubr
          186 496 24 callsubr
          168 310 -30 -16 callgsubr
          hintmask 10100101
          80 -96 callsubr
          122 -19 callgsubr
          -68 -80 vhcurveto
          hintmask 11010101
          82 -11 46 -77 vhcurveto
          -65 -43 -76 callgsubr
          hintmask 00001010
          576 1084 -101 callsubr
        </CharString>
        <CharString name="nbspace">
          -440 endchar
        </CharString>
        <CharString name="ncaron">
          3 -44 callsubr
          158 433 24 callsubr
          -88 674 -138 -16 callgsubr
          hintmask 10100101
          80 -96 callsubr
          122 -19 callgsubr
          -68 -80 vhcurveto
          hintmask 11010101
          82 -11 46 -77 vhcurveto
          -65 -43 -76 callgsubr
          hintmask 00001010
          661 1056 -81 callsubr
        </CharString>
        <CharString name="ncommaaccent">
          3 -547 417 130 37 callsubr
          24 callsubr
          228 165 55 -16 callgsubr
          hintmask 01010101
          80 -96 callsubr
          122 -19 callgsubr
          -68 -80 vhcurveto
          hintmask 01101101
          82 -11 46 -77 vhcurveto
          -65 -43 -76 callgsubr
          hintmask 10000010
          489 -358 -100 callsubr
        </CharString>
        <CharString name="nine">
          -5 -20 126 462 129 698 125 hstemhm
          115 244 -193 280 465 238 hintmask 00000000
          hintmask 11101100
          166 254 rmoveto
          -136 154 -138 246 320 263 291 543 340 -142 366 -409 vhcurveto
          hintmask 11110100
          -298 -185 -243 -259 -267 207 -183 241 161 114 81 92 68 hvcurveto
          3 -44 2 -44 -42 vvcurveto
          -313 -150 -192 -225 vhcurveto
          hintmask 11101100
          -68 -59 17 38 -33 hvcurveto
          42 23 28 45 52 16 callsubr
          hintmask 11110100
          440 443 rmoveto
          -139 -108 123 217 224 123 134 134 132 122 -126 -212 -230 -114 -130 -150 hvcurveto
          endchar
        </CharString>
        <CharString name="notequal">
          19 callgsubr
          310 44 rmoveto
          125 hlineto
          159 330 rlineto
          634 163 -555 hlineto
          138 284 rlineto
          417 163 -338 hlineto
          159 328 rlineto
          -124 hlineto
          -159 -328 rlineto
          -639 -163 560 hlineto
          -138 -284 rlineto
          -422 -163 343 hlineto
          endchar
        </CharString>
        <CharString name="ntilde">
          3 -44 callsubr
          224 33 callsubr
          220 216 -156 810 -206 216 -39 callsubr
          hintmask 1010001010000000
          80 -96 callsubr
          122 -19 callgsubr
          -68 -80 vhcurveto
          hintmask 1101001010000000
          82 -11 46 -77 vhcurveto
          -65 -43 -76 callgsubr
          -39 callsubr
          736 1122 -85 callgsubr
          -81 -65 170 -179 hhcurveto
          hintmask 0000100100000000
          -83 callgsubr
          hintmask 0000010100000000
          -54 callgsubr
        </CharString>
        <CharString name="numbersign">
          425 21 -21 370 190 360 190 hstem
          212 1299 vstem
          212 370 rmoveto
          283 29 callsubr
          355 29 callsubr
          307 hlineto
          24 190 rlineto
          -309 hlineto
          41 360 rlineto
          284 hlineto
          24 190 rlineto
          -286 33 callgsubr
          -356 33 callgsubr
          -304 hlineto
          -25 -190 rlineto
          307 hlineto
          -42 -360 rlineto
          -280 hlineto
          425 hmoveto
          41 360 rlineto
          356 hlineto
          -42 -360 rlineto
          endchar
        </CharString>
        <CharString name="o">
          -113 -53 callgsubr
          hstem
          90 232 522 231 vstem
          90 -102 callgsubr
          endchar
        </CharString>
        <CharString name="oacute">
          -103 -53 callgsubr
          28 callsubr
          100 232 174 310 38 231 hintmask 11010100
          100 -102 callgsubr
          hintmask 00101000
          -35 1094 -101 callsubr
        </CharString>
        <CharString name="obreve">
          -103 -53 callgsubr
          148 189 hstemhm
          100 232 -81 672 -69 231 hintmask 11010100
          100 -102 callgsubr
          hintmask 00101000
          -6 1082 rmoveto
          -88 callsubr
        </CharString>
        <CharString name="ocircumflex">
          -103 -53 callgsubr
          133 433 hstemhm
          100 232 -82 674 -70 231 hintmask 11010100
          100 -102 callgsubr
          hintmask 00101000
          -233 1100 -99 callsubr
        </CharString>
        <CharString name="odieresis">
          -103 -53 callgsubr
          191 301 hstemhm
          100 232 -138 -40 callsubr
          -126 231 hintmask 11010010
          100 -102 callgsubr
          hintmask 00101100
          234 1125 -102 callsubr
        </CharString>
        <CharString name="oe">
          590 -20 120 360 113 341 120 -117 117 hstemhm
          90 232 522 237 462 234 hintmask 00000000
          hintmask 11011110
          90 496 rmoveto
          -276 151 -240 342 170 123 62 97 80 vhcurveto
          -112 98 144 -47 139 hhcurveto
          233 143 122 132 31 hvcurveto
          -150 -1 rlineto
          -83 -44 -73 -49 -116 hhcurveto
          -145 -135 118 241 hvcurveto
          694 hlineto
          1 26 1 32 26 vvcurveto
          250 -93 240 -352 -163 -124 -61 -99 -82 vhcurveto
          109 -89 -136 51 -155 hhcurveto
          -280 -213 -174 -364 hvcurveto
          991 77 rmoveto
          208 8 87 136 160 hhcurveto
          174 41 -167 -177 -8 hvcurveto
          -960 -473 rmoveto
          -151 -110 142 262 hvcurveto
          hintmask 11101110
          290 110 120 151 151 110 -120 -290 vhcurveto
          hintmask 11011110
          -262 -110 -142 -151 vhcurveto
          endchar
        </CharString>
        <CharString name="ogonek">
          429 42 callsubr
          hstem
          800 180 189 90 vstem
          800 -297 rmoveto
          -135 93 -78 126 137 108 92 199 -5 vhcurveto
          -90 hlineto
          -86 -41 -51 -64 -58 -26 45 46 134 130 81 94 74 vhcurveto
          -10 41 -22 11 -17 22 rrcurveto
          -81 -36 -274 -162 -197 vvcurveto
          endchar
        </CharString>
        <CharString name="ograve">
          -103 -53 callgsubr
          28 callsubr
          100 232 39 310 173 231 hintmask 11010100
          100 -102 callgsubr
          hintmask 00101000
          36 1094 -92 callgsubr
        </CharString>
        <CharString name="ohungarumlaut">
          -103 -53 callgsubr
          155 431 hstemhm
          100 232 21 844 -343 231 hintmask 11010100
          100 -102 callgsubr
          hintmask 00101000
          215 1089 -79 callgsubr
        </CharString>
        <CharString name="omacron">
          -103 -53 callgsubr
          199 170 hstemhm
          100 232 -85 680 -73 231 hintmask 11010100
          100 -102 callgsubr
          hintmask 00101000
          334 1133 -29 callgsubr
        </CharString>
        <CharString name="one">
          -462 -45 callsubr
          1086 110 hstem
          312 220 vstem
          110 hmoveto
          623 -70 callgsubr
          -179 -22 28 79 hvcurveto
          1 1283 -144 -2 rlineto
          -78 -115 -114 -174 vhcurveto
          -110 131 vlineto
          80 1 -29 -87 hvcurveto
          -863 vlineto
          -79 -46 -28 -156 vhcurveto
          endchar
        </CharString>
        <CharString name="onehalf">
          -189 -380 156 739 128 107 93 146 97 607 106 hstemhm
          208 269 -244 440 -415 171 50 193 48 215 -39 callsubr
          hintmask 1111100111000000
          269 989 -36 callgsubr
          -123 -336 rmoveto
          797 93 -797 hlineto
          hintmask 1111101001000000
          87 -1135 rmoveto
          -88 676 vlineto
          30 callgsubr
          hintmask 1111100111000000
          -194 hlineto
          139 177 367 138 38 callgsubr
          vhcurveto
          hintmask 1111110001000000
          2 callsubr
          hvcurveto
          32 callgsubr
          hintmask 1111101001000000
          38 callsubr
        </CharString>
        <CharString name="onequarter">
          36 callsubr
          146 97 607 106 hstemhm
          258 486 -377 306 -194 193 -108 334 -39 callsubr
          hintmask 1111100010000000
          269 989 rmoveto
          602 97 hlineto
          hintmask 1111100100000000
          -177 -22 31 87 hvcurveto
          1 786 rlineto
          hintmask 1111100010000000
          -109 hlineto
          hintmask 1111110000000000
          -77 -128 -114 -178 vhcurveto
          -106 vlineto
          hintmask 1111100100000000
          132 hlineto
          88 1 -32 -96 hvcurveto
          -361 vlineto
          -87 -56 -31 -154 vhcurveto
          -123 -336 20 callgsubr
          hintmask 1111110000000000
          424 -103 hlineto
          hintmask 1111101000000000
          -93 -17 -11 -158 vhcurveto
          -97 vlineto
          hintmask 1111100010000000
          531 97 hlineto
          hintmask 1111110000000000
          25 callsubr
          hintmask 1111100010000000
          165 109 hlineto
          hintmask 1111110000000000
          -9 callsubr
          -1 21 rlineto
          endchar
        </CharString>
        <CharString name="onesuperior">
          -452 815 97 607 106 hstem
          349 193 vstem
          139 815 -36 callgsubr
          endchar
        </CharString>
        <CharString name="ordfeminine">
          -170 697 125 597 -20 59 108 hstemhm
          167 198 -138 219 248 178 111 86 hintmask 00000000
          hintmask 11110110
          425 697 rmoveto
          141 84 60 72 62 hvcurveto
          -86 23 57 -46 91 hhcurveto
          138 54 106 126 -6 hvcurveto
          -86 hlineto
          -85 -25 -21 -33 -40 -13 33 65 vhcurveto
          359 vlineto
          187 -85 99 -219 vhcurveto
          hintmask 11101110
          -190 -160 -90 -137 9 hvcurveto
          -60 3 44 -46 63 hhcurveto
          61 48 46 60 32 -14 29 -23 19 hvcurveto
          19 32 51 20 68 hhcurveto
          84 50 -44 -65 -80 -17 -15 -231 -63 hvcurveto
          hintmask 11110110
          -144 -36 -135 -89 -145 vvcurveto
          -152 128 -72 130 vhcurveto
          57 125 rmoveto
          -69 -48 35 66 77 52 60 95 40 hvcurveto
          40 13 78 24 64 29 rrcurveto
          -100 vlineto
          -162 -101 -82 -111 vhcurveto
          endchar
        </CharString>
        <CharString name="ordmasculine">
          -171 698 104 660 104 hstem
          138 204 425 203 vstem
          554 698 rmoveto
          289 127 202 228 300 -179 138 -237 -237 -179 -138 -300 -228 128 -202 288 hvcurveto
          104 vmoveto
          -123 -89 119 209 232 89 100 123 125 88 -100 -232 -209 -88 -119 -125 hvcurveto
          endchar
        </CharString>
        <CharString name="oslash">
          -103 -53 callgsubr
          hstem
          100 232 522 231 vstem
          169 -46 rmoveto
          82 -57 90 139 rlineto
          -36 69 83 -20 100 hhcurveto
          341 151 250 276 198 -64 139 -102 85 hvcurveto
          82 127 -82 57 -84 -130 rlineto
          35 -71 -82 17 -89 hhcurveto
          -280 -213 -174 -364 -160 50 -147 109 -96 hvcurveto
          113 174 rmoveto
          -26 63 -14 79 95 vvcurveto
          290 110 120 151 61 54 -20 -42 43 vhcurveto
          -321 -679 rmoveto
          381 588 rlineto
          27 -63 16 -85 -109 vvcurveto
          -262 -110 -142 -151 -64 -55 25 48 -44 vhcurveto
          endchar
        </CharString>
        <CharString name="otilde">
          -103 -53 callgsubr
          198 33 callsubr
          100 232 -150 810 -138 231 hintmask 11001010
          100 -102 callgsubr
          hintmask 00000000
          125 1132 -85 callgsubr
          -81 -65 170 -179 hhcurveto
          hintmask 00100100
          -83 callgsubr
          hintmask 00010100
          -54 callgsubr
        </CharString>
        <CharString name="p">
          -27 19 callsubr
          hstemhm
          207 27 callsubr
          hintmask 11011100
          207 -54 callsubr
          hintmask 11101100
          -14 callgsubr
          -267 rmoveto
          hintmask 11011100
          1 callgsubr
          hintmask 11101100
          41 callgsubr
          hvcurveto
          endchar
        </CharString>
        <CharString name="paragraph">
          -6 -510 111 1791 108 hstemhm
          118 487 -258 293 166 230 hintmask 00000000
          hintmask 11011000
          347 -279 rmoveto
          -114 107 -117 196 185 201 133 399 vhcurveto
          1215 vlineto
          149 24 6 176 vhcurveto
          108 -430 -1498 vlineto
          -304 -36 -97 -135 -36 -25 12 12 -18 vhcurveto
          49 23 35 47 52 vvcurveto
          90 -58 53 -78 -92 -65 -73 -96 vhcurveto
          hintmask 11101000
          258 844 rmoveto
          934 vlineto
          -270 -217 -209 -258 -258 217 -209 270 hvcurveto
          endchar
        </CharString>
        <CharString name="parenleft">
          -456 -447 2256 hstem
          159 218 vstem
          159 681 rmoveto
          -408 176 -515 349 -205 vhcurveto
          59 80 rlineto
          -193 201 -173 320 527 vvcurveto
          527 173 320 193 201 vhcurveto
          -59 80 rlineto
          -349 -205 -176 -515 -408 vvcurveto
          endchar
        </CharString>
        <CharString name="parenright">
          -456 -447 2256 hstem
          445 218 vstem
          663 681 rmoveto
          408 -176 515 -349 205 vhcurveto
          -59 -80 rlineto
          193 -201 173 -320 -527 vvcurveto
          -527 -173 -320 -193 -201 vhcurveto
          59 -80 rlineto
          349 205 176 515 408 vvcurveto
          endchar
        </CharString>
        <CharString name="partialdiff">
          26 callgsubr
          103 230 0 280 348 213 hintmask 00000000
          hintmask 11110100
          103 389 rmoveto
          -221 141 -188 242 505 183 546 408 383 -180 203 -249 vhcurveto
          hintmask 11101100
          -226 -186 -161 -173 -86 60 -67 84 78 58 60 76 61 -49 51 -55 17 hvcurveto
          72 40 84 24 60 hhcurveto
          156 112 -138 -233 -91 -16 -106 -22 -84 hvcurveto
          108 -29 -115 82 -150 hhcurveto
          hintmask 11110100
          -280 -246 -238 -305 hvcurveto
          230 -21 rmoveto
          184 106 251 210 109 90 -86 -151 -176 -137 -285 -195 -102 -81 97 166 vhcurveto
          endchar
        </CharString>
        <CharString name="percent">
          572 -20 106 -65 -21 614 106 60 106 6 callsubr
          -39 callsubr
          hintmask 1011111110000000
          -31 callsubr
          hintmask 0111111110000000
          -35 callgsubr
          545 -538 rmoveto
          hintmask 1011111110000000
          -221 160 -147 195 -49 callgsubr
          vhcurveto
          hintmask 0111111110000000
          -6 callsubr
          hvcurveto
          hintmask 1011111110000000
          206 12 rmoveto
          -46 callgsubr
          -67 -82 51 223 vhcurveto
          endchar
        </CharString>
        <CharString name="period">
          -594 -20 40 callgsubr
          vstem
          192 130 rmoveto
          8 callsubr
        </CharString>
        <CharString name="periodcentered">
          -594 484 40 callgsubr
          vstem
          192 634 rmoveto
          8 callsubr
        </CharString>
        <CharString name="perthousand">
          1422 -20 106 -65 -21 614 272 6 callsubr
          140 206 298 206 -39 callsubr
          hintmask 1011111111000000
          -31 callsubr
          hintmask 0111110010000000
          -35 callgsubr
          1395 -538 rmoveto
          hintmask 1010000011000000
          -221 160 -147 195 -49 callgsubr
          vhcurveto
          hintmask 0111110010000000
          -6 callsubr
          hvcurveto
          hintmask 1010001111000000
          -850 hmoveto
          -221 160 -147 195 -4 callgsubr
          vhcurveto
          1056 12 rmoveto
          -46 callgsubr
          -67 -82 51 223 vhcurveto
          -850 hmoveto
          -46 callgsubr
          -67 -82 51 223 vhcurveto
          endchar
        </CharString>
        <CharString name="pi">
          196 -20 120 -120 140 704 190 hstemhm
          63 269 -149 105 519 197 hintmask 00000000
          hintmask 10110100
          63 172 rmoveto
          -109 92 -83 114 210 143 214 630 71 vhcurveto
          228 hlineto
          1 -5 0 -5 -6 vvcurveto
          -14 -2 -16 -4 -19 vhcurveto
          -100 -462 rlineto
          -6 -33 -3 -30 -28 vvcurveto
          -153 91 -73 97 158 72 129 152 37 vhcurveto
          -95 hlineto
          hintmask 01101100
          -113 -30 -39 -28 -32 hhcurveto
          -25 -37 20 70 16 2 18 4 22 hvcurveto
          113 558 rlineto
          240 hlineto
          69 361 rlineto
          -115 hlineto
          -17 -73 rlineto
          -64 -19 -21 -34 -126 hhcurveto
          -714 hlineto
          -186 -58 -139 -162 7 hvcurveto
          105 hlineto
          101 52 10 50 vhcurveto
          169 hlineto
          hintmask 10110100
          -24 -245 -48 -465 -174 -14 -7 -1 -7 1 -7 1 rrcurveto
          24 23 16 31 36 vvcurveto
          70 -56 55 -73 -82 -58 -64 -80 vhcurveto
          endchar
        </CharString>
        <CharString name="plus">
          82 598 163 hstem
          596 163 vstem
          596 129 rmoveto
          163 469 11 callsubr
          hlineto
          endchar
        </CharString>
        <CharString name="plusminus">
          82 0 163 435 163 hstem
          596 163 vstem
          127 hmoveto
          1101 163 -469 435 11 callsubr
          -435 -469 hlineto
          endchar
        </CharString>
        <CharString name="product">
          309 -67 callsubr
          hstem
          294 230 540 229 vstem
          125 hmoveto
          567 -7 callgsubr
          1171 rlineto
          540 hlineto
          1 -1171 rlineto
          -71 callsubr
          -110 567 -26 callsubr
          -66 callsubr
          1062 -69 callsubr
          -1337 -110 vlineto
          12 callsubr
        </CharString>
        <CharString name="q">
          -79 -490 110 360 123 811 120 -20 -20 hstemhm
          87 233 508 -16 callgsubr
          hintmask 11101100
          87 479 rmoveto
          -298 176 -201 257 136 104 52 90 68 vhcurveto
          -387 vlineto
          -103 -24 -12 -189 vhcurveto
          -110 569 -26 callsubr
          -122 -18 26 79 hvcurveto
          hintmask 11011100
          1289 -152 vlineto
          -48 -14 -42 -27 -27 vhcurveto
          hintmask 11101100
          86 -76 -111 51 -117 hhcurveto
          -283 -177 -206 -349 hvcurveto
          485 -376 rmoveto
          -187 -65 190 223 239 94 159 158 158 103 -149 -249 -233 -74 -180 -187 hvcurveto
          endchar
        </CharString>
        <CharString name="question">
          -233 -20 308 1107 125 hstemhm
          52 319 -38 308 78 231 hintmask 00000000
          hintmask 11011000
          415 450 rmoveto
          119 hlineto
          21 251 395 117 309 vvcurveto
          239 -191 154 -243 vhcurveto
          hintmask 11101000
          -293 -184 -200 -196 13 hvcurveto
          -97 6 65 -68 94 hhcurveto
          103 51 65 91 73 -43 57 -65 19 hvcurveto
          91 38 108 40 96 hhcurveto
          116 98 -68 -148 hvcurveto
          -362 -304 -14 -308 vvcurveto
          hintmask 11011000
          -82 -361 -3 callsubr
          -85 -69 -69 -85 vhcurveto
          endchar
        </CharString>
        <CharString name="questiondown">
          -233 -120 125 1107 308 hstemhm
          61 231 78 308 -38 319 hintmask 00000000
          hintmask 11110000
          596 950 rmoveto
          -119 hlineto
          -21 -251 -395 -117 -309 vvcurveto
          -239 191 -154 243 vhcurveto
          hintmask 11101000
          293 184 200 196 -13 hvcurveto
          97 -6 -65 68 -94 hhcurveto
          -103 -51 -65 -91 -73 43 -57 65 -19 hvcurveto
          -91 -38 -108 -40 -96 hhcurveto
          -116 -98 68 148 hvcurveto
          362 304 14 308 vvcurveto
          hintmask 11110000
          82 361 rmoveto
          85 -69 69 -85 -85 -69 -69 -85 -85 69 -69 85 85 69 69 85 vhcurveto
          endchar
        </CharString>
        <CharString name="quotedbl">
          -142 858 662 hstemhm
          226 266 164 266 hintmask 11000000
          276 905 -44 callgsubr
          hintmask 10100000
          477 -416 -44 callgsubr
          endchar
        </CharString>
        <CharString name="quotedblbase">
          -38 -340 18 callsubr
          168 -63 callsubr
        </CharString>
        <CharString name="quotedblleft">
          -38 1075 685 hstemhm
          126 196 364 196 hintmask 11000000
          474 1252 rmoveto
          -57 callgsubr
          hintmask 10100000
          560 hmoveto
          -57 callgsubr
          endchar
        </CharString>
        <CharString name="quotedblright">
          -38 825 18 callsubr
          1333 -63 callsubr
        </CharString>
        <CharString name="quoteleft">
          -598 1075 685 hstem
          176 196 vstem
          524 1252 rmoveto
          -57 callgsubr
          endchar
        </CharString>
        <CharString name="quoteright">
          -626 845 685 hstem
          330 196 vstem
          178 1353 rmoveto
          -58 callsubr
        </CharString>
        <CharString name="quotesinglbase">
          -598 -340 685 hstem
          319 196 vstem
          167 168 rmoveto
          -58 callsubr
        </CharString>
        <CharString name="quotesingle">
          -572 858 662 hstem
          230 266 vstem
          280 905 -44 callgsubr
          endchar
        </CharString>
        <CharString name="r">
          37 callgsubr
          hstem
          221 216 169 262 vstem
          -86 callgsubr
          endchar
        </CharString>
        <CharString name="racute">
          37 callgsubr
          -13 callsubr
          221 216 -34 310 -107 262 hintmask 11101010
          -86 callgsubr
          hintmask 00010100
          373 1084 -101 callsubr
        </CharString>
        <CharString name="radical">
          234 21 -21 854 110 hstem
          90 1407 vstem
          679 hmoveto
          144 hlineto
          674 1821 rlineto
          -152 hlineto
          -567 -1563 -268 706 rlineto
          -420 -110 236 hlineto
          endchar
        </CharString>
        <CharString name="rcaron">
          37 callgsubr
          152 433 hstemhm
          147 674 -600 216 169 262 hintmask 11100110
          -86 callgsubr
          hintmask 00011000
          458 1056 -81 callsubr
        </CharString>
        <CharString name="rcommaaccent">
          -381 -547 417 130 -56 callgsubr
          hstemhm
          221 216 -133 165 137 262 hintmask 01111010
          -86 callgsubr
          hintmask 10000100
          127 -358 -100 callsubr
        </CharString>
        <CharString name="registered">
          270 229 104 213 85 -72 63 266 66 278 70 202 104 hstemhm
          85 119 316 145 250 156 28 63 181 120 -39 callsubr
          hintmask 1011111101100000
          773 229 rmoveto
          380 310 293 396 396 -310 294 -380 -379 -309 -294 -396 -396 309 -293 379 hvcurveto
          104 vmoveto
          -313 -256 245 340 340 256 246 313 314 256 -246 -340 -340 -256 -245 -314 hvcurveto
          -338 226 rmoveto
          344 63 hlineto
          -110 -4 11 61 hvcurveto
          194 88 vlineto
          hintmask 1101111101100000
          130 -71 -342 200 hhcurveto
          144 21 133 70 -22 hvcurveto
          -56 hlineto
          -49 -1 -5 -69 -36 hhcurveto
          -72 24 213 67 -97 hvcurveto
          hintmask 1011111111100000
          87 29 72 59 106 vvcurveto
          98 -74 99 -222 vhcurveto
          -340 -72 hlineto
          76 9 -19 -52 hvcurveto
          -465 vlineto
          -52 -9 -20 -76 vhcurveto
          230 332 rmoveto
          278 98 vlineto
          100 52 -57 -73 -97 -77 -51 -113 hvcurveto
          endchar
        </CharString>
        <CharString name="ring">
          1174 24 callgsubr
          hstem
          -277 14 callsubr
          vstem
          1174 vmoveto
          -86 callsubr
        </CharString>
        <CharString name="ring.cap">
          1395 24 callgsubr
          hstem
          -277 14 callsubr
          vstem
          1395 vmoveto
          -86 callsubr
        </CharString>
        <CharString name="s">
          0 callgsubr
          -28 callgsubr
          308 258 -173 194 hintmask 00000000
          hintmask 11100100
          85 209 rmoveto
          -137 177 -92 232 237 159 103 181 159 -174 77 -147 81 vhcurveto
          hintmask 11011000
          -125 69 -141 54 95 vvcurveto
          68 61 65 120 74 50 -21 -30 30 vhcurveto
          -17 -20 -10 -26 -28 vvcurveto
          -67 52 -54 76 76 54 57 73 128 -167 89 -220 -208 -159 -106 -172 -177 159 -82 144 -73 vhcurveto
          hintmask 11100100
          120 -61 158 -66 -93 vvcurveto
          -92 -116 -23 -93 4 vhcurveto
          -60 2 -69 17 -47 26 rrcurveto
          21 21 13 29 31 vvcurveto
          69 -55 53 -74 -77 -54 -58 -73 vhcurveto
          endchar
        </CharString>
        <CharString name="sacute">
          0 callgsubr
          161 496 -28 callgsubr
          128 310 -130 -98 callgsubr
          398 985 -101 callsubr
        </CharString>
        <CharString name="scaron">
          0 callgsubr
          133 433 -28 callgsubr
          -128 674 -238 -98 callgsubr
          483 957 -81 callsubr
        </CharString>
        <CharString name="scedilla">
          -304 -419 131 268 112 -84 -21 945 101 -28 callgsubr
          175 126 7 258 -173 194 -39 callsubr
          hintmask 1101101010000000
          85 209 rmoveto
          -134 169 -91 224 -4 vhcurveto
          -6 -248 11 callgsubr
          254 31 173 233 -40 hvcurveto
          183 24 117 97 156 vvcurveto
          159 -174 77 -147 81 vhcurveto
          -125 69 -141 54 95 vvcurveto
          68 61 65 120 vhcurveto
          hintmask 1101010100000000
          74 50 -21 -30 30 hvcurveto
          -17 -20 -10 -26 -28 vvcurveto
          -67 52 -54 76 76 54 57 73 128 -167 89 -220 -208 -159 -106 -172 -177 159 -82 144 -73 vhcurveto
          hintmask 1101101010000000
          120 -61 158 -66 -93 vvcurveto
          -92 -116 -23 -93 4 vhcurveto
          -60 2 -69 17 -47 26 rrcurveto
          21 21 13 29 31 vvcurveto
          69 -55 53 -74 -77 -54 -58 -73 vhcurveto
          endchar
        </CharString>
        <CharString name="scircumflex">
          0 callgsubr
          134 433 -28 callgsubr
          -128 674 -238 -98 callgsubr
          200 991 -99 callsubr
        </CharString>
        <CharString name="scommaaccent">
          -304 23 callgsubr
          112 840 101 -28 callgsubr
          181 165 -38 258 -173 194 hintmask 00000000
          hintmask 01110001
          85 209 rmoveto
          -137 177 -92 232 237 159 103 181 159 -174 77 -147 81 vhcurveto
          hintmask 01101010
          -125 69 -141 54 95 vvcurveto
          68 61 65 120 74 50 -21 -30 30 vhcurveto
          -17 -20 -10 -26 -28 vvcurveto
          -67 52 -54 76 76 54 57 73 128 -167 89 -220 -208 -159 -106 -172 -177 159 -82 144 -73 vhcurveto
          hintmask 01110001
          120 -61 158 -66 -93 vvcurveto
          -92 -116 -23 -93 4 vhcurveto
          -60 2 -69 17 -47 26 rrcurveto
          21 21 13 29 31 vvcurveto
          69 -55 53 -74 -77 -54 -58 -73 vhcurveto
          hintmask 10000100
          304 -457 -100 callsubr
        </CharString>
        <CharString name="section">
          4 -364 120 1661 -20 107 116 hstemhm
          143 195 -161 302 -256 215 322 302 -223 216 -126 196 -39 callsubr
          hintmask 1110100100000000
          177 -89 rmoveto
          -149 172 -126 264 253 189 122 216 101 -59 83 -79 68 vhcurveto
          hintmask 1110010010000000
          128 66 80 115 157 vvcurveto
          228 -244 145 -191 105 vhcurveto
          -128 75 -124 89 127 vvcurveto
          110 86 61 122 vhcurveto
          hintmask 1110011000000000
          73 79 -27 -60 34 hvcurveto
          -43 -28 -29 -51 -59 vvcurveto
          -73 60 -58 86 88 68 75 96 166 -168 135 -258 -215 -198 -135 -209 -123 55 -90 77 -73 vhcurveto
          hintmask 1111000100000000
          -126 -72 -86 -122 -140 vvcurveto
          -245 221 -128 199 -108 vhcurveto
          146 -75 130 -80 -105 vvcurveto
          -99 -89 -60 -127 vhcurveto
          hintmask 1110100010000000
          -79 -74 17 52 -46 hvcurveto
          34 27 21 42 47 vvcurveto
          79 -60 62 -86 vhcurveto
          hintmask 1110100100000000
          -88 -68 -75 -96 hvcurveto
          hintmask 1111000010000000
          161 792 rmoveto
          102 49 67 72 37 vhcurveto
          34 -23 35 -21 35 -20 rrcurveto
          188 -98 178 -83 -139 vvcurveto
          -108 -55 -68 -77 -37 vhcurveto
          -36 22 -36 20 -35 18 rrcurveto
          -177 90 -175 98 143 vvcurveto
          endchar
        </CharString>
        <CharString name="semicolon">
          -594 -387 713 333 303 hstemhm
          192 312 -182 204 hintmask 01100000
          192 809 -61 callsubr
          hintmask 10010000
          -17 -651 -33 callsubr
        </CharString>
        <CharString name="seven">
          -127 1 -21 1320 200 hstem
          403 272 vstem
          403 170 rmoveto
          -150 70 -40 50 247 -288 534 857 603 vhcurveto
          -56 129 rlineto
          -867 hlineto
          -69 -447 127 2 10 63 rlineto
          122 21 52 60 176 hhcurveto
          402 hlineto
          -205 -353 -273 -419 -358 vvcurveto
          endchar
        </CharString>
        <CharString name="six">
          26 callgsubr
          139 238 465 280 -193 244 hintmask 00000000
          hintmask 11110100
          690 -20 rmoveto
          298 185 243 259 267 -207 183 -241 -161 -115 -81 -93 -67 hvcurveto
          -3 45 -2 44 42 vvcurveto
          313 170 192 205 vhcurveto
          hintmask 11111000
          72 62 -18 -55 32 hvcurveto
          -46 -22 -30 -46 -54 vvcurveto
          -76 58 -60 78 84 60 71 92 151 -154 143 -246 -320 -263 -291 -543 vhcurveto
          hintmask 11110100
          -340 142 -366 409 vhcurveto
          -272 463 rmoveto
          227 -26 140 133 150 hhcurveto
          139 108 -123 -217 -224 -123 -134 -134 -132 -98 127 211 -24 hvcurveto
          endchar
        </CharString>
        <CharString name="slash">
          -257 -148 1756 hstem
          132 779 vstem
          132 -148 rmoveto
          155 hlineto
          624 1756 rlineto
          -154 hlineto
          endchar
        </CharString>
        <CharString name="space">
          -595 endchar
        </CharString>
        <CharString name="sterling">
          166 -20 105 -105 190 136 123 330 98 549 114 hstemhm
          66 124 820 307 -68 116 hintmask 00000000
          hintmask 10111101
          66 179 rmoveto
          -108 100 -91 131 147 126 95 168 49 vhcurveto
          -94 135 74 -169 229 hhcurveto
          124 212 67 327 -31 hvcurveto
          -113 hlineto
          hintmask 01111101
          -154 1 -61 -50 -87 hhcurveto
          -153 -64 166 66 -242 hvcurveto
          28 357 rlineto
          355 98 -351 hlineto
          hintmask 10111110
          455 33 107 94 147 hhcurveto
          63 49 -26 -39 30 hvcurveto
          -56 -23 -38 -53 -60 vvcurveto
          -84 66 -64 87 90 64 74 95 152 -156 142 -206 -290 -182 -205 -385 -25 vhcurveto
          -55 -4 -20 -18 -37 hhcurveto
          -109 hlineto
          -9 -98 rlineto
          113 hlineto
          41 9 -12 -52 hvcurveto
          -24 -266 rlineto
          hintmask 10111101
          -270 -3 -82 -137 -110 vvcurveto
          124 -14 rmoveto
          58 44 78 173 5 vhcurveto
          -5 -63 rlineto
          -98 -9 -32 -60 -79 hhcurveto
          -59 -33 33 47 hvcurveto
          endchar
        </CharString>
        <CharString name="summation">
          46 0 200 1178 121 hstem
          111 1127 vstem
          111 hmoveto
          1048 hlineto
          79 401 rlineto
          -135 hlineto
          -17 -73 rlineto
          -85 -19 -21 -43 -126 hhcurveto
          -603 hlineto
          536 592 -432 586 rlineto
          450 hlineto
          126 17 -43 -96 23 hvcurveto
          27 -113 145 1 -49 373 -1048 -2 rlineto
          -72 callsubr
          502 -652 -503 -546 rlineto
          endchar
        </CharString>
        <CharString name="t">
          -441 -20 121 793 120 hstem
          184 216 vstem
          184 330 -82 callgsubr
          endchar
        </CharString>
        <CharString name="tbar">
          -441 -20 121 422 120 251 120 hstem
          184 216 vstem
          184 330 rmoveto
          -269 140 -81 175 174 107 123 171 7 vhcurveto
          -116 hlineto
          -120 -22 -48 -53 -67 hhcurveto
          -65 -69 45 187 hvcurveto
          190 307 120 -307 251 307 120 -307 295 -160 vlineto
          -1 -89 rlineto
          -147 -4 -45 -59 -101 hhcurveto
          -37 -120 82 hlineto
          41 9 -12 -52 hvcurveto
          -187 -132 -120 132 vlineto
          endchar
        </CharString>
        <CharString name="tcaron">
          -327 -20 121 793 120 81 614 hstemhm
          184 216 386 166 hintmask 00101000
          702 1097 -71 callgsubr
          hintmask 11010000
          -518 -767 -82 callgsubr
          endchar
        </CharString>
        <CharString name="tcommaaccent">
          -441 23 callgsubr
          121 793 120 hstemhm
          184 216 26 165 hintmask 01110000
          184 330 -82 callgsubr
          hintmask 10001000
          147 -1078 -100 callsubr
        </CharString>
        <CharString name="thorn">
          -71 -490 110 360 120 813 121 373 110 hstemhm
          11 571 -419 27 callsubr
          hintmask 11110110
          163 35 callgsubr
          vlineto
          hintmask 11111010
          559 -70 callgsubr
          hintmask 11110110
          -181 -22 12 103 hvcurveto
          335 vlineto
          -58 71 93 -32 87 hhcurveto
          323 167 216 349 298 -174 191 -279 -121 -97 -48 -59 -70 hvcurveto
          504 -28 callsubr
          hintmask 11111010
          -67 -45 45 callgsubr
          -72 callsubr
          hintmask 11110110
          71 hlineto
          80 1 -29 -87 hvcurveto
          211 -793 rmoveto
          233 94 182 167 187 65 -192 -223 -238 -94 -160 -158 41 callgsubr
          vhcurveto
          endchar
        </CharString>
        <CharString name="three">
          -61 -20 126 594 140 554 126 hstemhm
          142 280 -231 272 387 245 -205 245 hintmask 00000000
          hintmask 11110010
          142 294 rmoveto
          -144 188 -170 282 280 243 165 279 154 -123 144 -165 58 vhcurveto
          hintmask 11101100
          121 61 127 119 166 vvcurveto
          259 -218 135 -235 -270 -181 -185 -157 -87 57 -68 79 77 59 59 77 49 -26 44 -39 23 vhcurveto
          83 31 89 36 84 hhcurveto
          122 126 -68 -183 -173 -121 -130 -178 hvcurveto
          -54 -140 86 hlineto
          hintmask 11110010
          182 125 -141 -142 -215 -156 -96 -152 -91 -90 31 71 -38 hvcurveto
          36 25 23 41 47 16 callsubr
          endchar
        </CharString>
        <CharString name="threequarters">
          36 callsubr
          121 44 callsubr
          179 249 -229 343 -175 74 37 420 -356 202 -202 381 -204 25 -25 215 -39 callsubr
          hintmask 1111111000000100
          534 964 21 callsubr
          hintmask 1111110010010000
          21 callgsubr
          vhcurveto
          hintmask 1111110010001000
          4 callsubr
          hvcurveto
          18 callgsubr
          hintmask 1111110011000000
          -77 -105 112 hlineto
          hintmask 1111111000000100
          -30 callgsubr
          hintmask 1111110010010000
          -388 -214 20 callgsubr
          424 -103 hlineto
          -93 -17 -11 -158 vhcurveto
          -97 vlineto
          hintmask 1111110011000000
          531 97 hlineto
          hintmask 1111110010001000
          25 callsubr
          165 109 hlineto
          hintmask 1111110010100000
          -9 callsubr
          hintmask 1111110100000000
          -1 21 rlineto
          endchar
        </CharString>
        <CharString name="threesuperior">
          -225 796 44 callsubr
          155 249 -229 242 278 204 -204 215 hintmask 00000000
          hintmask 11110010
          510 796 21 callsubr
          hintmask 11101100
          21 callgsubr
          4 callsubr
          vhcurveto
          18 callgsubr
          -77 -105 112 hlineto
          hintmask 11110010
          -30 callgsubr
          endchar
        </CharString>
        <CharString name="tilde">
          1232 33 callsubr
          -405 810 hintmask 00000000
          hintmask 10100000
          131 1232 -85 callgsubr
          -81 -65 170 -179 hhcurveto
          hintmask 01100000
          -83 callgsubr
          hintmask 10100000
          -54 callgsubr
        </CharString>
        <CharString name="tilde.cap">
          1641 -34 callsubr
          -405 810 hintmask 00000000
          hintmask 10010000
          131 1641 -85 callgsubr
          hhcurveto
          hintmask 01110000
          -81 -65 170 -179 hhcurveto
          -83 callgsubr
          hintmask 10010000
          -54 callgsubr
        </CharString>
        <CharString name="trademark">
          1032 750 70 214 -20 232 253 hstem
          106 102 227 170 598 98 590 149 vstem
          1064 750 rmoveto
          355 70 hlineto
          -105 -13 29 80 hvcurveto
          -1 440 280 -569 rlineto
          11 hlineto
          299 546 1 -417 rlineto
          -80 -29 -29 -90 vhcurveto
          -70 407 70 vlineto
          -123 -15 29 80 hvcurveto
          -1 392 rlineto
          80 33 29 106 vhcurveto
          70 -308 vlineto
          -242 -466 -220 466 rlineto
          -345 -70 hlineto
          123 15 -29 -80 hvcurveto
          1 -392 rlineto
          -80 -33 -29 -106 vhcurveto
          -777 -70 rmoveto
          467 70 hlineto
          -132 -16 29 80 hvcurveto
          -1 390 rlineto
          105 61 vlineto
          126 30 -6 -99 10 hvcurveto
          6 -73 105 1 -21 253 rlineto
          -806 hlineto
          -19 -253 105 -1 7 73 rlineto
          99 10 30 6 126 hhcurveto
          60 -105 hlineto
          1 -390 rlineto
          -80 -35 -29 -114 vhcurveto
          endchar
        </CharString>
        <CharString name="two">
          -78 0 190 1214 116 hstem
          128 289 420 245 vstem
          144 hmoveto
          935 hlineto
          50 394 rlineto
          -113 hlineto
          -152 -42 -7 -52 -208 hhcurveto
          -438 hlineto
          188 323 573 140 433 vvcurveto
          263 -171 171 -282 -288 -213 -202 -170 -93 64 -69 83 80 62 62 81 54 -29 47 -44 24 vhcurveto
          104 46 119 46 90 hhcurveto
          127 111 -81 -180 hvcurveto
          -461 -693 -237 -325 vvcurveto
          endchar
        </CharString>
        <CharString name="twosuperior">
          -222 815 156 739 128 hstem
          159 269 243 215 vstem
          184 815 rmoveto
          681 hlineto
          30 callgsubr
          -199 hlineto
          139 176 367 139 38 callgsubr
          2 callsubr
          vhcurveto
          32 callgsubr
          38 callsubr
        </CharString>
        <CharString name="u">
          -88 -69 callgsubr
          -12 callgsubr
          415 -16 callgsubr
          hintmask 01111100
          170 351 rmoveto
          -247 118 -124 201 137 115 63 121 82 vhcurveto
          -153 30 94 -31 86 hhcurveto
          41 58 12 24 32 hvcurveto
          hintmask 10111100
          97 vlineto
          -7 -15 -24 -4 -19 hhcurveto
          -95 6 60 104 hvcurveto
          640 22 callsubr
          -39 -66 callgsubr
          57 -19 callsubr
          2 hvcurveto
          -459 vlineto
          hintmask 01111100
          -99 -38 -105 -91 -98 hhcurveto
          -158 -16 107 120 hvcurveto
          558 vlineto
          82 -11 50 -76 vhcurveto
          -64 -15 -42 -156 -51 callsubr
          26 -19 callsubr
          1 hvcurveto
          endchar
        </CharString>
        <CharString name="uacute">
          -78 -69 callgsubr
          180 496 -12 callgsubr
          113 310 -8 -104 callsubr
          381 428 -101 callsubr
        </CharString>
        <CharString name="ubreve">
          -78 -69 callgsubr
          168 189 -12 callgsubr
          -142 672 -115 -104 callsubr
          410 416 rmoveto
          -88 callsubr
        </CharString>
        <CharString name="ucircumflex">
          -78 -69 callgsubr
          153 433 -12 callgsubr
          -143 674 -116 -104 callsubr
          183 434 -99 callsubr
        </CharString>
        <CharString name="udieresis">
          -78 -69 callgsubr
          211 301 -12 callgsubr
          -199 -40 callsubr
          -172 216 -39 callsubr
          hintmask 0111010010000000
          170 351 rmoveto
          -247 118 -124 201 137 115 63 121 82 vhcurveto
          -153 30 94 -31 86 hhcurveto
          41 58 12 24 32 hvcurveto
          hintmask 1011010010000000
          97 vlineto
          -7 -15 -24 -4 -19 hhcurveto
          -95 6 60 104 hvcurveto
          640 22 callsubr
          -39 -66 callgsubr
          57 -19 callsubr
          2 hvcurveto
          -459 vlineto
          hintmask 0111010010000000
          -99 -38 -105 -91 -98 hhcurveto
          -158 -16 107 120 hvcurveto
          558 vlineto
          82 -11 50 -76 vhcurveto
          -64 -15 -42 -156 -51 callsubr
          26 -19 callsubr
          1 hvcurveto
          hintmask 0000101100000000
          650 459 -102 callsubr
        </CharString>
        <CharString name="ugrave">
          -78 -69 callgsubr
          180 496 -12 callgsubr
          -22 310 127 -104 callsubr
          452 428 -92 callgsubr
        </CharString>
        <CharString name="uhungarumlaut">
          -78 -69 callgsubr
          175 431 -12 callgsubr
          -40 844 -389 -104 callsubr
          631 423 -79 callgsubr
        </CharString>
        <CharString name="umacron">
          -78 -69 callgsubr
          219 170 -12 callgsubr
          -146 680 -119 -104 callsubr
          750 467 -29 callgsubr
        </CharString>
        <CharString name="underscore">
          151 -320 130 hstem
          -18 1449 vstem
          -18 -190 rmoveto
          -130 1449 130 vlineto
          endchar
        </CharString>
        <CharString name="uni0001">
          endchar
        </CharString>
        <CharString name="uni0002">
          endchar
        </CharString>
        <CharString name="uni0003">
          endchar
        </CharString>
        <CharString name="uni0004">
          endchar
        </CharString>
        <CharString name="uni0005">
          endchar
        </CharString>
        <CharString name="uni0006">
          endchar
        </CharString>
        <CharString name="uni0007">
          endchar
        </CharString>
        <CharString name="uni0008">
          endchar
        </CharString>
        <CharString name="uni0015">
          endchar
        </CharString>
        <CharString name="uni0016">
          endchar
        </CharString>
        <CharString name="uni0017">
          endchar
        </CharString>
        <CharString name="uni0018">
          endchar
        </CharString>
        <CharString name="uni0019">
          endchar
        </CharString>
        <CharString name="uni00AD">
          -49 endchar
        </CharString>
        <CharString name="uni0394">
          -39 callgsubr
        </CharString>
        <CharString name="uni03A9">
          -76 callsubr
        </CharString>
        <CharString name="uni03BC">
          -84 callgsubr
        </CharString>
        <CharString name="uni1E02">
          95 -45 callsubr
          622 90 568 110 174 311 -46 callsubr
          52 328 117 248 -168 249 hintmask 00000000
          hintmask 11101001
          83 2 callgsubr
          hintmask 11101010
          -59 callgsubr
          hintmask 11101001
          12 callgsubr
          hintmask 00010100
          20 1564 rmoveto
          -97 callgsubr
        </CharString>
        <CharString name="uni1E03">
          -39 -20 120 -79 -21 913 121 180 311 -118 110 hstemhm
          195 216 221 328 -41 233 hintmask 00000000
          hintmask 01101101
          195 43 callgsubr
          hintmask 10101101
          -64 callsubr
          hintmask 00010010
          390 716 rmoveto
          -97 callgsubr
        </CharString>
        <CharString name="uni1E0A">
          239 39 callgsubr
          174 311 -46 callsubr
          86 328 286 261 hintmask 11010100
          82 -73 callgsubr
          hintmask 00101000
          64 1563 rmoveto
          -97 callgsubr
        </CharString>
        <CharString name="uni1E0B">
          -51 -53 callgsubr
          180 311 -118 110 hstemhm
          96 233 -112 328 292 216 hintmask 11011010
          96 478 -89 callsubr
          hintmask 00100100
          -200 1114 rmoveto
          -97 callgsubr
        </CharString>
        <CharString name="uni1E1E">
          4 0 -67 callgsubr
          174 311 -46 callsubr
          -4 328 43 130 hintmask 11101010
          82 -62 callgsubr
          hintmask 00010100
          553 1564 rmoveto
          -97 callgsubr
        </CharString>
        <CharString name="uni1E1F">
          -418 35 callsubr
          54 311 hstemhm
          248 328 -320 -27 callgsubr
          hintmask 11100110
          116 -90 callgsubr
          hintmask 00011000
          296 1564 rmoveto
          -97 callgsubr
        </CharString>
        <CharString name="uni1E40">
          712 -67 callsubr
          174 311 hstemhm
          250 160 411 328 348 223 hintmask 11010100
          -68 callgsubr
          hintmask 00101000
          903 1564 rmoveto
          -97 callgsubr
        </CharString>
        <CharString name="uni1E41">
          615 -44 callsubr
          206 311 hstemhm
          232 216 350 328 -259 216 413 216 -39 callsubr
          hintmask 1010010110000000
          92 -74 callsubr
          hintmask 1101010110000000
          82 -8 46 -77 vhcurveto
          -65 -46 -76 callgsubr
          hintmask 0000101000000000
          870 1104 rmoveto
          -97 callgsubr
        </CharString>
        <CharString name="uni1E56">
          2 -45 callsubr
          475 100 705 110 174 311 -46 callsubr
          7 328 160 241 hintmask 11101010
          83 -61 callgsubr
          hintmask 00010100
          60 989 rmoveto
          -97 callgsubr
        </CharString>
        <CharString name="uni1E57">
          -17 19 callsubr
          180 311 hstemhm
          212 216 93 328 87 233 hintmask 00000000
          hintmask 11010101
          212 -54 callsubr
          hintmask 11100101
          -14 callgsubr
          -267 rmoveto
          hintmask 11010101
          1 callgsubr
          hintmask 11100101
          41 callgsubr
          hvcurveto
          hintmask 00001010
          262 716 rmoveto
          -97 callgsubr
        </CharString>
        <CharString name="uni1E60">
          4 -20 callsubr
          154 311 -26 callgsubr
          100 328 -12 -100 callgsubr
          520 1402 rmoveto
          -97 callgsubr
        </CharString>
        <CharString name="uni1E61">
          0 callgsubr
          181 311 -28 callgsubr
          45 328 -65 -98 callgsubr
          427 1005 rmoveto
          -97 callgsubr
        </CharString>
        <CharString name="uni1E6A">
          105 17 callgsubr
          174 311 hstemhm
          533 328 -284 225 hintmask 11100100
          368 -84 callsubr
          hintmask 00011000
          329 1564 rmoveto
          -97 callgsubr
        </CharString>
        <CharString name="uni1E6B">
          -441 -20 121 793 120 470 311 hstemhm
          159 328 -303 216 hintmask 11001000
          184 330 -82 callgsubr
          hintmask 00110000
          139 654 rmoveto
          -97 callgsubr
        </CharString>
        <CharString name="uogonek">
          -78 42 callsubr
          336 137 765 110 42 -20 hstemhm
          170 220 320 180 -83 220 72 90 hintmask 00000000
          hintmask 11111011
          170 351 rmoveto
          -247 127 -124 197 141 115 64 121 83 vhcurveto
          16 -83 35 -47 43 -26 rrcurveto
          hintmask 11111101
          -103 -70 -114 -109 -127 -68 callsubr
          114 108 96 66 27 vhcurveto
          50 20 46 11 14 13 rrcurveto
          97 vlineto
          hintmask 11111011
          -7 -15 -24 -4 -19 hhcurveto
          -95 6 60 104 hvcurveto
          640 -33 callgsubr
          -63 -45 -42 -156 -51 callsubr
          51 -19 callsubr
          2 hvcurveto
          -459 vlineto
          -99 -40 -105 -91 -102 hhcurveto
          -152 -18 107 120 hvcurveto
          558 vlineto
          82 -11 50 -76 vhcurveto
          -64 -32 -42 -156 -51 callsubr
          39 -19 callsubr
          1 hvcurveto
          endchar
        </CharString>
        <CharString name="uring">
          -78 -69 callgsubr
          160 24 callgsubr
          -12 callgsubr
          -83 14 callsubr
          -57 216 -39 callsubr
          hintmask 0111001001000000
          170 351 rmoveto
          -247 118 -124 201 137 115 63 121 82 vhcurveto
          -153 30 94 -31 86 hhcurveto
          41 58 12 24 32 hvcurveto
          hintmask 1011001001000000
          97 vlineto
          -7 -15 -24 -4 -19 hhcurveto
          -95 6 60 104 hvcurveto
          640 22 callsubr
          -39 -66 callgsubr
          57 -19 callsubr
          2 hvcurveto
          -459 vlineto
          hintmask 0111001001000000
          -99 -38 -105 -91 -98 hhcurveto
          -158 -16 107 120 hvcurveto
          558 vlineto
          82 -11 50 -76 vhcurveto
          -64 -15 -42 -156 -51 callsubr
          26 -19 callsubr
          1 hvcurveto
          hintmask 0000110110000000
          410 408 rmoveto
          -86 callsubr
        </CharString>
        <CharString name="utilde">
          -78 -69 callgsubr
          218 33 callsubr
          170 216 -211 810 -184 216 -39 callsubr
          hintmask 0111001010000000
          170 351 rmoveto
          -247 118 -124 201 137 115 63 121 82 vhcurveto
          -153 30 94 -31 86 hhcurveto
          41 58 12 24 32 hvcurveto
          hintmask 1011001010000000
          97 vlineto
          -7 -15 -24 -4 -19 hhcurveto
          -95 6 60 104 hvcurveto
          640 22 callsubr
          -39 -66 callgsubr
          57 -19 callsubr
          2 hvcurveto
          -459 vlineto
          hintmask 0111001010000000
          -99 -38 -105 -91 -98 hhcurveto
          -158 -16 107 120 hvcurveto
          558 vlineto
          82 -11 50 -76 vhcurveto
          -64 -15 -42 -156 -51 callsubr
          26 -19 callsubr
          1 hvcurveto
          -39 callsubr
          541 466 -85 callgsubr
          -81 -65 170 -179 hhcurveto
          hintmask 0000100100000000
          -83 callgsubr
          hintmask 0000010100000000
          -54 callgsubr
        </CharString>
        <CharString name="v">
          -216 21 -21 904 110 hstem
          -60 535 170 456 vstem
          471 hmoveto
          109 hlineto
          367 797 rlineto
          71 33 33 36 88 hhcurveto
          110 -456 42 callgsubr
          31 -34 -73 -32 hvcurveto
          -241 -548 -226 548 rlineto
          77 -32 13 30 155 hhcurveto
          110 -535 -72 callsubr
          112 10 -37 -70 31 hvcurveto
          endchar
        </CharString>
        <CharString name="w">
          -1 callgsubr
          hstem
          -11 505 742 456 vstem
          -94 callsubr
          endchar
        </CharString>
        <CharString name="wacute">
          -1 callgsubr
          -13 callsubr
          -11 505 301 310 131 456 hintmask 11010100
          -94 callsubr
          hintmask 00101000
          715 397 -101 callsubr
        </CharString>
        <CharString name="wcircumflex">
          -1 callgsubr
          153 433 hstemhm
          -11 505 45 674 23 456 hintmask 11010100
          -94 callsubr
          hintmask 00101000
          517 403 -99 callsubr
        </CharString>
        <CharString name="wdieresis">
          -1 callgsubr
          211 301 hstemhm
          -11 505 -11 -40 callsubr
          -33 456 hintmask 11010010
          -94 callsubr
          hintmask 00101100
          984 428 -102 callsubr
        </CharString>
        <CharString name="wgrave">
          -1 callgsubr
          -13 callsubr
          -11 505 166 310 266 456 hintmask 11010100
          -94 callsubr
          hintmask 00101000
          786 397 -92 callgsubr
        </CharString>
        <CharString name="x">
          -102 -45 callsubr
          794 110 hstemhm
          42 478 -478 525 39 524 -477 477 hintmask 00000000
          hintmask 11100100
          42 hmoveto
          478 -70 callgsubr
          -118 -72 42 63 50 hvcurveto
          166 209 173 -209 rlineto
          hintmask 11101000
          -58 48 -60 -47 -101 -51 callsubr
          524 -26 callsubr
          -68 -71 47 58 -46 hvcurveto
          -245 309 245 285 rlineto
          hintmask 11010100
          58 49 51 37 85 hhcurveto
          110 -477 -72 callsubr
          118 69 -36 -59 -47 hvcurveto
          -159 -202 -159 202 rlineto
          52 -41 54 43 79 hhcurveto
          110 -525 -72 callsubr
          69 72 -40 -55 45 hvcurveto
          248 -301 -248 -293 rlineto
          hintmask 11100100
          -62 -51 -49 -43 -86 hhcurveto
          endchar
        </CharString>
        <CharString name="y">
          -30 callsubr
          -5 callgsubr
          394 466 hintmask 00000000
          hintmask 11011000
          195 -174 rmoveto
          -82 -58 -64 -80 -109 86 -83 130 270 83 274 318 138 hvcurveto
          268 715 rlineto
          72 28 38 35 88 hhcurveto
          110 -466 42 callgsubr
          38 -32 -75 -29 hvcurveto
          -253 -680 -249 680 rlineto
          hintmask 11101000
          79 -27 27 28 155 hhcurveto
          110 -538 -72 callsubr
          112 8 -35 -72 25 hvcurveto
          290 -710 rlineto
          28 -72 63 2 -106 vvcurveto
          hintmask 11011000
          -85 -111 -216 -94 vhcurveto
          -12 -1 -13 2 -13 3 rrcurveto
          23 23 14 30 34 vvcurveto
          70 -56 55 -73 vhcurveto
          endchar
        </CharString>
        <CharString name="yacute">
          -30 callsubr
          180 496 -5 callgsubr
          221 310 -137 -91 callsubr
          402 1368 -101 callsubr
        </CharString>
        <CharString name="ycircumflex">
          -30 callsubr
          153 433 -5 callgsubr
          -35 674 -245 -91 callsubr
          204 1374 -99 callsubr
        </CharString>
        <CharString name="ydieresis">
          -30 callsubr
          211 301 -5 callgsubr
          -91 -40 callsubr
          -301 466 hintmask 00000000
          hintmask 11001001
          195 -174 rmoveto
          -82 -58 -64 -80 -109 86 -83 130 270 83 274 318 138 hvcurveto
          268 715 rlineto
          72 28 38 35 88 hhcurveto
          110 -466 42 callgsubr
          38 -32 -75 -29 hvcurveto
          -253 -680 -249 680 rlineto
          hintmask 11010001
          79 -27 27 28 155 hhcurveto
          110 -538 -72 callsubr
          112 8 -35 -72 25 hvcurveto
          290 -710 rlineto
          28 -72 63 2 -106 vvcurveto
          hintmask 11001001
          -85 -111 -216 -94 vhcurveto
          -12 -1 -13 2 -13 3 rrcurveto
          23 23 14 30 34 vvcurveto
          70 -56 55 -73 vhcurveto
          hintmask 00100110
          671 1399 -102 callsubr
        </CharString>
        <CharString name="yen">
          227 -45 callsubr
          264 99 201 109 607 110 hstem
          26 583 54 216 85 517 vstem
          457 hmoveto
          627 -70 callgsubr
          -177 -28 29 80 hvcurveto
          155 337 99 -337 201 337 109 -275 vlineto
          339 498 rlineto
          76 47 55 33 99 hhcurveto
          110 -517 -72 callsubr
          185 11 -37 -72 -44 hvcurveto
          -314 -450 -301 450 rlineto
          74 -45 20 35 133 hhcurveto
          110 -583 -72 callsubr
          125 38 -34 -75 46 hvcurveto
          337 -498 rlineto
          -264 -109 337 hlineto
          18 -26 rlineto
          -175 -355 -99 355 -155 vlineto
          -80 -52 -29 -154 vhcurveto
          endchar
        </CharString>
        <CharString name="ygrave">
          -30 callsubr
          180 496 -5 callgsubr
          86 310 -2 -91 callsubr
          473 1368 -92 callgsubr
        </CharString>
        <CharString name="z">
          5 callsubr
          hstem
          87 878 vstem
          -78 callgsubr
          endchar
        </CharString>
        <CharString name="zacute">
          5 callsubr
          -13 callsubr
          87 878 -520 310 hintmask 11010000
          -78 callgsubr
          hintmask 00101000
          410 1081 -101 callsubr
        </CharString>
        <CharString name="zcaron">
          5 callsubr
          152 433 hstemhm
          87 878 -776 674 hintmask 11010000
          -78 callgsubr
          hintmask 00101000
          495 1053 -81 callsubr
        </CharString>
        <CharString name="zdotaccent">
          5 callsubr
          200 311 hstemhm
          87 878 -603 328 hintmask 11010000
          -78 callgsubr
          hintmask 00101000
          439 1101 rmoveto
          -97 callgsubr
        </CharString>
        <CharString name="zero">
          180 -20 callsubr
          hstem
          144 266 638 266 vstem
          729 -20 rmoveto
          329 256 279 489 537 -278 235 -307 -307 -278 -235 -537 -489 256 -279 329 hvcurveto
          120 vmoveto
          -140 -179 119 541 464 146 176 173 173 146 -176 -464 -541 -179 -119 -140 hvcurveto
          endchar
        </CharString>
      <CharString index="0">
        -106 callsubr
        endchar
      </CharString>
      <CharString index="1">
        hmoveto
        1148 hlineto
        39 361 rlineto
        -145 hlineto
        -45 -123 rlineto
        -70 -31 -21 -58 -126 hhcurveto
        -425 586 194 hlineto
        135 48 -5 -133 hvcurveto
        130 387 -130 hlineto
        -140 -48 1 -135 vhcurveto
        -194 582 396 hlineto
        126 17 -43 -96 23 hvcurveto
        27 -113 145 1 -39 363 rlineto
        -1088 -110 hlineto
        130 38 -29 -80 hvcurveto
        -1064 vlineto
        -80 -39 -27 -130 vhcurveto
        return
      </CharString>
      <CharString index="2">
        217 -65 188 -117 215 -39 callsubr
        hintmask 1101010000100000
        67 -208 rmoveto
        -175 140 -127 332 289 252 133 218 238 -189 39 -260 22 vhcurveto
        hintmask 1101000101000000
        -190 16 -74 9 48 vvcurveto
        26 33 40 71 16 vhcurveto
        -2 28 35 -1 4 hhcurveto
        227 192 145 226 89 -24 80 -36 52 hvcurveto
        hintmask 1110001000010000
        17 16 22 15 27 11 4 -69 47 -35 60 2 53 2 54 40 -3 72 -2 71 -52 55 -86 -3 -84 -2 -82 -50 -46 -53 rrcurveto
        hintmask 1101001000100000
        57 -77 -105 21 -100 hhcurveto
        -213 -219 -127 -254 -122 72 -145 130 -50 hvcurveto
        hintmask 1101000100100000
        -85 -38 -26 -55 -49 vvcurveto
        -61 29 -40 42 -25 vhcurveto
        hintmask 1101010000100000
        -108 -55 -99 -85 -136 vvcurveto
        hintmask 1101001001000000
        472 615 rmoveto
        -99 -110 72 180 196 110 69 99 99 102 -65 -196 -180 -102 -76 -99 hvcurveto
        hintmask 1101010000100000
        -257 -582 rmoveto
        72 24 68 75 40 vhcurveto
        65 -19 95 -5 103 -10 rrcurveto
        159 -15 89 -52 -101 vvcurveto
        -117 -118 -76 -187 -177 -128 71 144 vhcurveto
        hintmask 0000100010000000
        return
      </CharString>
      <CharString index="3">
        216 134 105 hintmask 00000000
        hintmask 11010011
        -22 callsubr
        155 -88 148 181 107 73 87 79 vhcurveto
        -95 28 78 -65 103 hhcurveto
        169 57 129 152 -7 hvcurveto
        -105 hlineto
        -113 -35 -28 -46 -40 -13 40 79 vhcurveto
        449 vlineto
        226 -112 120 -279 vhcurveto
        hintmask 11001011
        -213 -202 -101 -172 10 hvcurveto
        -67 4 50 -47 70 hhcurveto
        74 59 51 73 41 -20 35 -30 23 hvcurveto
        28 40 62 22 78 hhcurveto
        104 89 -64 -65 -112 -53 -17 -262 -83 hvcurveto
        hintmask 11010011
        -166 -54 -162 -98 -176 vvcurveto
        242 3 rmoveto
        102 60 82 116 50 vhcurveto
        48 19 100 35 77 40 rrcurveto
        -154 vlineto
        -205 -126 -104 -136 -83 -56 52 83 vhcurveto
        hintmask 00100100
        return
      </CharString>
      <CharString index="4">
        569 -70 callgsubr
        -189 -22 12 102 hvcurveto
        670 302 120 -302 114 vlineto
        362 107 22 81 33 43 -23 -46 20 vhcurveto
        -43 -14 -31 -39 -51 vvcurveto
        -67 64 -54 65 81 49 62 77 134 -98 129 -180 -245 -164 -193 -313 vhcurveto
        -100 -163 -120 113 vlineto
        41 9 -12 -52 hvcurveto
        -615 34 callsubr
        -122 vhcurveto
        return
      </CharString>
      <CharString index="5">
        496 rmoveto
        -276 151 -240 342 341 151 250 276 364 -213 164 -279 -280 -213 -174 -364 vhcurveto
        493 -396 rmoveto
        -151 -110 142 262 290 110 120 151 151 110 -120 -290 -262 -110 -142 -151 hvcurveto
        return
      </CharString>
      <CharString index="6">
        hmoveto
        547 -70 callgsubr
        -185 -32 32 77 30 hvcurveto
        103 251 rlineto
        581 hlineto
        90 -251 rlineto
        -82 31 -12 -27 -185 -51 callsubr
        617 -26 callsubr
        -137 -21 34 75 -31 hvcurveto
        -494 -16 callsubr
        -171 hlineto
        -540 -1281 rlineto
        -77 -31 -49 -32 -111 hhcurveto
        508 470 rmoveto
        265 648 232 -648 rlineto
        return
      </CharString>
      <CharString index="7">
        286 -190 221 hintmask 00000000
        hintmask 11010001
        149 272 rmoveto
        -147 181 -145 306 289 213 136 260 228 -242 148 -186 106 vhcurveto
        hintmask 11001010
        -154 86 -151 88 161 vvcurveto
        145 132 62 122 90 97 -17 -53 39 vhcurveto
        -39 -26 -25 -44 -51 vvcurveto
        -75 61 -61 82 84 59 69 86 160 -182 132 -276 -248 -215 -153 -245 -245 215 -129 188 -109 vhcurveto
        hintmask 11010001
        171 -92 157 -84 -139 vvcurveto
        -159 -138 -65 -133 -101 -104 24 54 -54 vhcurveto
        35 27 23 41 45 vvcurveto
        81 -61 63 -82 -90 -63 -72 -91 vhcurveto
        hintmask 00100100
        return
      </CharString>
      <CharString index="8">
        rmoveto
        257 131 257 -131 88 -46 44 52 -40 43 rlinecurve
        -293 281 rlineto
        -112 hlineto
        -293 -281 -40 -43 44 -52 88 46 rlinecurve
        endchar
      </CharString>
      <CharString index="9">
        258 -173 194 hintmask 00000000
        hintmask 11010001
        85 209 rmoveto
        -137 177 -92 232 237 159 103 181 159 -174 77 -147 81 vhcurveto
        hintmask 11001010
        -125 69 -141 54 95 vvcurveto
        68 61 65 120 74 50 -21 -30 30 vhcurveto
        -17 -20 -10 -26 -28 vvcurveto
        -67 52 -54 76 76 54 57 73 128 -167 89 -220 -208 -159 -106 -172 -177 159 -82 144 -73 vhcurveto
        hintmask 11010001
        120 -61 158 -66 -93 vvcurveto
        -92 -116 -23 -93 4 vhcurveto
        -60 2 -69 17 -47 26 rrcurveto
        21 21 13 29 31 vvcurveto
        69 -55 53 -74 -77 -54 -58 -73 vhcurveto
        hintmask 00100100
        return
      </CharString>
      <CharString index="10">
        90 74 65 93 101 -79 52 -85 -85 -79 -52 -101 -93 73 -65 91 hvcurveto
        endchar
      </CharString>
      <CharString index="11">
        23 callsubr
        351 -213 335 342 234 211 209 vhcurveto
        -144 hlineto
        -200 -57 -145 -90 -196 hhcurveto
        -228 -226 199 449 445 209 192 260 114 120 -44 -111 58 hvcurveto
        -48 -27 -32 -53 -60 vvcurveto
        -86 62 -63 90 92 69 74 107 224 -234 164 -312 -506 -208 -392 -378 vhcurveto
        return
      </CharString>
      <CharString index="12">
        hmoveto
        117 hlineto
        356 1095 370 -1095 rlineto
        130 hlineto
        410 -16 callsubr
        79 25 50 30 99 hhcurveto
        110 -517 -72 callsubr
        155 53 -29 -80 -24 hvcurveto
        -275 -921 -369 1140 rlineto
        -131 hlineto
        -362 -1144 -282 925 rlineto
        83 -26 7 26 185 hhcurveto
        110 -585 -72 callsubr
        117 23 -33 -76 27 hvcurveto
        return
      </CharString>
      <CharString index="13">
        hmoveto
        627 -70 callgsubr
        -177 -29 29 80 hvcurveto
        323 vlineto
        402 739 rlineto
        79 43 59 30 99 hhcurveto
        110 -517 -72 callsubr
        185 6 -34 -75 -39 hvcurveto
        -312 -610 -297 610 rlineto
        77 -39 4 32 133 hhcurveto
        110 -579 -72 callsubr
        125 52 -31 -78 42 hvcurveto
        418 -778 1 -284 rlineto
        -80 -53 -29 -154 vhcurveto
        return
      </CharString>
      <CharString index="14">
        rmoveto
        31 20 23 29 12 -9 22 -9 12 hvcurveto
        -123 169 rlineto
        75 -54 -28 54 -91 hhcurveto
        -60 -32 -46 -51 -36 11 -38 47 -35 hvcurveto
        200 -149 rlineto
        -33 45 23 -8 29 hhcurveto
        endchar
      </CharString>
      <CharString index="15">
        rmoveto
        34 26 26 45 -10 hvcurveto
        -50 236 rlineto
        125 -27 -25 64 -91 hhcurveto
        -73 -42 -36 -61 -34 13 -41 28 -47 hvcurveto
        130 -216 rlineto
        -48 29 29 -13 29 hhcurveto
        endchar
      </CharString>
      <CharString index="16">
        hmoveto
        515 -70 callgsubr
        -97 callsubr
        return
      </CharString>
      <CharString index="17">
        hmoveto
        -103 callgsubr
        return
      </CharString>
      <CharString index="18">
        80 39 29 130 vhcurveto
        110 return
      </CharString>
      <CharString index="19">
        196 132 131 198 8 hvcurveto
        -114 hlineto
        -85 -33 -70 -55 -119 hhcurveto
        -119 -70 55 85 -33 hvcurveto
        -114 hlineto
        -198 8 132 -131 196 hhcurveto
        endchar
      </CharString>
      <CharString index="20">
        -42 -169 -51 callsubr
        72 -19 callsubr
        1 hvcurveto
        -551 vlineto
        -79 -19 -26 -131 vhcurveto
        return
      </CharString>
</ttFont>
